<svg xmlns="http://www.w3.org/2000/svg" width="279.765" height="256.227" viewBox="0 0 279.765 256.227">
  <g id="Group_1714" data-name="Group 1714" transform="translate(565.959 277.332)">
    <g id="Group_1712" data-name="Group 1712" transform="translate(-565.959 -196.622)">
      <g id="Group_1443" data-name="Group 1443" style="isolation: isolate">
        <g id="Group_1442" data-name="Group 1442" transform="translate(0)">
          <path id="Path_1984" data-name="Path 1984" d="M771.722,188.573,632.224,104.4a15.589,15.589,0,0,0-14.284,0L497.9,174.415c-3.96,2.31-3.98,6.05-.047,8.358l139.5,84.172a15.593,15.593,0,0,0,14.285,0l120.036-70.014C775.634,194.623,775.656,190.881,771.722,188.573Z" transform="translate(-494.921 -102.669)" fill="#fff"/>
        </g>
        <path id="Path_1985" data-name="Path 1985" d="M771.676,169.485,651.64,239.5a15.593,15.593,0,0,1-14.285,0l-139.5-84.172c-1.954-1.146-2.932-2.648-2.937-4.149l.026,9.508c0,1.5.983,3,2.937,4.151l139.5,84.172a15.6,15.6,0,0,0,14.284,0L771.7,178.994c1.993-1.162,2.988-2.687,2.984-4.209l-.026-9.509C774.662,166.8,773.667,168.323,771.676,169.485Z" transform="translate(-494.921 -75.223)" fill="#f1f5f9"/>
      </g>
    </g>
    <g id="Group_1713" data-name="Group 1713" transform="translate(-526.668 -277.332)">
      <g id="Group_1449" data-name="Group 1449" transform="translate(137.416 3.116)" opacity="0.4" style="mix-blend-mode: screen;isolation: isolate">
        <path id="Path_1996" data-name="Path 1996" d="M608.934,143.5,697.6,195.212l.211-90.385L609.145,53.113Z" transform="translate(-608.934 -53.113)" fill="#fff"/>
      </g>
      <g id="Group_1450" data-name="Group 1450" transform="translate(125.603 32.585)" opacity="0.2" style="mix-blend-mode: screen;isolation: isolate">
        <path id="Path_1997" data-name="Path 1997" d="M601.312,171.939l111.908,65.273.267-100.006L601.579,71.933Z" transform="translate(-601.312 -71.933)" fill="#fff"/>
      </g>
      <g id="Group_1465" data-name="Group 1465" transform="translate(147.208 30.537)">
        <g id="Group_1460" data-name="Group 1460">
          <g id="Group_1451" data-name="Group 1451">
            <path id="Path_1998" data-name="Path 1998" d="M615.252,131.8,667.8,162.1l.081-61.177-52.545-30.3Z" transform="translate(-615.252 -70.625)" fill="#fff"/>
          </g>
          <g id="Group_1459" data-name="Group 1459" transform="translate(4.923 7.623)">
            <path id="Path_1999" data-name="Path 1999" d="M618.428,110.828l42.714,24.629.065-35.334L618.494,75.494Z" transform="translate(-618.428 -75.494)" fill="#517fa2"/>
            <g id="Group_1458" data-name="Group 1458" transform="translate(13.259 21.276)">
              <g id="Group_1456" data-name="Group 1456" style="isolation: isolate">
                <g id="Group_1452" data-name="Group 1452" transform="translate(0.112)">
                  <path id="Path_2000" data-name="Path 2000" d="M650.971,112.614c-.084-.05-.11-.069-.136-.088a2.228,2.228,0,0,1-.307-.261c-1.014-1.022-1.74-3.343-2.508-5.789-1.122-3.592-2.4-7.663-5.023-9.194-2.816-1.643-3.669.534-4.492,2.637-.866,2.214-1.686,4.3-4.583,2.61-2.686-1.567-4.287-6.529-5.832-11.329-.228-.714-.457-1.42-.685-2.112l-.35-.006c.229.691.457,1.4.687,2.1,1.415,4.4,2.878,8.938,5.243,11.1a5.444,5.444,0,0,0,.938.7,5.609,5.609,0,0,0,1.172.534c2.241.687,3.019-1.3,3.774-3.227.817-2.076,1.584-4.033,4.127-2.551,2.376,1.386,3.6,5.283,4.673,8.718.724,2.316,1.417,4.53,2.412,5.8a3.825,3.825,0,0,0,.446.484,2.625,2.625,0,0,0,.268.216c.04.028.079.055.119.08a2,2,0,0,0,1.039.312,4.54,4.54,0,0,0,2.942-1.68l-.313-.449C653.1,112.705,651.912,113.164,650.971,112.614Z" transform="translate(-627.055 -89.082)" fill="#92b3cb"/>
                </g>
                <g id="Group_1453" data-name="Group 1453" transform="translate(0 9.677)">
                  <path id="Path_2001" data-name="Path 2001" d="M635.134,100.016a5.606,5.606,0,0,1-1.172-.534,5.439,5.439,0,0,1-.938-.7l-6.042-3.523v.454l23.583,13.755v-.23a3.824,3.824,0,0,1-.446-.484Z" transform="translate(-626.983 -95.262)" fill="#92b3cb"/>
                </g>
                <g id="Group_1454" data-name="Group 1454" transform="translate(23.565 23.656)">
                  <path id="Path_2002" data-name="Path 2002" d="M642.206,104.19v.23l-.019,6.675.386.225.02-6.675v-.16c-.04-.025-.079-.052-.119-.08A2.618,2.618,0,0,1,642.206,104.19Z" transform="translate(-642.187 -104.19)" fill="#92b3cb"/>
                </g>
                <g id="Group_1455" data-name="Group 1455" transform="translate(23.971 23.952)">
                  <path id="Path_2003" data-name="Path 2003" d="M642.508,104.415l-.059-.036v.16l2.909,1.7,0-.454-1.872-1.091A1.933,1.933,0,0,1,642.508,104.415Z" transform="translate(-642.449 -104.379)" fill="#92b3cb"/>
                </g>
              </g>
              <g id="Group_1457" data-name="Group 1457" transform="translate(23.585 6.858)">
                <path id="Path_2004" data-name="Path 2004" d="M642.2,109.787a2.217,2.217,0,0,0,.307.261c.026.019.053.038.081.055l.045-16.416-.387-.225Z" transform="translate(-642.2 -93.462)" fill="#92b3cb"/>
              </g>
            </g>
          </g>
        </g>
        <g id="Group_1464" data-name="Group 1464" transform="translate(15.687 54.877)">
          <g id="Group_1461" data-name="Group 1461">
            <path id="Path_2005" data-name="Path 2005" d="M632.065,109.08l-5.586-3.258c-.6-.348-1.086-.067-1.088.626l-.019,6.484a2.415,2.415,0,0,0,1.082,1.891l5.586,3.258c.6.349,1.085.067,1.086-.626l.019-6.484A2.416,2.416,0,0,0,632.065,109.08Z" transform="translate(-625.373 -105.673)" fill="#565ace" stroke="rgba(0,0,0,0)" stroke-width="1"/>
          </g>
          <g id="Group_1462" data-name="Group 1462" transform="translate(11.875 7.089)">
            <path id="Path_2006" data-name="Path 2006" d="M639.726,113.607l-5.584-3.257c-.6-.349-1.086-.069-1.088.625l-.019,6.484a2.416,2.416,0,0,0,1.08,1.891l5.586,3.258c.6.349,1.086.067,1.088-.626l.019-6.484A2.418,2.418,0,0,0,639.726,113.607Z" transform="translate(-633.035 -110.2)" fill="#d5e0ee"/>
          </g>
          <g id="Group_1463" data-name="Group 1463" transform="translate(23.749 14.177)">
            <path id="Path_2007" data-name="Path 2007" d="M647.388,118.134l-5.586-3.257c-.6-.349-1.086-.069-1.088.626l-.019,6.484a2.418,2.418,0,0,0,1.082,1.891l5.586,3.257c.6.349,1.085.067,1.088-.626l.017-6.484A2.412,2.412,0,0,0,647.388,118.134Z" transform="translate(-640.696 -114.727)" fill="#ffec83"/>
          </g>
        </g>
      </g>
      <g id="Group_1477" data-name="Group 1477" transform="translate(93.454 26.715)">
        <path id="Path_2008" data-name="Path 2008" d="M601.03,128.493a9.894,9.894,0,0,0-6.065-2.978,16.083,16.083,0,0,1-3.464-.678c-1.472-.517-5.124.388-6.593,2.25-1.923,2.438.418,6.069,2.588,7.218,1.657.878,3.506.582,5.322.582a21.993,21.993,0,0,0,6.321-.7c1.161-.373,3.63-2.482,3.966-3.924C603.4,129,601.983,129.376,601.03,128.493Z" transform="translate(-578.575 -36.212)" fill="#6c90b1" opacity="0.1" style="mix-blend-mode: multiply;isolation: isolate"/>
        <g id="Group_1466" data-name="Group 1466" transform="translate(31.105 33.175)">
          <path id="Path_2009" data-name="Path 2009" d="M604.735,89.409c-2.674-.241-3.169.968-3.169.968a3.122,3.122,0,0,0,1.652.938,6.062,6.062,0,0,0,2.359-.918,4.524,4.524,0,0,0,1.551-.172.642.642,0,0,0,.274-.623S605.305,89.46,604.735,89.409Z" transform="translate(-600.128 -89.369)" fill="#f7b7a9"/>
          <path id="Path_2010" data-name="Path 2010" d="M605.968,90.387a2.887,2.887,0,0,0-3.32-.659l-1.108-.355-.9,1.909s1.426.463,1.465.5a15.466,15.466,0,0,0,3.421,2.1c.835.42,2.356-1.968,1.886-2.2A8.743,8.743,0,0,1,605.968,90.387Z" transform="translate(-600.638 -89.372)" fill="#f7b7a9"/>
          <path id="Path_2011" data-name="Path 2011" d="M606.624,91.334A6.534,6.534,0,0,1,604,90.119l.25,1.076a3.787,3.787,0,0,0,2.323.905,6.386,6.386,0,0,0,1.63-.185C608.124,91.578,608.132,91.426,606.624,91.334Z" transform="translate(-598.792 -88.949)" fill="#f7b7a9"/>
          <path id="Path_2012" data-name="Path 2012" d="M606.372,92a6.373,6.373,0,0,1-2.492-1.483l.15,1.094a3.663,3.663,0,0,0,2.216,1.146,6.378,6.378,0,0,0,1.64-.031C607.845,92.379,607.865,92.229,606.372,92Z" transform="translate(-598.855 -88.726)" fill="#f7b7a9"/>
          <path id="Path_2013" data-name="Path 2013" d="M606.137,92.455a6.393,6.393,0,0,1-2.492-1.483l.15,1.093a3.653,3.653,0,0,0,2.215,1.148,6.465,6.465,0,0,0,1.641-.031C607.608,92.838,607.63,92.688,606.137,92.455Z" transform="translate(-598.984 -88.467)" fill="#f7b7a9"/>
          <path id="Path_2014" data-name="Path 2014" d="M605.094,92.906a6.129,6.129,0,0,1-2-2.144l-.127,1.1a7.62,7.62,0,0,0,2.016,1.74,3.09,3.09,0,0,0,1.393.395C606.422,93.651,606.48,93.51,605.094,92.906Z" transform="translate(-599.356 -88.586)" fill="#f7b7a9"/>
        </g>
        <g id="Group_1467" data-name="Group 1467" transform="translate(4.861 47.227)">
          <path id="Path_2015" data-name="Path 2015" d="M602.384,142.381c-.941-.731-3.483-2.737-4.194-4.484-.076-.5-.339-3.179.33-14.155.363-5.931.384-5.424-.866-25.378l-.374.448-12.656-.465-.919,9.2.919,16.089a18.827,18.827,0,0,0-.442,7.582c.541,4.6,1.054,10.685,1.128,11.576,0,0-.343,2-.434,2.745s3.108,3.6,3.878,4.093c.787.5,3.349.5,3.717,0,.42-.575.046-1.39-1.238-2.317l-2.835-4.425s.73-17.025,1.18-18.541c.335-1.123,1.55-9.37,2.159-13.579l2.091,10.04s-.3,5.648-.136,8.152,1.376,9.119,1.376,9.119h0a8.687,8.687,0,0,0-.194,3.562s.377.47,1.916.789c1.5.312,2.542,1.462,3.6,1.9a4,4,0,0,0,2.974-.211.647.647,0,0,0,.274-.592A6.353,6.353,0,0,0,602.384,142.381Z" transform="translate(-583.705 -98.346)" fill="#f7b7a9"/>
          <path id="Path_2016" data-name="Path 2016" d="M595.422,121.8c.161-3.8-1.223-8.512.725-11.927a2.137,2.137,0,0,1,2.15-1.151c-.161-2.678-.372-6.039-.643-10.364l-.374.448-12.656-.465-.919,9.2.919,16.089a18.827,18.827,0,0,0-.442,7.582c.541,4.6,1.054,10.685,1.128,11.576,0,0-.343,2-.434,2.745s3.108,3.6,3.878,4.093a2.847,2.847,0,0,0,1.006.3c-.115-.1-.237-.193-.347-.3-2.382-2.336-2.821-5.635-3.236-8.825-.64-4.926.065-9.619.338-14.535.245-4.387.031-8.59,1.342-12.838.553-1.8,3.819-2.241,3.879-2.662l.4,1.913a2.089,2.089,0,0,1,.378,1.813l1.314,6.313s-.3,5.648-.136,8.152,1.376,9.119,1.376,9.119h0a8.687,8.687,0,0,0-.194,3.562s.377.47,1.916.789c1.5.312,2.542,1.462,3.6,1.9a2.444,2.444,0,0,0,.535.141,24.727,24.727,0,0,1-4.575-7.081C594.291,132.421,595.2,127.006,595.422,121.8Z" transform="translate(-583.705 -98.346)" fill="#eaaea0"/>
          <path id="Path_2017" data-name="Path 2017" d="M599.646,128.428h0a6.417,6.417,0,0,0-.794-.748,6.553,6.553,0,0,1-2.706-.385,32.911,32.911,0,0,1-5.253-2.386.3.3,0,0,1-.036-.025,7.448,7.448,0,0,0-.008.983l0,0a4.354,4.354,0,0,0,.105.769s.377.47,1.916.789a5.724,5.724,0,0,1,1.965.9c.146.1.287.193.426.285.277.189.546.37.811.517a3.408,3.408,0,0,0,.4.193,2.771,2.771,0,0,0,.876.186,4.61,4.61,0,0,0,.465,0,4.878,4.878,0,0,0,1.215-.2,1.137,1.137,0,0,0,.418-.2.46.46,0,0,0,.048-.036.643.643,0,0,0,.226-.556s-.019-.025-.053-.066Z" transform="translate(-579.783 -83.332)" fill="#002d42"/>
          <path id="Path_2018" data-name="Path 2018" d="M591.094,130.948a4.131,4.131,0,0,1-3.949-.078c-1.254-.69-1.781-2.042-2.488-3.216-.045.28-.088.559-.125.808h0l-.026.175-.009.069c-.014.094-.025.18-.034.252-.087.7,2.72,3.255,3.707,3.974.065.049.122.088.17.119a5.557,5.557,0,0,0,3.092.282,1.994,1.994,0,0,0,.392-.117.56.56,0,0,0,.233-.164v0a.817.817,0,0,0,.13-.285l0,0,0,0C592.312,132.267,591.968,131.644,591.094,130.948Z" transform="translate(-583.29 -81.764)" fill="#002d42"/>
        </g>
        <path id="Path_2019" data-name="Path 2019" d="M584.948,69.779c-2.914,4.871,1.183,6.047,1.183,6.047l2.5-7.1S586.631,66.967,584.948,69.779Z" transform="translate(-578.736 -68.185)" fill="#002d42"/>
        <path id="Path_2020" data-name="Path 2020" d="M585.6,70.88a1.73,1.73,0,0,1-.894-1.39c-2.393,4.486,1.423,5.6,1.423,5.6l1.5-4.256A2.108,2.108,0,0,1,585.6,70.88Z" transform="translate(-578.73 -67.446)" fill="#09425e"/>
        <path id="Path_2021" data-name="Path 2021" d="M597.656,93.553l-13.545.941a39.283,39.283,0,0,0-1.148,10.586l-.023,6.5s2.731,5.948,11.545,2.8c6.779-2.419,6.617-4,6.617-4Z" transform="translate(-579.265 -53.831)" fill="#002d42"/>
        <path id="Path_2022" data-name="Path 2022" d="M584.112,94.494a39.283,39.283,0,0,0-1.148,10.586l-.023,6.5a6.242,6.242,0,0,0,4.019,1.942,1.661,1.661,0,0,1-.26-1.157c.626-6.071.591-11.166,5.984-15.079A18.776,18.776,0,0,1,598,94.677l-.341-1.124Z" transform="translate(-579.265 -53.831)" fill="#6c90b1" opacity="0.1" style="mix-blend-mode: multiply;isolation: isolate"/>
        <g id="Group_1468" data-name="Group 1468" transform="translate(11.906 14.092)">
          <path id="Path_2023" data-name="Path 2023" d="M600.51,91.739l1.32.531,1.3-2.775-1.528-.564Z" transform="translate(-581.51 -70.539)" fill="#fff"/>
          <path id="Path_2024" data-name="Path 2024" d="M594.8,78.651c-.178.312-2.454-1.6-2.881-1.459-1.251.406-2.471.878-3.669,1.4.535.6,2.571,1.007,3.03,3.2.949,4.527,4.679,12.633,5.194,12.927l10.986,4.015,1.475-3.321-9.259-4.779S598.648,87.78,594.8,78.651Z" transform="translate(-588.251 -77.184)" fill="#09425e"/>
        </g>
        <path id="Path_2025" data-name="Path 2025" d="M598.832,87.136l-1.21-3.351-1.15-3.056c-.133-.581-.147-1.143-.319-2.228-.026-.013-.051-.017-.078-.031a33.12,33.12,0,0,0-4.936-2.076,10.684,10.684,0,0,0-8.07,5.519c-1.074,2.053,1.8,8.162,2.316,16.112a3.338,3.338,0,0,1-.07.919L583.6,106.26c6.223,4.2,15.07-.194,15.07-.194l-1.826-8.236.777-6.883S599.532,89.918,598.832,87.136Z" transform="translate(-579.326 -63.54)" fill="#fff"/>
        <path id="Path_2026" data-name="Path 2026" d="M594.458,91.316a3.966,3.966,0,0,0,1.163-4.174l-1.167-3.4-1.162-3c-.2-.894,1.7.465,1.556-.136-.716-2.937-1.93-3.828-2.639-3.886a32.137,32.137,0,0,0-3.225-.435,1.661,1.661,0,0,1,1.026.91c2.212,4.478,2,8.083,1.347,12.893-1.1,8.133,1.026,18.306,1.025,18.378a6.274,6.274,0,0,0,3.4-2.576l-2.314-8Z" transform="translate(-575.943 -63.603)" fill="#09425e"/>
        <path id="Path_2027" data-name="Path 2027" d="M590.5,77.483a1.724,1.724,0,0,1-.028-1.2c-.432-.019-.935-.022-1.488,0a1.661,1.661,0,0,1,1.026.91c2.212,4.478,2,8.083,1.347,12.893-1.1,8.133,1.026,18.306,1.025,18.378a5.541,5.541,0,0,0,2.309-1.314,15.109,15.109,0,0,1-1.083-4.312C592.524,94.356,593.413,85.669,590.5,77.483Z" transform="translate(-575.943 -63.609)" fill="#09425e"/>
        <path id="Path_2028" data-name="Path 2028" d="M591.674,78.737l-.629-2.148a4.585,4.585,0,0,0-2.063-.3,8.037,8.037,0,0,1,2.1,3.594,23.074,23.074,0,0,1,.318,9.849c1.81-3.863,1.395-10.026,1.395-10.026Z" transform="translate(-575.943 -63.606)" fill="#002d42"/>
        <path id="Path_2029" data-name="Path 2029" d="M587,77.12a10.539,10.539,0,0,0-4.092,4c-1.074,2.051,2.041,8.548,2.554,16.5a3.336,3.336,0,0,1-.07.919l-2.246,7.547c2.261,2.418,9.262,3.107,12.018,2.093,1.71-2.944.141-17.242-.029-17.986C593.986,85.146,587.1,77.286,587,77.12Z" transform="translate(-579.405 -63.129)" fill="#09425e"/>
        <path id="Path_2030" data-name="Path 2030" d="M587.091,92.446c-.525-2.275-2.361-4.635-2.344-7.023a10.214,10.214,0,0,1,1.569-4.437c-.335-.019-.671-.033-1.007-.063a2.318,2.318,0,0,1-1.7-1.181,4.008,4.008,0,0,1-.967,2.4c.519,3.025,2.464,8.043,2.847,13.987a3.336,3.336,0,0,1-.07.919l-2.246,7.547c1.142,1.221,3.5,2,5.9,2.342a7.869,7.869,0,0,1-.626-.623C585,102.272,588.17,97.115,587.091,92.446Z" transform="translate(-579.43 -61.645)" fill="#09425e"/>
        <path id="Path_2031" data-name="Path 2031" d="M591.9,79.3c.259-.465-.245-2.629-3.1-3.177a3.028,3.028,0,0,0-2.923,1.3s-.17,1.713,2.605,2.6a3.516,3.516,0,0,0,1.369.205c.361-.008,2.112,2.129,2.112,2.129A23.133,23.133,0,0,1,591.9,79.3Z" transform="translate(-577.652 -63.719)" fill="#f7b7a9"/>
        <path id="Path_2032" data-name="Path 2032" d="M586.448,75.241a5.6,5.6,0,0,1-.422,2.728l3.538,1.367a1.169,1.169,0,0,0,1.584-1.073c.047-1.672-.034-3.536-.034-3.536Z" transform="translate(-577.568 -64.483)" fill="#f7b7a9"/>
        <path id="Path_2033" data-name="Path 2033" d="M590.227,74.795l-3.661.38-.138.546c.037.1-.125.1-.124.147,1.331,2.194,2.985,2.906,3.844,2.909a.874.874,0,0,0,.874-.773c.071-.634.127-1.575.163-2.292A.873.873,0,0,0,590.227,74.795Z" transform="translate(-577.415 -64.447)" fill="#eaaea0"/>
        <path id="Path_2034" data-name="Path 2034" d="M584.9,71.541l.53,3.661a6.008,6.008,0,0,0,4.947,5.126c2.474.667,3.548-1.835,3.548-4.433l-.279-5.931Z" transform="translate(-578.19 -67.178)" fill="#f7b7a9"/>
        <path id="Path_2035" data-name="Path 2035" d="M584.577,78.033l3.094,2.6-.417,1.37a25.111,25.111,0,0,1,6.571,7.248s-.927-5.141-7.864-12.133A5.282,5.282,0,0,0,584.577,78.033Z" transform="translate(-578.365 -63.129)" fill="#002d42"/>
        <path id="Path_2036" data-name="Path 2036" d="M583.4,98.3s-.006-.13-.019-.36c-.06,0-.119.008-.183.006-.693-.027-1.383-.03-2.072-.031.09.581.171,1.1.236,1.525l.133,3.442.583,1.3,1,.628s.466.492.536.581c.239.308.648.2.539-.177l-.088-.406-.172-1.063.318-1.627.209,1.329c.409.927.637.737.637.737l-.184-3Z" transform="translate(-580.263 -51.364)" fill="#f8c4b8"/>
        <path id="Path_2037" data-name="Path 2037" d="M587.171,68.944c-1.045.568-3.007,2.176-2.209,6.6a8.465,8.465,0,0,0,2.182,3.922l-.009-.664a33.4,33.4,0,0,1,.482-3.556c.122-.359.524-.8,1-.648a9.151,9.151,0,0,0,5.714-.4,4.055,4.055,0,0,0-1.124-4.293A5.456,5.456,0,0,0,587.171,68.944Z" transform="translate(-578.256 -68.045)" fill="#002d42"/>
        <path id="Path_2038" data-name="Path 2038" d="M584.789,71.949a10.9,10.9,0,0,0,.166,1.6,8.466,8.466,0,0,0,2.182,3.922l-.009-.664s.088-.944.2-1.874A5.489,5.489,0,0,1,584.789,71.949Z" transform="translate(-578.248 -66.055)" fill="#09425e"/>
        <path id="Path_2039" data-name="Path 2039" d="M586.479,72.743c-.766.027-.713.656-.391,1.3.527,1.062,1.035.856,1.035.856l.166-1.854S587.244,72.718,586.479,72.743Z" transform="translate(-577.657 -65.606)" fill="#f7b7a9"/>
        <path id="Path_2040" data-name="Path 2040" d="M586.609,76.27,585.47,77.6c.448,3.2,3.817,4.381,3.817,4.381l.784-1.859C588.32,79.716,586.609,76.27,586.609,76.27Z" transform="translate(-577.874 -63.61)" fill="#fff"/>
        <path id="Path_2041" data-name="Path 2041" d="M589.617,76.54h-.274l-.009.582A3.3,3.3,0,0,1,590,79.041l1.211-.68A6.2,6.2,0,0,0,589.617,76.54Z" transform="translate(-575.75 -63.457)" fill="#fff"/>
        <path id="Path_2042" data-name="Path 2042" d="M589.763,78.382l1.351.812-.14-1.491Z" transform="translate(-575.513 -62.799)" fill="#ffec83"/>
        <g id="Group_1470" data-name="Group 1470" transform="translate(0 16.759)">
          <g id="Group_1469" data-name="Group 1469" transform="translate(0.135 0.412)">
            <path id="Path_2043" data-name="Path 2043" d="M585.461,79.159a1.558,1.558,0,0,0-1.6,1.03,39.386,39.386,0,0,0-1.331,4.7c-.947,4.129-1.874,10.572-1.874,10.572l3.822.871s3.512-12.266,3.644-13.023C588.237,82.65,587.827,79.394,585.461,79.159Z" transform="translate(-580.656 -79.151)" fill="#f7b7a9"/>
            <path id="Path_2044" data-name="Path 2044" d="M580.679,91.6c.011,1.041.741,11.628.741,11.628l2.331-.615s.3-8.911.727-12.179l-3.822-.871S580.667,90.563,580.679,91.6Z" transform="translate(-580.656 -73.258)" fill="#f7b7a9"/>
            <path id="Path_2045" data-name="Path 2045" d="M585.461,79.159a1.558,1.558,0,0,0-1.6,1.03,39.386,39.386,0,0,0-1.331,4.7c-.947,4.129-1.874,10.572-1.874,10.572s.011,1,.023,2.037.741,11.628.741,11.628l2.331-.615s.3-8.911.727-12.179c0,0,3.512-12.266,3.644-13.023C588.237,82.65,587.827,79.394,585.461,79.159Z" transform="translate(-580.656 -79.151)" fill="#fff"/>
            <path id="Path_2046" data-name="Path 2046" d="M582.562,100.953c-.009,1.747-.068,3.49-.226,5.222l.491-.13s.3-8.911.727-12.179c0,0,1.871-6.536,2.932-10.359-.893,2.638-2.564,5.227-3.345,7.964C582.266,94.532,582.578,97.8,582.562,100.953Z" transform="translate(-579.732 -76.687)" fill="#09425e"/>
          </g>
          <path id="Path_2047" data-name="Path 2047" d="M581.105,99.119a12.622,12.622,0,0,0,2.5-.659l.057-1.547-2.732.164Z" transform="translate(-580.372 -68.689)" fill="#fff"/>
          <path id="Path_2048" data-name="Path 2048" d="M585.709,78.89a2.274,2.274,0,0,0-1.8,1.448,39.39,39.39,0,0,0-1.331,4.7c-.947,4.129-2.009,10.564-2.009,10.564l.481,12.692,3.329-.691s-.169-8.255.262-11.523c0,0,3.9-12.075,4.031-12.832C588.787,82.591,588.836,79.089,585.709,78.89Z" transform="translate(-580.569 -78.888)" fill="#09425e"/>
          <path id="Path_2049" data-name="Path 2049" d="M583.909,80.337a39.39,39.39,0,0,0-1.331,4.7c-.947,4.129-2.009,10.564-2.009,10.564l.481,12.694,1.754-.365a40.026,40.026,0,0,1-.215-11.18,102.844,102.844,0,0,1,2.861-17.332,2.1,2.1,0,0,1,.237-.528A2.294,2.294,0,0,0,583.909,80.337Z" transform="translate(-580.569 -78.887)" fill="#09425e"/>
        </g>
        <path id="Path_2050" data-name="Path 2050" d="M585.149,85.811c2.571,3.988,6.924.78,6.924.78C588.536,88.208,585.149,85.811,585.149,85.811Z" transform="translate(-578.051 -58.212)" fill="#09425e"/>
        <g id="Group_1476" data-name="Group 1476" transform="translate(7.862 5.257)">
          <path id="Path_2051" data-name="Path 2051" d="M591.089,71.542l-.036.251,1.015.81,0,0a.122.122,0,0,0,.17-.023.123.123,0,0,0-.023-.172Z" transform="translate(-582.666 -71.542)" fill="#09425e"/>
          <g id="Group_1475" data-name="Group 1475" transform="translate(3.652 0.81)">
            <g id="Group_1474" data-name="Group 1474">
              <g id="Group_1473" data-name="Group 1473">
                <g id="Group_1471" data-name="Group 1471" transform="translate(0.285 1.623)" opacity="0.5">
                  <path id="Path_2052" data-name="Path 2052" d="M589.707,73.322c-1.166.407-1.64.744-1.5,1.538s.448,1.174,1.48.631a2.41,2.41,0,0,0,1.279-2.042C590.966,73.093,590.828,72.932,589.707,73.322Z" transform="translate(-588.182 -73.096)" fill="#504845"/>
                </g>
                <g id="Group_1472" data-name="Group 1472" transform="translate(3.551 0.271)" opacity="0.5">
                  <path id="Path_2053" data-name="Path 2053" d="M591.425,72.557c-.97.515-1.133.811-1.136,1.168-.009,1.118.755,1.118,1.131,1,.84-.261,1.062-.861,1.159-1.752S592.358,72.061,591.425,72.557Z" transform="translate(-590.289 -72.232)" fill="#504845"/>
                </g>
                <path id="Path_2054" data-name="Path 2054" d="M594,72.065l0-.006a3.436,3.436,0,0,0-.959.326h.009c-.076.034-.158.075-.248.121l-.123.064a4.165,4.165,0,0,0-.856.554c-.028.023-.062.053-.1.089a2.268,2.268,0,0,1-.4.316,1.317,1.317,0,0,1-.432.049c-.043,0-.082,0-.115,0a3.382,3.382,0,0,0-.959.24l-.149.052c-.1.036-.192.072-.28.108l.008-.006a8.8,8.8,0,0,0-1.3.623.116.116,0,0,0-.078.088l-.02.208c0,.038.026.058.065.047l.031-.009s.1,0,.093.139a.314.314,0,0,0,.006.077,1.357,1.357,0,0,0,.019.349c.119.7.386,1.123,1.2.836a2.941,2.941,0,0,0,.386-.174,2.542,2.542,0,0,0,1.334-1.917l0,.011,0-.06,0-.042c.02-.257.127-.327.17-.346v0l.009-.006.011,0v0c.037-.017.119-.028.143.169,0,.034,0,.069.006.1V74.1l0-.009a.855.855,0,0,0,1.19.824,1.962,1.962,0,0,0,.318-.13,1.93,1.93,0,0,0,.917-1.73,2.257,2.257,0,0,0,.011-.387c0-.016,0-.034,0-.058a.286.286,0,0,1,.065-.205l.02-.013a.1.1,0,0,0,.045-.092l-.015-.193C594.032,72.079,594.016,72.065,594,72.065ZM589.777,76a2.663,2.663,0,0,1-.356.158c-.691.244-.908-.1-1.021-.756a.87.87,0,0,1,.112-.689,2.383,2.383,0,0,1,1.145-.658L589.8,74c1.111-.387,1.182-.21,1.181.07A2.3,2.3,0,0,1,589.777,76Zm3.994-2.906c-.082.75-.24,1.243-.789,1.527a1.738,1.738,0,0,1-.293.117c-.175.055-1.069.254-1.063-.944,0-.28.1-.536,1.062-1.048l.121-.063c.494-.254.758-.321.882-.2C593.782,72.563,593.809,72.759,593.771,73.089Z" transform="translate(-587.998 -72.059)" fill="#09425e"/>
              </g>
            </g>
          </g>
          <path id="Path_2055" data-name="Path 2055" d="M586.43,72.643l.017.014.022,0Z" transform="translate(-585.208 -70.919)" fill="#09425e"/>
          <path id="Path_2056" data-name="Path 2056" d="M586.983,72.64l-.019-.013-.022,0-1.182-.249a.1.1,0,0,0-.04.193l1.161.244-.017-.014.039.019-.022,0,2.39,1.891,0,0a.119.119,0,0,0,.17-.023.123.123,0,0,0-.023-.172Z" transform="translate(-585.642 -71.073)" fill="#09425e"/>
        </g>
      </g>
      <g id="Group_1489" data-name="Group 1489" transform="translate(106.614 114.679)">
        <g id="Group_1482" data-name="Group 1482" transform="translate(21.562 16.996)">
          <path id="Path_2057" data-name="Path 2057" d="M608.675,145.98l1.307,1.542,1.542-1.179,3-2.462.808-3.721-5.456,4.983Z" transform="translate(-599.836 -132.422)" fill="#fcb698"/>
          <g id="Group_1481" data-name="Group 1481">
            <g id="Group_1480" data-name="Group 1480" style="isolation: isolate">
              <g id="Group_1478" data-name="Group 1478" transform="translate(0.628 0.697)">
                <path id="Path_2058" data-name="Path 2058" d="M603.377,141.122l9.282,6.237,6-5.742-8.848-5.953Z" transform="translate(-603.377 -135.663)" fill="#09425e"/>
              </g>
              <g id="Group_1479" data-name="Group 1479" transform="translate(0.018)">
                <path id="Path_2059" data-name="Path 2059" d="M610.41,135.276a.429.429,0,0,0-.392-.02l-6.948,6.237a.121.121,0,0,0-.009.229l9.163,6.16a.425.425,0,0,0,.391.019l6.948-6.237a.121.121,0,0,0,.009-.229Zm2.053,12.047-8.436-5.667,6-5.742,8.436,5.665Z" transform="translate(-602.984 -135.218)" fill="#002d42"/>
              </g>
              <path id="Path_2060" data-name="Path 2060" d="M612.62,145.61a.425.425,0,0,1-.391-.019l-9.163-6.16a.138.138,0,0,1-.076-.119l-.019.338a.143.143,0,0,0,.076.119l9.163,6.158a.426.426,0,0,0,.391.02l6.948-6.237a.143.143,0,0,0,.087-.11l.017-.338a.138.138,0,0,1-.085.11Z" transform="translate(-602.972 -132.928)" fill="#09425e"/>
            </g>
          </g>
          <path id="Path_2061" data-name="Path 2061" d="M605.988,146.791s.037,5.213.933,5.283c.922.072,1.635-.355,5.682-7.229l-2.45-1.5Z" transform="translate(-601.313 -130.618)" fill="#d5e0ee"/>
          <path id="Path_2062" data-name="Path 2062" d="M612.221,139.535s-.874-.238-.874.988v1.812s-1.711,1.157-1.454,2.557l2.85-1.653-.231-.755Z" transform="translate(-599.18 -132.786)" fill="#fcb698"/>
        </g>
        <path id="Path_2063" data-name="Path 2063" d="M601.642,138.353l1.767,3.656,2.67-.587s.677-.133.677-.755a18.646,18.646,0,0,1,.217-1.987l1.135-.053s1.13.139,1.213-.722l-4.557-.424Z" transform="translate(-582.141 -116.941)" fill="#fcb698"/>
        <g id="Group_1485" data-name="Group 1485" transform="translate(14.157 43.795)">
          <g id="Group_1484" data-name="Group 1484">
            <g id="Group_1483" data-name="Group 1483">
              <path id="Path_2064" data-name="Path 2064" d="M616.185,168.009a29.228,29.228,0,0,1-4.91-.57l-4.864,1.105-.166,2.494a1.369,1.369,0,0,0,.223.878c.959,1.37,2.974.82,2.974.82s6.475-1.386,8.4-2.436C619.333,169.485,617.684,168.012,616.185,168.009Z" transform="translate(-593.769 -143.786)" fill="#e5ecf4"/>
              <path id="Path_2065" data-name="Path 2065" d="M614.175,170.274a9.514,9.514,0,0,1-5.15-2.508l-2.613.593-.166,2.494a1.369,1.369,0,0,0,.223.878c.959,1.37,2.974.82,2.974.82s6.475-1.386,8.4-2.436a1.417,1.417,0,0,0,.353-.266c-.332.141-.665.282-1,.424A5.684,5.684,0,0,1,614.175,170.274Z" transform="translate(-593.769 -143.601)" fill="#6c90b1" opacity="0.1" style="mix-blend-mode: multiply;isolation: isolate"/>
              <path id="Path_2066" data-name="Path 2066" d="M608.9,165.174a40.438,40.438,0,0,1-4.632-.351l-4.529.858-.474,2.648a.993.993,0,0,0,.144.738c.967,1.4,3.335.734,3.335.734l7.438-2.377C611.541,166.874,610.366,165.175,608.9,165.174Z" transform="translate(-597.612 -145.266)" fill="#e5ecf4"/>
              <path id="Path_2067" data-name="Path 2067" d="M599.661,165.666l-.392,2.186a.993.993,0,0,0,.144.738c.967,1.4,3.335.734,3.335.734l7.438-2.377a1.051,1.051,0,0,0,.417-.287A19.237,19.237,0,0,1,599.661,165.666Z" transform="translate(-597.612 -144.789)" fill="#6c90b1" opacity="0.1" style="mix-blend-mode: multiply;isolation: isolate"/>
              <path id="Path_2068" data-name="Path 2068" d="M610.216,152.424s-1.331,8.615-2.759,8.784c.257,5.851-1.127,16.281-1.127,16.281a3.438,3.438,0,0,0,3.421.59c1.418-.387,1.773-1.12,1.807-1.874l4.763-19.74C616.321,151.367,610.216,152.424,610.216,152.424Z" transform="translate(-593.72 -152.333)" fill="#002d42"/>
              <path id="Path_2069" data-name="Path 2069" d="M605.045,154.9,598.194,172.3s.529,1.181,2.655.891c.98-.135,2.026-.791,2.077-1.788l8.292-17.3C609.4,154.31,605.265,154.95,605.045,154.9Z" transform="translate(-598.194 -151.329)" fill="#002d42"/>
            </g>
          </g>
        </g>
        <path id="Path_2070" data-name="Path 2070" d="M607.515,150.257c-.947-.374-4.065,0-4.065,0l-1.807,3.262,2.97,3.479,5.284-1.423.253-2.4S610.154,151.3,607.515,150.257Z" transform="translate(-582.141 -109.807)" fill="#002d42"/>
        <path id="Path_2071" data-name="Path 2071" d="M609.7,158.434a10.932,10.932,0,0,1-1.742,1.062l.028,21.86a.437.437,0,0,0,.256.362,1.345,1.345,0,0,0,1.229,0,.44.44,0,0,0,.253-.359l-.009-2.483.009,0Z" transform="translate(-578.669 -105.086)" fill="#92b3cb"/>
        <path id="Path_2072" data-name="Path 2072" d="M602.588,164.378a10.977,10.977,0,0,1-1.741,1.06l.026,21.86a.439.439,0,0,0,.256.363,1.341,1.341,0,0,0,1.229,0,.435.435,0,0,0,.253-.357l-.009-2.483h.009Z" transform="translate(-582.579 -101.723)" fill="#92b3cb"/>
        <path id="Path_2073" data-name="Path 2073" d="M599.589,153.546a10.933,10.933,0,0,1-1.742,1.062l.026,21.86a.439.439,0,0,0,.257.362,1.34,1.34,0,0,0,1.229,0,.439.439,0,0,0,.253-.357l-.011-2.483.011,0Z" transform="translate(-584.228 -107.852)" fill="#92b3cb"/>
        <path id="Path_2074" data-name="Path 2074" d="M590.951,158.851a10.982,10.982,0,0,1-1.741,1.06l.026,21.862a.442.442,0,0,0,.256.362,1.34,1.34,0,0,0,1.229,0,.435.435,0,0,0,.253-.357l-.009-2.483.009,0Z" transform="translate(-588.978 -104.85)" fill="#92b3cb"/>
        <g id="Group_1486" data-name="Group 1486" transform="translate(0.037 44.567)">
          <path id="Path_2075" data-name="Path 2075" d="M622.232,160.757l-11.937-7.008a8.307,8.307,0,0,0-7.607,0l-12.015,7.007c-2.109,1.231-2.12,3.221-.025,4.452l11.937,7.008a8.307,8.307,0,0,0,7.607,0l12.015-7.008C624.312,163.979,624.323,161.984,622.232,160.757Z" transform="translate(-589.084 -152.826)" fill="#565ace" stroke="rgba(0,0,0,0)" stroke-width="1"/>
        </g>
        <g id="Group_1488" data-name="Group 1488" transform="translate(1.508)">
          <g id="Group_1487" data-name="Group 1487">
            <path id="Path_2076" data-name="Path 2076" d="M609.045,154.043c-.2.045-10.4.822-15.759-.737-.146,1.234-.273,2.416-.327,3.169-.164,2.291,6.187,7.625,6.358,7.744,4.177,2.915,21.136-4.654,21.308-7.871l-3.053-3.957Z" transform="translate(-588.426 -108.505)" fill="#002d42"/>
            <path id="Path_2077" data-name="Path 2077" d="M609.193,138.55a10.536,10.536,0,0,0-3.394-2.522c-2.712-1.37-2.041-1.607-3.487-2.1-3.521-1.195-8.689.878-8.689.878a4.481,4.481,0,0,0-3.5,3.7c-.546,2.994,1.638,13.408,2.932,18.636a80.422,80.422,0,0,1,1.156,8.162s6.855,2.881,11.319,2.869c3.841-.011,4.439-3.121,4.439-3.121a95.187,95.187,0,0,0-.772-11.624C608.736,149.409,609.193,138.55,609.193,138.55Z" transform="translate(-590.033 -119.16)" fill="#d5e0ee"/>
            <path id="Path_2078" data-name="Path 2078" d="M605.681,152.434a7.643,7.643,0,0,0-1.714-4.3c-3.287-3.272-8.4-3.824-12.537-5.84a50.026,50.026,0,0,0,.852,9.9,80.446,80.446,0,0,1,1.156,8.162s6.855,2.881,11.319,2.869a5.2,5.2,0,0,0,2.317-.493,6.016,6.016,0,0,1-.6-1.372C605.582,158.4,606.056,155.443,605.681,152.434Z" transform="translate(-589.264 -114.217)" fill="#6c90b1" opacity="0.1" style="mix-blend-mode: multiply;isolation: isolate"/>
            <path id="Path_2079" data-name="Path 2079" d="M594.735,135.126c0,1.76,5.938,2.414,5.938.656l.2-4.758h-5.837Z" transform="translate(-587.447 -120.595)" fill="#fcb698"/>
            <path id="Path_2080" data-name="Path 2080" d="M595.067,132.95l-.786,1.134c-.251.561.4,1.073.914,1.4,1.906,1.2,5.482,1.295,6.682-.431l-.9-.963C599.023,134.827,595.6,134.732,595.067,132.95Z" transform="translate(-587.727 -119.505)" fill="#fff"/>
            <path id="Path_2081" data-name="Path 2081" d="M594.073,133.63c.161,2.659,5.125,2.878,5.125,2.878,2.54-.157,3.383-.839,3.861-3.752l.544-6.053-10.359,2.034Z" transform="translate(-588.267 -123.039)" fill="#fcb698"/>
            <path id="Path_2082" data-name="Path 2082" d="M600.555,124.606c-1.511-.559-6.691-.415-7.412,3.345-1.184,6.171,2.136,9.54,2.136,9.54s2.709,1.376,3.822.373c1.53-1.378,3.6-3.293,3.473-5.364s.516-2.729.516-2.729C606.13,127.339,602.7,125.4,600.555,124.606Z" transform="translate(-588.462 -124.363)" fill="#81524f"/>
            <path id="Path_2083" data-name="Path 2083" d="M598.624,129.8c-.062,1.174-.147,2.58.612,2.09l.409-1.954S598.709,128.208,598.624,129.8Z" transform="translate(-585.33 -121.668)" fill="#fcb698"/>
          </g>
        </g>
        <path id="Path_2084" data-name="Path 2084" d="M602.629,147.676l-8.055-4.829a3.468,3.468,0,0,0-5.237,2.867l-.277,23.305,18.957,10.013-2.4-26.435A6.2,6.2,0,0,0,602.629,147.676Z" transform="translate(-589.06 -114.186)" fill="#565ace" stroke="rgba(0,0,0,0)" stroke-width="1"/>
        <path id="Path_2085" data-name="Path 2085" d="M606.928,142.3s-2.574-6.575-4.625-5.77c-3.5,1.373-1.291,6.388-1.291,6.388s3,7.337,4.318,9.614c2.519,4.334,4.583,3.47,4.848,3.49.873.067,1.28-.374,1.435-1.179.527-2.214-2.74-8.067-2.74-8.067Z" transform="translate(-582.866 -117.517)" fill="#d5e0ee"/>
      </g>
      <g id="Group_1503" data-name="Group 1503" transform="translate(31.269 72.007)">
        <path id="Path_2086" data-name="Path 2086" d="M551,123.851a10.931,10.931,0,0,1-1.742,1.062l.028,21.86a.438.438,0,0,0,.256.362,1.34,1.34,0,0,0,1.229,0,.436.436,0,0,0,.253-.357l-.009-2.483.009,0Z" transform="translate(-535.605 -81.981)" fill="#002d42"/>
        <path id="Path_2087" data-name="Path 2087" d="M542.773,129.406a10.978,10.978,0,0,1-1.741,1.06l.026,21.86a.442.442,0,0,0,.256.363,1.341,1.341,0,0,0,1.229,0,.435.435,0,0,0,.253-.357l-.009-2.483h.009Z" transform="translate(-540.125 -78.838)" fill="#92b3cb"/>
        <path id="Path_2088" data-name="Path 2088" d="M567.813,138.83c-.333.025-3.655.178-3.655.178l-2.993.658-.508,2.029c.377,1.358,2.2,1.137,2.649,1.105s5.115-1.6,5.115-1.6a4.1,4.1,0,0,0,1.544-1.091C570.945,138.4,568.089,138.812,567.813,138.83Z" transform="translate(-529.334 -73.537)" fill="#fff"/>
        <path id="Path_2089" data-name="Path 2089" d="M568.749,140.381a20.735,20.735,0,0,1-3.971,1.282,4.189,4.189,0,0,1-3.887-.59c-.045-.027-.093-.049-.136-.08l-.1.391c.377,1.358,2.2,1.137,2.649,1.105s5.115-1.6,5.115-1.6a4.1,4.1,0,0,0,1.544-1.091,1.5,1.5,0,0,0,.183-.476h0A4.729,4.729,0,0,1,568.749,140.381Z" transform="translate(-529.334 -73.226)" fill="#ff836e"/>
        <path id="Path_2090" data-name="Path 2090" d="M558.711,135.131c-.318.1-1.829.4-1.829.4l-3.117,1.007-.507,2.562c.355,1.7,2.526,1,3.112.6a24.339,24.339,0,0,1,1.987-1.519,8.526,8.526,0,0,1,1.358-.65c1.4-.546,1.668-1.2,1.782-1.594C562.055,134.037,558.977,135.047,558.711,135.131Z" transform="translate(-533.402 -75.793)" fill="#fff"/>
        <path id="Path_2091" data-name="Path 2091" d="M560.068,136.795a17.812,17.812,0,0,0-2.815,1.649c-1.158.9-2.894,1.467-3.954.2l-.04.2c.355,1.7,2.526,1,3.111.6a24.767,24.767,0,0,1,1.989-1.519,8.526,8.526,0,0,1,1.358-.65c1.4-.546,1.668-1.2,1.782-1.594a1.242,1.242,0,0,0,.051-.454A3.158,3.158,0,0,1,560.068,136.795Z" transform="translate(-533.402 -75.543)" fill="#ff836e"/>
        <path id="Path_2092" data-name="Path 2092" d="M553.535,141.782a1.619,1.619,0,0,0,2.159.393,1.551,1.551,0,0,0,.755-.979l4.084-14.986c-1.773.952-3.91,1.536-5.572,2.6C554.16,133.674,553.535,141.782,553.535,141.782Z" transform="translate(-533.25 -80.646)" fill="#fad4cc"/>
        <path id="Path_2093" data-name="Path 2093" d="M553.535,141.782a1.619,1.619,0,0,0,2.159.393,1.551,1.551,0,0,0,.755-.979l4.084-14.986c-1.773.952-3.91,1.536-5.572,2.6C554.16,133.674,553.535,141.782,553.535,141.782Z" transform="translate(-533.25 -80.646)" fill="#09425e"/>
        <path id="Path_2094" data-name="Path 2094" d="M560.695,126.857c.056.056.088.11.071.158-1.435,4.231.408,21.351.693,21.644.693.708,2.306,1.218,2.9-.3,0,0,.811-10.768.959-14.332.113-2.724.09-10.818.09-10.818C563.649,123.508,562.452,126.5,560.695,126.857Z" transform="translate(-529.571 -82.346)" fill="#fad4cc"/>
        <path id="Path_2095" data-name="Path 2095" d="M565,138.834l-.454.022a2.192,2.192,0,0,1,.838,1.3l.384-.1A1.88,1.88,0,0,0,565,138.834Z" transform="translate(-527.197 -73.503)" fill="#ff836e"/>
        <path id="Path_2096" data-name="Path 2096" d="M554,134.682a10.884,10.884,0,0,1-1.742,1.062l.026,21.86a.438.438,0,0,0,.256.362,1.345,1.345,0,0,0,1.229,0,.435.435,0,0,0,.253-.359l-.009-2.482h.009Z" transform="translate(-533.955 -75.852)" fill="#002d42"/>
        <path id="Path_2097" data-name="Path 2097" d="M564.49,138.852l-.454.022a2.2,2.2,0,0,1,.839,1.3l.384-.028A2.208,2.208,0,0,0,564.49,138.852Z" transform="translate(-527.476 -73.493)" fill="#ff836e"/>
        <path id="Path_2098" data-name="Path 2098" d="M563.962,138.88l-.453.023a2.195,2.195,0,0,1,.837,1.3l.418-.045A2.082,2.082,0,0,0,563.962,138.88Z" transform="translate(-527.766 -73.477)" fill="#ff836e"/>
        <path id="Path_2099" data-name="Path 2099" d="M556.445,135.109a4.521,4.521,0,0,1,1.328.664l.339-.149a2.545,2.545,0,0,0-1.409-.575Z" transform="translate(-531.65 -75.644)" fill="#ff836e"/>
        <path id="Path_2100" data-name="Path 2100" d="M556.028,135.2a5.441,5.441,0,0,1,1.339.734l.322-.1a4.285,4.285,0,0,0-1.325-.7Z" transform="translate(-531.879 -75.598)" fill="#ff836e"/>
        <path id="Path_2101" data-name="Path 2101" d="M562.271,129.072a10.929,10.929,0,0,1-1.742,1.062l.026,21.86a.437.437,0,0,0,.257.362,1.345,1.345,0,0,0,1.229,0,.438.438,0,0,0,.253-.359l-.009-2.483.009,0Z" transform="translate(-529.404 -79.027)" fill="#92b3cb"/>
        <path id="Path_2102" data-name="Path 2102" d="M555.758,135.244l-.049.194a6.593,6.593,0,0,1,1.029.664l.327-.106a3.547,3.547,0,0,0-1.15-.783Z" transform="translate(-532.055 -75.552)" fill="#ff836e"/>
        <g id="Group_1490" data-name="Group 1490" transform="translate(0.038 40.792)">
          <path id="Path_2103" data-name="Path 2103" d="M573.618,131.093l-11.936-7.008a8.307,8.307,0,0,0-7.607,0l-12.015,7.008c-2.109,1.229-2.12,3.221-.025,4.45l11.936,7.008a8.307,8.307,0,0,0,7.607,0l12.015-7.007C575.7,134.315,575.711,132.32,573.618,131.093Z" transform="translate(-540.472 -123.162)" fill="#565ace" stroke="rgba(0,0,0,0)" stroke-width="1"/>
        </g>
        <path id="Path_2104" data-name="Path 2104" d="M563.94,121.54a80.238,80.238,0,0,1-9.27,1.635l-7.8,3.767,4.6,3.619s9.3.911,16.874-1.35c1.776-.247,4.4-4.7,4.4-4.7C573.269,121.385,570.159,119.995,563.94,121.54Z" transform="translate(-536.913 -83.647)" fill="#fad4cc"/>
        <path id="Path_2105" data-name="Path 2105" d="M551.6,119.461l-7.8,3.767,4.6,3.619s8.544,2.454,16.12.193C566.3,126.792,570,124.4,570,124.4,571.028,118.222,551.6,119.461,551.6,119.461Z" transform="translate(-538.602 -84.522)" fill="#fad4cc"/>
        <path id="Path_2106" data-name="Path 2106" d="M560.6,121.111l-14.99-1.611c-.609.977,1.319,3.038.783,6.363-.7,4.337,2.368,8.051,6.627,8.944,6.26,1.314,9.523-2.068,12.37-3.269,5.1-2.153,1.2-6.98,1.2-6.98Z" transform="translate(-537.673 -84.442)" fill="#306d93"/>
        <g id="Group_1501" data-name="Group 1501" transform="translate(13.825 15.605)">
          <path id="Path_2107" data-name="Path 2107" d="M558.947,120.558l-2.942-1.827a.594.594,0,0,0-.546-.016l-2.438,1.34a.17.17,0,0,0-.008.321l3.555,2.209a.6.6,0,0,0,.547.014l2.116-1.163.321-.177a.169.169,0,0,0,.008-.319Z" transform="translate(-547.422 -100.525)" fill="#09425e"/>
          <path id="Path_2108" data-name="Path 2108" d="M557.521,115.606a.6.6,0,0,0-.546-.016l-.2.113-3.711,2.04a.17.17,0,0,0-.008.321l5.622,3.493,4.817,2.994a.6.6,0,0,0,.547.016l3.915-2.155a.169.169,0,0,0,.006-.319Z" transform="translate(-547.4 -102.293)" fill="#09425e"/>
          <g id="Group_1494" data-name="Group 1494" transform="translate(9.569)">
            <g id="Group_1493" data-name="Group 1493" style="isolation: isolate">
              <g id="Group_1491" data-name="Group 1491" transform="translate(0 0.143)">
                <path id="Path_2109" data-name="Path 2109" d="M556.358,107.228c-.214-.133-.4-.036-.4.216l-.414,10.9,13.5,8.468.414-10.9a.876.876,0,0,0-.375-.7Z" transform="translate(-555.541 -107.168)" fill="#002d42"/>
              </g>
              <g id="Group_1492" data-name="Group 1492" transform="translate(0.536)">
                <path id="Path_2110" data-name="Path 2110" d="M556.3,107.137a.275.275,0,0,0-.28-.036l-.129.142a.279.279,0,0,1,.28.036l12.718,7.984a.876.876,0,0,1,.375.7l-.414,10.9a.506.506,0,0,0,.26-.431l.282-10.614a.88.88,0,0,0-.375-.7Z" transform="translate(-555.887 -107.076)" fill="#09425e"/>
              </g>
            </g>
          </g>
          <path id="Path_2111" data-name="Path 2111" d="M572.243,120.936l-8.746,5.031-.048.025-.017.006-.034.014c-.023.008-.047.014-.071.02l-.022.006-.04.008-.026,0-.034,0-.029,0-.031,0-.031,0-.031,0h-.031l-.034,0-.028,0-.045,0-.022,0a.572.572,0,0,1-.071-.013l-.029-.006-.028-.006-.029-.009-.028-.008-.014-.006c-.019-.006-.037-.014-.056-.022l-.019-.009a.467.467,0,0,1-.062-.033l-13.03-8.1-.033-.022-.02-.014-.019-.017-.017-.016-.023-.023,0,0-.02-.028-.014-.023-.009-.014-.008-.02-.006-.017,0-.019,0-.017,0-.019a.1.1,0,0,1,0-.02l-.006.2v.02l0,.019v0l0,.014,0,.02v0l.006.014.008.02,0,0,.008.011.014.023,0,0,.017.023,0,0,.015.017.008.006.017.016.019.017.02.014.011.008.022.014,13.03,8.1c.02.011.04.023.062.033l.019.009c.019.008.037.016.056.022l.009,0,0,0,.028.008.029.009.028.006.025.006h0a.564.564,0,0,0,.071.013l0,0,.019,0,.043,0h.009l.019,0h.034l.012,0,.019,0h.043l.019,0,.031,0h.014l.016,0,.034,0,.014,0,.012,0,.04-.008.016,0,.006,0c.025-.006.048-.013.071-.02v0l.033-.013.019-.006.048-.025,8.74-4.783a.317.317,0,0,0,.194-.258l.014-.451A.324.324,0,0,1,572.243,120.936Z" transform="translate(-549.367 -101.139)" fill="#09425e"/>
          <g id="Group_1496" data-name="Group 1496" transform="translate(0.005 11.08)">
            <g id="Group_1495" data-name="Group 1495" style="isolation: isolate">
              <path id="Path_2112" data-name="Path 2112" d="M558.926,120.227l-2.94-1.827a.6.6,0,0,0-.547-.016L553,119.726a.169.169,0,0,0-.006.319l3.554,2.209a.6.6,0,0,0,.547.016l2.116-1.165.322-.177a.169.169,0,0,0,.006-.319Z" transform="translate(-547.438 -111.792)" fill="#c5d5e7"/>
              <path id="Path_2113" data-name="Path 2113" d="M572.252,122.355l-1.193-.673-.456.251-10.81-6.719.228-.125.228-.125-1.1-.686a.991.991,0,0,0-.911-.025l-8.669,5.011a.283.283,0,0,0-.012.534l13.03,8.1a1,1,0,0,0,.913.027l8.746-5.031A.283.283,0,0,0,572.252,122.355Zm-10.787.935-.322.177-2.116,1.165a.6.6,0,0,1-.547-.016l-3.554-2.209a.169.169,0,0,1,.006-.319l2.438-1.342a.6.6,0,0,1,.547.016l2.94,1.827.614.382A.169.169,0,0,1,561.465,123.289Z" transform="translate(-549.37 -114.153)" fill="#002d42"/>
            </g>
          </g>
          <path id="Path_2114" data-name="Path 2114" d="M556.1,114.921l10.811,6.718.455-.25-10.81-6.718Z" transform="translate(-545.667 -102.78)" fill="#09425e"/>
          <g id="Group_1497" data-name="Group 1497" transform="translate(10.356 1.342)">
            <path id="Path_2115" data-name="Path 2115" d="M556.049,117.4l12.108,7.525.259-9.377L556.3,107.934Z" transform="translate(-556.049 -107.934)" fill="#d4e3e6"/>
          </g>
          <g id="Group_1500" data-name="Group 1500" transform="translate(10.331 1.36)">
            <g id="Group_1499" data-name="Group 1499" style="isolation: isolate">
              <g id="Group_1498" data-name="Group 1498">
                <path id="Path_2116" data-name="Path 2116" d="M556.032,117.473,568.164,125l.263-9.529-12.1-7.525Z" transform="translate(-556.032 -107.945)" fill="#ffec83"/>
              </g>
            </g>
          </g>
          <path id="Path_2117" data-name="Path 2117" d="M557.393,115.233a.6.6,0,0,0-.547-.016l-.2.113-3.711,2.04a.17.17,0,0,0-.008.321l5.621,3.493,4.817,2.994a.6.6,0,0,0,.547.014l3.915-2.153a.169.169,0,0,0,.008-.319Z" transform="translate(-547.472 -102.504)" fill="#002d42"/>
        </g>
        <g id="Group_1502" data-name="Group 1502" transform="translate(5.057)">
          <path id="Path_2118" data-name="Path 2118" d="M563.35,118.95l-1.255.266-.026.008.33-.193.77-.139s.518-.246.054-.489l-.839-.008.355-.049s.518-.246.054-.489l-.53.019c.065-.091.071-.208-.152-.326l-1.021.036-1.133.487c.115-.111.257-.272.2-.365-.1-.146-.184-.211-.361-.138a6.5,6.5,0,0,1-.643.346,12.739,12.739,0,0,0-1.308.918l.031,0a6.1,6.1,0,0,0-.694.709l1.462,1.766a7.5,7.5,0,0,0,2.106-.634,2.306,2.306,0,0,0,.408-.324l0,.027.7-.385,1.438-.551S563.814,119.194,563.35,118.95Z" transform="translate(-536.305 -85.55)" fill="#fad4cc"/>
          <path id="Path_2119" data-name="Path 2119" d="M558.039,119.448a4.823,4.823,0,0,0-.091-5.147c-.527-.944,1.114-3.766-1.131-5.249-3.627-2.393-9.905-3.136-9.905-3.136-3.129,1.251-2.728,5.9-2.754,6.694-.259,7.743-.446,13.344-.446,13.344l2.722,2.018s-.138,6.622,5.423,8.219,7.36-7.827,7.36-7.827l-1.42-2.089Z" transform="translate(-543.71 -92.128)" fill="#fff"/>
          <path id="Path_2120" data-name="Path 2120" d="M544.071,114.428c.011-.106.019-.207.028-.316C544.135,114.14,543.7,115,544.071,114.428Z" transform="translate(-543.594 -87.491)" fill="#6c90b1" opacity="0.1" style="mix-blend-mode: multiply;isolation: isolate"/>
          <path id="Path_2121" data-name="Path 2121" d="M544.328,114.412c-.06.1-.1.161-.141.222-.364,3.966-.477,6.888-.477,6.888l2.722,2.018s-.138,6.622,5.423,8.219c2.739.786,4.564-1.1,5.713-3.219-1.4-3.285-3.391-5.732-5.592-8.621C550.113,117.473,545.915,111.822,544.328,114.412Z" transform="translate(-543.71 -87.697)" fill="#6c90b1" opacity="0.1" style="mix-blend-mode: multiply;isolation: isolate"/>
          <path id="Path_2122" data-name="Path 2122" d="M561.663,124.725c-.625.138-4.109-.132-6.572.138-.349-5.5.071-14.673-1.276-16.1-4.264-4.517-3.559,2.784-3.557,6.26A66.679,66.679,0,0,0,551.528,129a2.057,2.057,0,0,0,2.235,1.674l9.2-3.7C563.439,126.028,562.818,125.375,561.663,124.725Z" transform="translate(-540.134 -91.328)" fill="#fff"/>
          <path id="Path_2123" data-name="Path 2123" d="M545.323,101.245l.752,4.613c.136,2.5,4.645,3.648,4.645,3.648,2.393-.133,4.079-1.342,3.94-3.893l-.349-6.421Z" transform="translate(-542.823 -95.932)" fill="#fad4cc"/>
          <path id="Path_2124" data-name="Path 2124" d="M552.6,97.329c-1.42-.535-5.807-.294-7,3.1-1.784,5.094-1.19,6.526-1.135,8.114a3.809,3.809,0,0,0,2.1,3.26c1.389.7,3.619.489,4.251-.075a12.354,12.354,0,0,0,3.039-7.2c-.105-1.953,1.1-2.327,1.1-2.327C557.832,99.935,554.618,98.09,552.6,97.329Z" transform="translate(-543.37 -97.11)" fill="#002d42"/>
        </g>
        <path id="Path_2125" data-name="Path 2125" d="M554.016,118.012l-8.053-4.829a3.469,3.469,0,0,0-5.239,2.867l-.277,23.305L559.4,149.37,557,122.935A6.2,6.2,0,0,0,554.016,118.012Z" transform="translate(-540.447 -88.297)" fill="#565ace" stroke="rgba(0,0,0,0)" stroke-width="1"/>
      </g>
      <g id="Group_1510" data-name="Group 1510" transform="translate(65.526 87.205)">
        <path id="Path_2126" data-name="Path 2126" d="M574.225,133.284s5.911,2.253,6.248,2.375L576.8,125.416Z" transform="translate(-556.13 -96.293)" fill="#ff836e"/>
        <path id="Path_2127" data-name="Path 2127" d="M574.225,133.284s5.911,2.253,6.248,2.375L576.8,125.416Z" transform="translate(-556.13 -96.293)" fill="#002d42"/>
        <path id="Path_2128" data-name="Path 2128" d="M579.8,133.657c-1.269.117-5.023.9-5.023.9l.544,2.244,2.969,3.479,9.071-4.178-1.216-2.015C585.447,132.927,581.145,133.533,579.8,133.657Z" transform="translate(-555.824 -91.782)" fill="#517fa2"/>
        <path id="Path_2129" data-name="Path 2129" d="M575.109,135.968l.036.144,2.969,3.479,9.072-4.178-.487-.8A43.658,43.658,0,0,1,575.109,135.968Z" transform="translate(-555.644 -91.092)" fill="#6c90b1" opacity="0.1" style="mix-blend-mode: multiply;isolation: isolate"/>
        <g id="Group_1506" data-name="Group 1506" transform="translate(14.157 46.573)">
          <g id="Group_1505" data-name="Group 1505">
            <g id="Group_1504" data-name="Group 1504">
              <path id="Path_2130" data-name="Path 2130" d="M589.675,151.3a29.2,29.2,0,0,1-4.909-.57l-4.865,1.107-.166,2.493a1.376,1.376,0,0,0,.223.878c.961,1.37,2.974.82,2.974.82s6.475-1.386,8.4-2.435C592.822,152.775,591.175,151.3,589.675,151.3Z" transform="translate(-567.259 -128.545)" fill="#002d42"/>
              <path id="Path_2131" data-name="Path 2131" d="M588.782,153.382a19.244,19.244,0,0,1-5.79,1.246,4.047,4.047,0,0,1-3.256-.925v0a1.376,1.376,0,0,0,.223.878c.961,1.37,2.974.82,2.974.82s6.475-1.386,8.4-2.435c.587-.323.68-.745.494-1.14C591.776,151.876,591.686,152.513,588.782,153.382Z" transform="translate(-567.259 -127.922)" fill="#002d42"/>
              <path id="Path_2132" data-name="Path 2132" d="M582.4,148.463a40.456,40.456,0,0,1-4.634-.351l-4.529.86-.473,2.646a.989.989,0,0,0,.143.739c.967,1.4,3.335.733,3.335.733l7.438-2.375C585.032,150.163,583.858,148.466,582.4,148.463Z" transform="translate(-571.102 -130.026)" fill="#002d42"/>
              <path id="Path_2133" data-name="Path 2133" d="M576.785,151.54c.188-.025-2.28.545-3.645-.3a2.717,2.717,0,0,1-.381-.288l-.009.053a.924.924,0,0,0,.132.683c.9,1.3,3.086.68,3.086.68l7.709-2.2a.76.76,0,0,0,.55-.684c-.084.038-.17.074-.26.106C582.186,150.216,577.3,151.47,576.785,151.54Z" transform="translate(-571.107 -129.248)" fill="#002d42"/>
              <path id="Path_2134" data-name="Path 2134" d="M580.948,143.884c.256,5.851-1.128,16.283-1.128,16.283a3.44,3.44,0,0,0,3.421.589c1.418-.387,1.773-1.12,1.807-1.873l5.367-20.49a27.653,27.653,0,0,0-5.422-1.688S582.374,143.715,580.948,143.884Z" transform="translate(-567.21 -136.48)" fill="#517fa2"/>
              <path id="Path_2135" data-name="Path 2135" d="M580.948,143.884c.256,5.851-1.128,16.283-1.128,16.283a3.44,3.44,0,0,0,3.421.589c1.418-.387,1.773-1.12,1.807-1.873l5.367-20.49a27.653,27.653,0,0,0-5.422-1.688S582.374,143.715,580.948,143.884Z" transform="translate(-567.21 -136.48)" fill="#6c90b1" opacity="0.1" style="mix-blend-mode: multiply;isolation: isolate"/>
              <path id="Path_2136" data-name="Path 2136" d="M571.684,156.068s.53,1.181,2.655.889c.98-.133,2.026-.789,2.078-1.788l8.29-18.608c-1.82.2-5.953,2.151-6.173,2.1Z" transform="translate(-571.684 -136.561)" fill="#517fa2"/>
            </g>
          </g>
        </g>
        <path id="Path_2137" data-name="Path 2137" d="M584.355,142.057a10.805,10.805,0,0,1-1.742,1.06l.026,21.862a.441.441,0,0,0,.257.362,1.341,1.341,0,0,0,1.229,0,.436.436,0,0,0,.253-.357l-.011-2.483.011,0Z" transform="translate(-551.517 -86.878)" fill="#517fa2"/>
        <path id="Path_2138" data-name="Path 2138" d="M576.078,147.667a10.918,10.918,0,0,1-1.74,1.062l.026,21.86a.44.44,0,0,0,.256.362,1.341,1.341,0,0,0,1.229,0,.432.432,0,0,0,.253-.357l-.009-2.483.009,0Z" transform="translate(-556.068 -83.704)" fill="#002d42"/>
        <path id="Path_2139" data-name="Path 2139" d="M573.079,136.836a10.92,10.92,0,0,1-1.742,1.06l.028,21.862a.436.436,0,0,0,.256.362,1.34,1.34,0,0,0,1.229,0,.438.438,0,0,0,.253-.357l-.009-2.483h.009Z" transform="translate(-557.718 -89.832)" fill="#09425e"/>
        <path id="Path_2140" data-name="Path 2140" d="M564.858,142.39a10.993,10.993,0,0,1-1.741,1.062l.026,21.86a.435.435,0,0,0,.256.362,1.345,1.345,0,0,0,1.229,0,.437.437,0,0,0,.253-.359l-.009-2.482h.009Z" transform="translate(-562.238 -86.69)" fill="#92b3cb"/>
        <g id="Group_1507" data-name="Group 1507" transform="translate(0.037 45.875)">
          <path id="Path_2141" data-name="Path 2141" d="M595.722,144.046l-11.937-7.008a8.307,8.307,0,0,0-7.607,0l-12.015,7.008c-2.108,1.231-2.12,3.221-.025,4.452l11.937,7.007a8.3,8.3,0,0,0,7.607,0L595.7,148.5C597.8,147.27,597.812,145.273,595.722,144.046Z" transform="translate(-562.574 -136.115)" fill="#565ace" stroke="rgba(0,0,0,0)" stroke-width="1"/>
        </g>
        <g id="Group_1509" data-name="Group 1509" transform="translate(1.605)">
          <g id="Group_1508" data-name="Group 1508">
            <path id="Path_2142" data-name="Path 2142" d="M593.673,134.681c-1.954-.1-11.139,3.218-11.139,3.218-.2.045-10.4.822-15.759-.737-.146,1.235-.273,2.416-.327,3.169-.164,2.292,6.189,7.627,6.358,7.744,4.177,2.915,18.87-6.058,24.964-8.535A3.976,3.976,0,0,0,593.673,134.681Z" transform="translate(-562.013 -91.053)" fill="#517fa2"/>
            <path id="Path_2143" data-name="Path 2143" d="M576.672,117.009c-3.028-2.173-9.491-.913-9.491-.913a4.482,4.482,0,0,0-3.506,3.7c-.546,2.994,1.539,16.042,2.832,21.27a80.1,80.1,0,0,1,1.158,8.162s6.854,2.883,11.319,2.87c3.839-.011,4.437-3.122,4.437-3.122-.744-6-1.206-8.253-1.21-14.23a70.036,70.036,0,0,1,.983-9.713C584.742,122.358,579.319,118.91,576.672,117.009Z" transform="translate(-563.586 -101.772)" fill="#002d42"/>
            <path id="Path_2144" data-name="Path 2144" d="M577.539,134.171c-1.2-2.393-2.378-3.44-5.2-4.954a33.414,33.414,0,0,0-7.379-2.782,45.147,45.147,0,0,0,.786,8.576,80.109,80.109,0,0,1,1.158,8.162s6.854,2.883,11.319,2.87a4.9,4.9,0,0,0,2.79-.772,26.7,26.7,0,0,1-2.236-6.979C578.582,137.213,577.726,135.279,577.539,134.171Z" transform="translate(-562.828 -95.717)" fill="#6c90b1" opacity="0.1" style="mix-blend-mode: multiply;isolation: isolate"/>
            <path id="Path_2145" data-name="Path 2145" d="M568.226,117.61c0,1.76,5.936,2.414,5.936.656l.087-4.843-5.423.132Z" transform="translate(-561.034 -103.079)" fill="#8f644d"/>
            <path id="Path_2146" data-name="Path 2146" d="M567.564,116.083c.161,2.659,5.567,2.756,5.567,2.756,2.542-.158,3.01.3,3.487-2.61l.476-7.073-10.36,2.034Z" transform="translate(-561.854 -105.493)" fill="#8f644d"/>
            <path id="Path_2147" data-name="Path 2147" d="M574.038,107.06c-1.513-.561-6.692-.416-7.413,3.343a10.642,10.642,0,0,0,2.562,9.628s1.6.938,2.712-.064c1.53-1.379,2.966-2.886,2.841-4.959s2.519-4.239,2.519-4.239a2.236,2.236,0,0,0,.839-2.674S575.106,107.454,574.038,107.06Z" transform="translate(-562.041 -106.817)" fill="#002d42"/>
            <path id="Path_2148" data-name="Path 2148" d="M571.3,112.256c-.088,1.176-.212,2.58.873,2.09l.584-1.953S571.419,110.66,571.3,112.256Z" transform="translate(-559.375 -104.121)" fill="#8f644d"/>
          </g>
        </g>
        <path id="Path_2149" data-name="Path 2149" d="M576.119,130.965l-8.055-4.829A3.468,3.468,0,0,0,562.828,129l-.278,23.305,18.957,10.015-2.4-26.435A6.2,6.2,0,0,0,576.119,130.965Z" transform="translate(-562.55 -96.166)" fill="#565ace" stroke="rgba(0,0,0,0)" stroke-width="1"/>
        <path id="Path_2150" data-name="Path 2150" d="M579.752,125.09s-2.675-7.239-4.586-6.136c-3.261,1.879-1.649,6.174-1.649,6.174l5.271,12.172c2.4,3.648,3.912,1.522,4.12,1.508.1-.008.231-.338.358-.791a7.262,7.262,0,0,0-.242-4.624Z" transform="translate(-556.739 -100.015)" fill="#002d42"/>
      </g>
      <g id="Group_1517" data-name="Group 1517" transform="translate(0 91.351)">
        <path id="Path_2151" data-name="Path 2151" d="M535.775,125.641l-2.1,1.569,1.947.272,4.1-1.81-.924-.279Z" transform="translate(-512.901 -100.453)" fill="#df9877"/>
        <path id="Path_2152" data-name="Path 2152" d="M539.607,131.994l-.97.811.428,1.943,3.458-2.087,1.7-2.187,1.145-2.385S539.523,131.557,539.607,131.994Z" transform="translate(-510.173 -98.927)" fill="#df9877"/>
        <path id="Path_2153" data-name="Path 2153" d="M532.56,131l7,5.8,11.833-7.57-6.955-5.74Z" transform="translate(-513.515 -101.529)" fill="#f1f5f9"/>
        <path id="Path_2154" data-name="Path 2154" d="M536.325,126.2l-4.073,1.207.254,1.206.557-.351a5.5,5.5,0,0,0,2.951-1.011,15.651,15.651,0,0,1,1.94.02c1.108.119,1.045-.556,1.045-.556Z" transform="translate(-513.684 -99.996)" fill="#df9877"/>
        <path id="Path_2155" data-name="Path 2155" d="M538.732,136.567l-6.229.586.544,2.244,2.97,3.479,9.071-4.178-1.217-2.015C543.169,135.521,540.079,136.558,538.732,136.567Z" transform="translate(-513.546 -94.376)" fill="#ffec83"/>
        <path id="Path_2156" data-name="Path 2156" d="M542.677,137.071c-.587.05-1.175.1-1.762.146a40.667,40.667,0,0,1-8.171,1.077l.17.7,2.97,3.479,9.071-4.178-.877-1.455A9.772,9.772,0,0,1,542.677,137.071Z" transform="translate(-513.414 -93.975)" fill="#6c90b1" opacity="0.2" style="mix-blend-mode: multiply;isolation: isolate"/>
        <g id="Group_1513" data-name="Group 1513" transform="translate(14.158 46.573)">
          <g id="Group_1512" data-name="Group 1512">
            <g id="Group_1511" data-name="Group 1511">
              <path id="Path_2157" data-name="Path 2157" d="M547.4,153.946a29.2,29.2,0,0,1-4.908-.57l-4.865,1.107-.166,2.493a1.376,1.376,0,0,0,.223.878c.961,1.37,2.974.82,2.974.82s6.475-1.386,8.4-2.435C550.545,155.424,548.9,153.949,547.4,153.946Z" transform="translate(-524.982 -131.193)" fill="#002d42"/>
              <path id="Path_2158" data-name="Path 2158" d="M546.5,156.03a19.245,19.245,0,0,1-5.79,1.246,4.047,4.047,0,0,1-3.256-.925v0a1.376,1.376,0,0,0,.223.878c.961,1.37,2.974.82,2.974.82s6.475-1.386,8.4-2.435c.587-.323.68-.744.494-1.14C549.5,154.524,549.408,155.161,546.5,156.03Z" transform="translate(-524.982 -130.57)" fill="#002d42"/>
              <path id="Path_2159" data-name="Path 2159" d="M540.118,151.111a40.4,40.4,0,0,1-4.633-.351l-4.53.86-.473,2.646a.99.99,0,0,0,.143.739c.967,1.4,3.335.733,3.335.733l7.438-2.375C542.754,152.811,541.58,151.114,540.118,151.111Z" transform="translate(-528.826 -132.674)" fill="#002d42"/>
              <path id="Path_2160" data-name="Path 2160" d="M534.507,154.188c.188-.025-2.28.545-3.645-.3a2.722,2.722,0,0,1-.381-.288l-.009.053a.923.923,0,0,0,.132.683c.9,1.3,3.086.68,3.086.68l7.709-2.2a.76.76,0,0,0,.55-.684c-.084.038-.171.075-.26.106C539.91,152.864,535.024,154.118,534.507,154.188Z" transform="translate(-528.831 -131.896)" fill="#002d42"/>
              <path id="Path_2161" data-name="Path 2161" d="M538.67,146.532c.256,5.851-1.128,16.283-1.128,16.283a3.441,3.441,0,0,0,3.421.589c1.418-.387,1.773-1.12,1.807-1.873l5.367-20.49a27.658,27.658,0,0,0-5.422-1.688S540.1,146.365,538.67,146.532Z" transform="translate(-524.934 -139.128)" fill="#ffec83"/>
              <path id="Path_2162" data-name="Path 2162" d="M538.67,146.532c.256,5.851-1.128,16.283-1.128,16.283a3.441,3.441,0,0,0,3.421.589c1.418-.387,1.773-1.12,1.807-1.873l5.367-20.49a27.658,27.658,0,0,0-5.422-1.688S540.1,146.365,538.67,146.532Z" transform="translate(-524.934 -139.128)" fill="#6c90b1" opacity="0.2" style="mix-blend-mode: multiply;isolation: isolate"/>
              <path id="Path_2163" data-name="Path 2163" d="M529.407,158.716s.529,1.181,2.653.889c.98-.133,2.026-.791,2.078-1.788l8.29-18.608c-1.819.2-5.953,2.151-6.173,2.1Z" transform="translate(-529.407 -139.209)" fill="#ffec83"/>
            </g>
          </g>
        </g>
        <path id="Path_2164" data-name="Path 2164" d="M542.077,144.7a10.926,10.926,0,0,1-1.742,1.062l.026,21.86a.441.441,0,0,0,.257.362,1.341,1.341,0,0,0,1.229,0,.436.436,0,0,0,.253-.357l-.011-2.483.011,0Z" transform="translate(-509.24 -89.526)" fill="#92b3cb"/>
        <path id="Path_2165" data-name="Path 2165" d="M533.8,150.315a11,11,0,0,1-1.742,1.062l.026,21.86a.438.438,0,0,0,.256.362,1.341,1.341,0,0,0,1.229,0,.433.433,0,0,0,.253-.357l-.009-2.483.009,0Z" transform="translate(-513.79 -86.352)" fill="#92b3cb"/>
        <path id="Path_2166" data-name="Path 2166" d="M530.8,139.484a10.916,10.916,0,0,1-1.742,1.06l.028,21.862a.435.435,0,0,0,.256.362,1.34,1.34,0,0,0,1.229,0,.438.438,0,0,0,.253-.357l-.009-2.483.009,0Z" transform="translate(-515.44 -92.48)" fill="#92b3cb"/>
        <path id="Path_2167" data-name="Path 2167" d="M522.58,145.038a10.869,10.869,0,0,1-1.741,1.062l.026,21.86a.435.435,0,0,0,.256.362,1.345,1.345,0,0,0,1.229,0,.435.435,0,0,0,.252-.359l-.009-2.482h.009Z" transform="translate(-519.96 -89.338)" fill="#92b3cb"/>
        <g id="Group_1514" data-name="Group 1514" transform="translate(0.038 45.876)">
          <path id="Path_2168" data-name="Path 2168" d="M553.443,146.693l-11.937-7.008a8.312,8.312,0,0,0-7.607,0l-12.013,7.008c-2.109,1.231-2.122,3.221-.025,4.452l11.936,7.007a8.3,8.3,0,0,0,7.607,0l12.015-7.007C555.523,149.917,555.534,147.921,553.443,146.693Z" transform="translate(-520.296 -138.764)" fill="#565ace" stroke="rgba(0,0,0,0)" stroke-width="1"/>
        </g>
        <g id="Group_1516" data-name="Group 1516" transform="translate(1.605)">
          <g id="Group_1515" data-name="Group 1515">
            <path id="Path_2169" data-name="Path 2169" d="M551.4,137.329c-1.956-.1-11.141,3.219-11.141,3.219-.2.044-10.4.82-15.759-.739-.144,1.235-.273,2.416-.327,3.169-.163,2.292,6.189,7.627,6.358,7.744,4.179,2.916,18.87-6.058,24.964-8.535A3.975,3.975,0,0,0,551.4,137.329Z" transform="translate(-519.735 -93.701)" fill="#ffec83"/>
            <path id="Path_2170" data-name="Path 2170" d="M535.5,139.872c-3.438.056-7.99-.081-11-.96-.144,1.235-.273,2.416-.327,3.169-.163,2.292,6.189,7.627,6.358,7.744,4.179,2.916,18.87-6.058,24.964-8.535a4.489,4.489,0,0,0,.056-.526c-3.266.767-6.6,1.34-9.975,2.032A10.787,10.787,0,0,1,535.5,139.872Z" transform="translate(-519.735 -92.804)" fill="#6c90b1" opacity="0.2" style="mix-blend-mode: multiply;isolation: isolate"/>
            <path id="Path_2171" data-name="Path 2171" d="M534.394,119.657c-3.027-2.173-9.491-.913-9.491-.913a4.482,4.482,0,0,0-3.506,3.7c-.546,2.994,1.539,16.043,2.832,21.27a80.137,80.137,0,0,1,1.158,8.164s6.854,2.881,11.319,2.869c3.839-.011,4.437-3.122,4.437-3.122-.744-6-1.206-8.253-1.21-14.23a69.954,69.954,0,0,1,.984-9.713C542.464,125.006,537.041,121.558,534.394,119.657Z" transform="translate(-521.307 -104.42)" fill="#6c90b1"/>
            <path id="Path_2172" data-name="Path 2172" d="M535.261,136.819c-1.2-2.393-2.378-3.44-5.2-4.954a33.413,33.413,0,0,0-7.379-2.782,45.141,45.141,0,0,0,.786,8.576,80.124,80.124,0,0,1,1.158,8.164s6.854,2.881,11.319,2.869a4.9,4.9,0,0,0,2.79-.772,26.69,26.69,0,0,1-2.236-6.979C536.3,139.861,535.448,137.927,535.261,136.819Z" transform="translate(-520.55 -98.365)" fill="#6c90b1" opacity="0.3" style="mix-blend-mode: multiply;isolation: isolate"/>
            <path id="Path_2173" data-name="Path 2173" d="M525.948,120.258c0,1.76,5.936,2.414,5.936.656l.087-4.843-5.423.132Z" transform="translate(-518.756 -105.727)" fill="#df9877"/>
            <path id="Path_2174" data-name="Path 2174" d="M525.286,118.731c.161,2.659,5.567,2.756,5.567,2.756,2.542-.158,3.011.3,3.487-2.61l.476-7.073-10.359,2.034Z" transform="translate(-519.576 -108.141)" fill="#df9877"/>
            <path id="Path_2175" data-name="Path 2175" d="M531.76,109.708c-1.513-.561-6.692-.417-7.413,3.343a10.647,10.647,0,0,0,2.562,9.628s1.6.938,2.712-.064c1.53-1.379,2.966-2.886,2.841-4.957s2.519-4.24,2.519-4.24a2.236,2.236,0,0,0,.839-2.674S532.828,110.1,531.76,109.708Z" transform="translate(-519.763 -109.465)" fill="#002d42"/>
            <path id="Path_2176" data-name="Path 2176" d="M529.02,114.9c-.088,1.176-.211,2.58.873,2.09l.584-1.953S529.141,113.308,529.02,114.9Z" transform="translate(-517.097 -106.769)" fill="#df9877"/>
          </g>
        </g>
        <path id="Path_2177" data-name="Path 2177" d="M533.841,133.613l-8.053-4.829a3.469,3.469,0,0,0-5.239,2.867l-.277,23.305,18.957,10.015-2.4-26.435A6.2,6.2,0,0,0,533.841,133.613Z" transform="translate(-520.272 -98.814)" fill="#565ace" stroke="rgba(0,0,0,0)" stroke-width="1"/>
        <path id="Path_2178" data-name="Path 2178" d="M533.666,121.834c-3.574,1.16-2.87,5.7-2.87,5.7l2.677,13.007c1.607,4.07,3.518,2.3,3.724,2.333.332.045,1.586-3.119,1.586-3.119L536.9,128.792S535.762,121.152,533.666,121.834Z" transform="translate(-514.516 -102.491)" fill="#6c90b1"/>
        <path id="Path_2179" data-name="Path 2179" d="M542.058,128.51l-.622.9s-2.153,1.021-2.123,2.389l-.279,1.038,3.055-2.505a15.518,15.518,0,0,1,.984-2.128S542.523,127.8,542.058,128.51Z" transform="translate(-509.955 -98.927)" fill="#df9877"/>
        <path id="Path_2180" data-name="Path 2180" d="M542.564,130.372l-5.806,3.3-4.144,2.79s.341,2.807,3.631,2.367c2.912-.388,6.319-4.2,8.208-6.465C544.454,132.364,545.312,130.482,542.564,130.372Z" transform="translate(-513.485 -97.636)" fill="#6c90b1"/>
      </g>
      <g id="Group_1520" data-name="Group 1520" transform="translate(33.777 113.517)">
        <path id="Path_2181" data-name="Path 2181" d="M552.613,150.763a10.815,10.815,0,0,1-1.742,1.062l.026,21.86a.437.437,0,0,0,.257.362,1.345,1.345,0,0,0,1.229,0,.438.438,0,0,0,.253-.359l-.011-2.482h.011Z" transform="translate(-537.223 -108.264)" fill="#92b3cb"/>
        <path id="Path_2182" data-name="Path 2182" d="M551.918,141.19l1.825,7.139,5.033,1.094-.165-3.914Z" transform="translate(-536.647 -113.681)" fill="#00272e"/>
        <path id="Path_2183" data-name="Path 2183" d="M544.392,156.318a10.922,10.922,0,0,1-1.742,1.062l.028,21.86a.433.433,0,0,0,.256.362,1.341,1.341,0,0,0,1.229,0,.436.436,0,0,0,.253-.357l-.009-2.483.009,0Z" transform="translate(-541.743 -105.121)" fill="#92b3cb"/>
        <path id="Path_2184" data-name="Path 2184" d="M569.431,165.744c-.335.023-3.655.177-3.655.177l-2.993.658-.508,2.029c.375,1.358,2.2,1.137,2.647,1.105s5.116-1.6,5.116-1.6a4.081,4.081,0,0,0,1.542-1.093C572.563,165.313,569.707,165.723,569.431,165.744Z" transform="translate(-530.952 -99.821)" fill="#fcb698"/>
        <path id="Path_2185" data-name="Path 2185" d="M569.431,165.744l-.839.033c1.539.849.432,1.345-.417,1.553-1.692.415-3.737,1.2-5.682.4l-.219.875c.375,1.358,2.2,1.137,2.647,1.105s5.116-1.6,5.116-1.6a4.081,4.081,0,0,0,1.542-1.093C572.563,165.313,569.707,165.723,569.431,165.744Z" transform="translate(-530.952 -99.821)" fill="#002d42"/>
        <path id="Path_2186" data-name="Path 2186" d="M570.365,167.293a20.685,20.685,0,0,1-3.969,1.282,4.188,4.188,0,0,1-3.887-.589c-.045-.028-.093-.05-.136-.081l-.1.391c.375,1.358,2.2,1.137,2.647,1.105s5.116-1.6,5.116-1.6a4.081,4.081,0,0,0,1.542-1.093,1.474,1.474,0,0,0,.184-.476l0,0A4.708,4.708,0,0,1,570.365,167.293Z" transform="translate(-530.952 -99.51)" fill="#002d42"/>
        <path id="Path_2187" data-name="Path 2187" d="M560.33,162.045c-.318.1-1.83.4-1.83.4l-3.115,1.005-.507,2.563c.355,1.7,2.526.994,3.111.6.222-.15,1.114-.969,1.987-1.517a8.355,8.355,0,0,1,1.359-.65c1.4-.548,1.668-1.2,1.782-1.6C563.671,160.949,560.595,161.959,560.33,162.045Z" transform="translate(-535.02 -102.076)" fill="#fcb698"/>
        <path id="Path_2188" data-name="Path 2188" d="M560.33,162.045l-.025.006a2.07,2.07,0,0,1,1.153.492.268.268,0,0,1,0,.37,16.622,16.622,0,0,1-2.441,1.666,5.955,5.955,0,0,1-1.95,1.037,2.626,2.626,0,0,1-2.094-.089l-.1.485c.355,1.7,2.526.994,3.111.6.222-.15,1.114-.969,1.987-1.517a8.355,8.355,0,0,1,1.359-.65c1.4-.548,1.668-1.2,1.782-1.6C563.671,160.949,560.595,161.959,560.33,162.045Z" transform="translate(-535.02 -102.076)" fill="#002d42"/>
        <path id="Path_2189" data-name="Path 2189" d="M561.684,163.706a18.049,18.049,0,0,0-2.813,1.649c-1.158.9-2.9,1.469-3.955.2l-.039.2c.355,1.7,2.526.994,3.111.6.222-.15,1.114-.969,1.987-1.517a8.356,8.356,0,0,1,1.359-.65c1.4-.548,1.668-1.2,1.782-1.6a1.236,1.236,0,0,0,.051-.453A3.152,3.152,0,0,1,561.684,163.706Z" transform="translate(-535.02 -101.826)" fill="#002d42"/>
        <path id="Path_2190" data-name="Path 2190" d="M555.153,168.695a1.62,1.62,0,0,0,2.157.393,1.553,1.553,0,0,0,.756-.979l4.084-14.986c-1.773.952-3.91,1.536-5.572,2.6C555.778,160.587,555.153,168.695,555.153,168.695Z" transform="translate(-534.868 -106.929)" fill="#d5e0ee"/>
        <path id="Path_2191" data-name="Path 2191" d="M555.153,168.695a1.62,1.62,0,0,0,2.157.393,1.553,1.553,0,0,0,.756-.979l4.084-14.986c-1.773.952-3.91,1.536-5.572,2.6C555.778,160.587,555.153,168.695,555.153,168.695Z" transform="translate(-534.868 -106.929)" fill="#6c90b1" opacity="0.1" style="mix-blend-mode: multiply;isolation: isolate"/>
        <path id="Path_2192" data-name="Path 2192" d="M562.384,152.785c-1.435,4.231.408,21.351.693,21.642.691.709,2.306,1.22,2.9-.3l.677-21.982c-1.758.3-2.581.128-4.338.484C562.369,152.681,562.4,152.736,562.384,152.785Z" transform="translate(-531.189 -107.484)" fill="#d5e0ee"/>
        <path id="Path_2193" data-name="Path 2193" d="M562.028,153.717c-.7,5.953.793,19.583,1.048,19.845.608.62,1.923,1.09,2.636.166C565.787,170.633,566.9,152.657,562.028,153.717Z" transform="translate(-531.189 -106.618)" fill="#6c90b1" opacity="0.1" style="mix-blend-mode: multiply;isolation: isolate"/>
        <path id="Path_2194" data-name="Path 2194" d="M555.612,161.595a10.983,10.983,0,0,1-1.741,1.06l.026,21.862a.442.442,0,0,0,.256.362,1.341,1.341,0,0,0,1.229,0,.433.433,0,0,0,.253-.357l-.009-2.483.009,0Z" transform="translate(-535.573 -102.135)" fill="#92b3cb"/>
        <path id="Path_2195" data-name="Path 2195" d="M563.889,155.985a10.923,10.923,0,0,1-1.742,1.06l.026,21.862a.442.442,0,0,0,.256.362,1.344,1.344,0,0,0,1.231,0,.441.441,0,0,0,.253-.357l-.011-2.483h.011Z" transform="translate(-531.022 -105.31)" fill="#92b3cb"/>
        <g id="Group_1518" data-name="Group 1518" transform="translate(0.037 41.421)">
          <path id="Path_2196" data-name="Path 2196" d="M575.236,158,563.3,151a8.312,8.312,0,0,0-7.607,0L543.679,158c-2.109,1.231-2.122,3.221-.026,4.452l11.937,7.008a8.312,8.312,0,0,0,7.607,0l12.015-7.008C577.316,161.228,577.327,159.232,575.236,158Z" transform="translate(-542.089 -150.075)" fill="#565ace" stroke="rgba(0,0,0,0)" stroke-width="1"/>
        </g>
        <g id="Group_1519" data-name="Group 1519" transform="translate(2.37 4.889)">
          <path id="Path_2197" data-name="Path 2197" d="M567.839,148.344c-5.832-.827-17.69-1.519-17.69-1.519l-6.555,4.409,3.056,5.48a4.281,4.281,0,0,0,4.008,1.315c3.047-.615,13.137-1.514,18.013-3.642C569.745,154.1,572.689,150.4,567.839,148.344Z" transform="translate(-543.594 -115.381)" fill="#d5e0ee"/>
          <path id="Path_2198" data-name="Path 2198" d="M547.972,146.264a10.363,10.363,0,0,0,3.59,2.386l.3-6.536-5.821-5.67C545.371,140.7,549.5,142.226,547.972,146.264Z" transform="translate(-542.291 -121.254)" fill="#09425e"/>
          <path id="Path_2199" data-name="Path 2199" d="M568.984,150.712c-6.443-.968-13.462-1.326-13.462-1.326l-7.032,3.581,2.384,5.812a4.29,4.29,0,0,0,3.822,1.791,94.739,94.739,0,0,0,15.72-2.922c1.775-.247,3.555-3.709,3.555-3.709a2.482,2.482,0,0,0-.149-1.389C573.783,152.541,573.217,151.321,568.984,150.712Z" transform="translate(-540.902 -113.932)" fill="#d5e0ee"/>
          <path id="Path_2200" data-name="Path 2200" d="M558.4,155.632a12.274,12.274,0,0,1-6.579-5.043l-3.332,1.7,2.384,5.812a4.29,4.29,0,0,0,3.822,1.791,94.739,94.739,0,0,0,15.72-2.922,4,4,0,0,0,.49-.106A33.734,33.734,0,0,1,558.4,155.632Z" transform="translate(-540.902 -113.251)" fill="#6c90b1" opacity="0.2" style="mix-blend-mode: multiply;isolation: isolate"/>
          <path id="Path_2201" data-name="Path 2201" d="M559.164,154.07c-.555-1.328-1.733-5.491-1.733-5.491a10.034,10.034,0,0,0,2.582-3.642c.267-.853-.307-2.123-1.675-4.22-.589-.905,1.483-2.125-.541-3.9-3.272-2.87-9.391-4.47-9.391-4.47-3.269.808-3.5,5.468-3.631,6.254a17.247,17.247,0,0,0,3.571,13.231l.13,3.327s-.14,6.622,5.423,8.219a5.612,5.612,0,0,0,4.273-.287,5.331,5.331,0,0,0,2.565-6.05S559.489,154.845,559.164,154.07Z" transform="translate(-543.066 -123.573)" fill="#002d42"/>
          <path id="Path_2202" data-name="Path 2202" d="M554.516,135.512c-5.718-2.366-3.968,4.668-2.28,7.7,1.161,2.087,2.97,4.827,5.389,8.62a2.722,2.722,0,0,0,2.384,1.113,1.539,1.539,0,0,0,1.508-1.271,5.948,5.948,0,0,0-.37-3.287C558.467,144.279,555.465,135.9,554.516,135.512Z" transform="translate(-539.744 -122.052)" fill="#002d42"/>
          <path id="Path_2203" data-name="Path 2203" d="M547.584,131.49c-.214,2.5,4.341,3.667,4.341,3.667.355.351,2.447-.083,3.092-.866a5.854,5.854,0,0,0,.879-2.33,50.48,50.48,0,0,0,.808-5.219l-9.223.077Z" transform="translate(-541.457 -126.743)" fill="#fcb698"/>
        </g>
        <path id="Path_2204" data-name="Path 2204" d="M555.634,144.924,547.58,140.1a3.467,3.467,0,0,0-5.237,2.867l-.278,23.3,18.957,10.015-2.4-26.435A6.2,6.2,0,0,0,555.634,144.924Z" transform="translate(-542.065 -114.58)" fill="#565ace" stroke="rgba(0,0,0,0)" stroke-width="1"/>
        <path id="Path_2205" data-name="Path 2205" d="M547.634,133.4s-.533,1.146,1.152,1.9c2.615,1.174,3.788-.022,3.788-.022l.473-2.782-4.326-1.5Z" transform="translate(-539.047 -119.45)" fill="#fcb698"/>
        <path id="Path_2206" data-name="Path 2206" d="M554.47,124.074c-1.331-.731-5.862-.986-6.759,2.5-1.15,4.477-.375,6.3-.375,6.3s.612,3.457,3.2,3.262c1.434-.108,4.837-1.932,5-3.88a3.371,3.371,0,0,1,1.192-2.6C558.044,126.739,556.361,125.113,554.47,124.074Z" transform="translate(-539.307 -123.621)" fill="#ce994a"/>
        <path id="Path_2207" data-name="Path 2207" d="M552.633,128.343c-.6.261-.98,3.066-.49,2.9s1.28-2.283,1.28-2.283S553.236,128.083,552.633,128.343Z" transform="translate(-536.647 -120.976)" fill="#fcb698"/>
        <path id="Path_2208" data-name="Path 2208" d="M547.131,125.767c-2.325,1.37-1.84,5.023-1.744,5.676s.969,4.044.71,4.337a6.3,6.3,0,0,0,2.841-4.044c.646-2.837,2.584-3.066,2.2-4.859C551.134,126.877,549.456,124.4,547.131,125.767Z" transform="translate(-540.297 -122.64)" fill="#ce994a"/>
      </g>
      <g id="Group_1534" data-name="Group 1534" transform="translate(67.543 138.03)">
        <path id="Path_2209" data-name="Path 2209" d="M574.4,166.1a10.824,10.824,0,0,1-1.742,1.062l.026,21.86a.438.438,0,0,0,.256.362,1.348,1.348,0,0,0,1.231,0,.443.443,0,0,0,.253-.359l-.011-2.482h.011Z" transform="translate(-559.009 -124.102)" fill="#92b3cb"/>
        <path id="Path_2210" data-name="Path 2210" d="M566.178,171.651a10.811,10.811,0,0,1-1.742,1.06l.026,21.862a.441.441,0,0,0,.257.362,1.34,1.34,0,0,0,1.229,0,.436.436,0,0,0,.253-.357l-.011-2.483.011,0Z" transform="translate(-563.529 -120.959)" fill="#92b3cb"/>
        <path id="Path_2211" data-name="Path 2211" d="M591.215,181.077c-.333.023-3.655.177-3.655.177l-2.993.658-.507,2.029c.375,1.358,2.2,1.137,2.647,1.105s5.116-1.6,5.116-1.6a4.093,4.093,0,0,0,1.542-1.093C594.349,180.646,591.493,181.056,591.215,181.077Z" transform="translate(-552.738 -115.659)" fill="#fff"/>
        <path id="Path_2212" data-name="Path 2212" d="M592.152,182.626a20.723,20.723,0,0,1-3.969,1.282,4.187,4.187,0,0,1-3.889-.589c-.043-.028-.091-.05-.135-.081l-.1.391c.375,1.358,2.2,1.137,2.647,1.105s5.116-1.6,5.116-1.6a4.093,4.093,0,0,0,1.542-1.093,1.473,1.473,0,0,0,.184-.476l0,0A4.71,4.71,0,0,1,592.152,182.626Z" transform="translate(-552.738 -115.348)" fill="#ff836e"/>
        <path id="Path_2213" data-name="Path 2213" d="M582.116,177.376c-.319.1-1.83.4-1.83.4l-3.117,1.005-.505,2.563c.355,1.7,2.526.994,3.111.6.222-.15,1.114-.969,1.987-1.517a8.359,8.359,0,0,1,1.359-.65c1.4-.548,1.666-1.2,1.781-1.6C585.457,176.282,582.381,177.292,582.116,177.376Z" transform="translate(-556.806 -117.914)" fill="#fff"/>
        <path id="Path_2214" data-name="Path 2214" d="M583.47,179.039a17.926,17.926,0,0,0-2.813,1.649c-1.158.9-2.9,1.469-3.955.2l-.039.2c.355,1.7,2.526.994,3.111.6.222-.15,1.114-.969,1.987-1.517a8.359,8.359,0,0,1,1.359-.65c1.4-.548,1.666-1.2,1.781-1.6a1.207,1.207,0,0,0,.051-.453A3.142,3.142,0,0,1,583.47,179.039Z" transform="translate(-556.806 -117.664)" fill="#ff836e"/>
        <path id="Path_2215" data-name="Path 2215" d="M576.939,184.026a1.617,1.617,0,0,0,2.157.393,1.543,1.543,0,0,0,.755-.977l4.086-14.986c-1.773.952-3.912,1.535-5.573,2.6C577.564,175.92,576.939,184.026,576.939,184.026Z" transform="translate(-556.654 -122.767)" fill="#8f644d"/>
        <path id="Path_2216" data-name="Path 2216" d="M576.939,184.026a1.617,1.617,0,0,0,2.157.393,1.543,1.543,0,0,0,.755-.977l4.086-14.986c-1.773.952-3.912,1.535-5.573,2.6C577.564,175.92,576.939,184.026,576.939,184.026Z" transform="translate(-556.654 -122.767)" fill="#6c90b1" opacity="0.1" style="mix-blend-mode: multiply;isolation: isolate"/>
        <path id="Path_2217" data-name="Path 2217" d="M584.1,169.1c.056.056.088.111.071.16-1.435,4.231.408,21.35.693,21.642.691.709,2.3,1.22,2.9-.3,0,0,.809-10.768.958-14.332.115-2.724.091-10.818.091-10.818C587.051,165.755,585.856,168.747,584.1,169.1Z" transform="translate(-552.975 -124.467)" fill="#8f644d"/>
        <path id="Path_2218" data-name="Path 2218" d="M588.4,181.079l-.453.022a2.2,2.2,0,0,1,.839,1.3l.384-.1A1.885,1.885,0,0,0,588.4,181.079Z" transform="translate(-550.602 -115.625)" fill="#ff836e"/>
        <path id="Path_2219" data-name="Path 2219" d="M577.4,176.928a10.978,10.978,0,0,1-1.741,1.06l.026,21.862a.438.438,0,0,0,.256.362,1.341,1.341,0,0,0,1.229,0,.432.432,0,0,0,.253-.357l-.009-2.483h.009Z" transform="translate(-557.359 -117.974)" fill="#92b3cb"/>
        <path id="Path_2220" data-name="Path 2220" d="M587.893,181.1l-.453.022a2.194,2.194,0,0,1,.837,1.3l.384-.028A2.2,2.2,0,0,0,587.893,181.1Z" transform="translate(-550.88 -115.615)" fill="#ff836e"/>
        <path id="Path_2221" data-name="Path 2221" d="M587.365,181.126l-.453.022a2.2,2.2,0,0,1,.839,1.3l.419-.045A2.079,2.079,0,0,0,587.365,181.126Z" transform="translate(-551.17 -115.598)" fill="#ff836e"/>
        <path id="Path_2222" data-name="Path 2222" d="M579.848,177.355a4.479,4.479,0,0,1,1.328.664l.341-.149a2.54,2.54,0,0,0-1.409-.575Z" transform="translate(-555.055 -117.765)" fill="#ff836e"/>
        <path id="Path_2223" data-name="Path 2223" d="M579.431,177.446a5.5,5.5,0,0,1,1.341.734l.322-.1a4.29,4.29,0,0,0-1.325-.7Z" transform="translate(-555.284 -117.72)" fill="#ff836e"/>
        <path id="Path_2224" data-name="Path 2224" d="M585.674,171.318a10.91,10.91,0,0,1-1.741,1.06l.026,21.862a.442.442,0,0,0,.256.362,1.341,1.341,0,0,0,1.229,0,.434.434,0,0,0,.253-.357l-.009-2.483h.009Z" transform="translate(-552.808 -121.148)" fill="#92b3cb"/>
        <path id="Path_2225" data-name="Path 2225" d="M579.162,177.489l-.051.194a6.555,6.555,0,0,1,1.029.665l.329-.106a3.565,3.565,0,0,0-1.151-.784Z" transform="translate(-555.46 -117.674)" fill="#ff836e"/>
        <g id="Group_1521" data-name="Group 1521" transform="translate(0.037 40.916)">
          <path id="Path_2226" data-name="Path 2226" d="M597.023,173.337l-11.937-7.008a8.312,8.312,0,0,0-7.607,0l-12.015,7.008c-2.109,1.231-2.12,3.221-.025,4.452l11.937,7.007a8.307,8.307,0,0,0,7.607,0L597,177.789C599.1,176.561,599.114,174.565,597.023,173.337Z" transform="translate(-563.875 -165.408)" fill="#565ace" stroke="rgba(0,0,0,0)" stroke-width="1"/>
        </g>
        <path id="Path_2227" data-name="Path 2227" d="M587.345,163.785a80.234,80.234,0,0,1-9.27,1.635l-7.8,3.767,4.6,3.619s9.3.913,16.875-1.348c1.775-.247,4.4-4.705,4.4-4.705C596.674,163.63,593.563,162.241,587.345,163.785Z" transform="translate(-560.318 -125.768)" fill="#8f644d"/>
        <path id="Path_2228" data-name="Path 2228" d="M575,161.706l-7.8,3.767,4.6,3.619s8.543,2.454,16.119.193c1.776-.247,5.473-2.64,5.473-2.64C594.432,160.469,575,161.706,575,161.706Z" transform="translate(-562.006 -126.643)" fill="#8f644d"/>
        <path id="Path_2229" data-name="Path 2229" d="M584.008,163.357l-14.992-1.611c-.608.975,1.32,3.036.783,6.363-.7,4.336,2.37,8.05,6.627,8.944,6.262,1.312,9.524-2.068,12.371-3.271,5.1-2.151,1.2-6.979,1.2-6.979Z" transform="translate(-561.077 -126.563)" fill="#002d42"/>
        <g id="Group_1532" data-name="Group 1532" transform="translate(13.825 15.729)">
          <path id="Path_2230" data-name="Path 2230" d="M582.349,162.8l-2.94-1.827a.6.6,0,0,0-.547-.016l-2.438,1.342a.17.17,0,0,0-.006.319l3.554,2.209a.6.6,0,0,0,.547.016l2.117-1.165.321-.177c.153-.083.155-.227.006-.319Z" transform="translate(-570.826 -142.77)" fill="#09425e"/>
          <path id="Path_2231" data-name="Path 2231" d="M580.926,157.851a.6.6,0,0,0-.547-.014l-.2.111-3.71,2.042a.17.17,0,0,0-.008.319l5.623,3.495,4.816,2.992a.6.6,0,0,0,.549.016l3.915-2.153a.171.171,0,0,0,.006-.321Z" transform="translate(-570.805 -144.538)" fill="#09425e"/>
          <g id="Group_1525" data-name="Group 1525" transform="translate(9.569)">
            <g id="Group_1524" data-name="Group 1524" style="isolation: isolate">
              <g id="Group_1522" data-name="Group 1522" transform="translate(0 0.142)">
                <path id="Path_2232" data-name="Path 2232" d="M579.76,149.473c-.214-.133-.394-.036-.4.218l-.414,10.9,13.495,8.466.414-10.9a.876.876,0,0,0-.374-.7Z" transform="translate(-578.945 -149.413)" fill="#002d42"/>
              </g>
              <g id="Group_1523" data-name="Group 1523" transform="translate(0.536)">
                <path id="Path_2233" data-name="Path 2233" d="M579.7,149.382a.276.276,0,0,0-.279-.036l-.129.144a.271.271,0,0,1,.279.034l12.72,7.986a.876.876,0,0,1,.374.7l-.414,10.9a.506.506,0,0,0,.26-.431l.282-10.613a.879.879,0,0,0-.374-.7Z" transform="translate(-579.291 -149.322)" fill="#09425e"/>
              </g>
            </g>
          </g>
          <path id="Path_2234" data-name="Path 2234" d="M595.647,163.181l-8.746,5.031-.05.025-.017.006-.034.014c-.022.008-.046.016-.07.022l-.023,0-.039.009-.026,0-.034,0-.029,0-.032,0-.029,0-.033,0h-.03l-.034,0-.029,0-.043,0-.022,0c-.025,0-.048-.008-.073-.013l-.028-.008-.029-.006-.028-.009-.028-.008-.014,0-.057-.023-.017-.008a.585.585,0,0,1-.062-.034l-13.03-8.1-.034-.022-.019-.014-.02-.017-.016-.014-.025-.027,0,0-.022-.028-.014-.023-.008-.014-.008-.02-.006-.016,0-.019,0-.017,0-.02a.075.075,0,0,1,0-.019l-.006.2v.041l0,.016,0,.019v0l.006.013.008.02,0,0,.006.011.014.023,0,.006.019.022,0,0,.015.017.008.008.016.014.02.017.019.014.012.009.022.013,13.03,8.1a.583.583,0,0,0,.062.034l.017.008.057.023.009,0,0,0,.028.008.028.009.029.006.025.006,0,0,.071.013h0l.017,0,.043,0,.009,0h.02l.034,0h.029l.033,0h.012l.017,0,.033,0,.012,0,.017,0,.034-.006.014,0,.012,0,.039-.009.016,0,.008,0c.023-.006.048-.014.07-.022h0l.032-.013.017-.008.049-.025,8.74-4.782a.327.327,0,0,0,.194-.26l.012-.449A.316.316,0,0,1,595.647,163.181Z" transform="translate(-572.771 -143.384)" fill="#09425e"/>
          <g id="Group_1527" data-name="Group 1527" transform="translate(0.005 11.079)">
            <g id="Group_1526" data-name="Group 1526" style="isolation: isolate">
              <path id="Path_2235" data-name="Path 2235" d="M582.33,162.472l-2.94-1.827a.6.6,0,0,0-.547-.014l-2.438,1.34a.169.169,0,0,0-.008.319l3.555,2.209a.6.6,0,0,0,.547.016l2.116-1.165.322-.175a.171.171,0,0,0,.006-.321Z" transform="translate(-570.842 -154.037)" fill="#c5d5e7"/>
              <path id="Path_2236" data-name="Path 2236" d="M595.657,164.6l-1.193-.673-.456.251-10.81-6.719.228-.125.228-.125-1.1-.686a.992.992,0,0,0-.911-.025l-8.668,5.011a.283.283,0,0,0-.012.534l13.03,8.1a1,1,0,0,0,.911.025l8.746-5.031A.283.283,0,0,0,595.657,164.6Zm-10.787.936-.322.175-2.116,1.165a.6.6,0,0,1-.547-.016l-3.555-2.209a.169.169,0,0,1,.008-.319l2.438-1.34a.6.6,0,0,1,.547.014l2.94,1.827.614.382A.171.171,0,0,1,584.869,165.536Z" transform="translate(-572.774 -156.398)" fill="#e5ecf4"/>
            </g>
          </g>
          <path id="Path_2237" data-name="Path 2237" d="M579.5,157.166l10.81,6.718.456-.25-10.81-6.718Z" transform="translate(-569.071 -145.026)" fill="#09425e"/>
          <g id="Group_1528" data-name="Group 1528" transform="translate(10.356 1.342)">
            <path id="Path_2238" data-name="Path 2238" d="M579.453,159.645l12.109,7.525.259-9.377L579.7,150.179Z" transform="translate(-579.453 -150.179)" fill="#d4e3e6"/>
          </g>
          <g id="Group_1531" data-name="Group 1531" transform="translate(10.33 1.36)">
            <g id="Group_1530" data-name="Group 1530" style="isolation: isolate">
              <g id="Group_1529" data-name="Group 1529">
                <path id="Path_2239" data-name="Path 2239" d="M579.436,159.719l12.132,7.526.263-9.529-12.1-7.525Z" transform="translate(-579.436 -150.19)" fill="#fff"/>
              </g>
            </g>
          </g>
          <path id="Path_2240" data-name="Path 2240" d="M580.8,157.478a.6.6,0,0,0-.547-.016l-.2.113-3.71,2.042a.169.169,0,0,0-.006.319l5.621,3.493,4.817,2.994a.6.6,0,0,0,.547.016l3.915-2.153a.171.171,0,0,0,.006-.321Z" transform="translate(-570.876 -144.749)" fill="#c5d5e7"/>
        </g>
        <g id="Group_1533" data-name="Group 1533" transform="translate(5.056)">
          <path id="Path_2241" data-name="Path 2241" d="M586.754,161.2l-1.255.266-.026.006.33-.191.769-.141s.518-.246.056-.489l-.839-.008.354-.049s.518-.244.056-.489l-.53.019c.064-.091.07-.208-.152-.324l-1.023.034-1.131.487c.113-.11.257-.272.2-.365-.1-.144-.184-.211-.363-.136a6.849,6.849,0,0,1-.642.346,12.545,12.545,0,0,0-1.31.916l.032,0a5.887,5.887,0,0,0-.694.708l1.46,1.766a7.5,7.5,0,0,0,2.108-.634,2.341,2.341,0,0,0,.408-.323l0,.027.7-.387,1.437-.55S587.216,161.439,586.754,161.2Z" transform="translate(-559.707 -127.672)" fill="#8f644d"/>
          <path id="Path_2242" data-name="Path 2242" d="M581.443,161.693a4.823,4.823,0,0,0-.091-5.147c-.528-.943,1.114-3.766-1.131-5.247-3.628-2.394-9.905-3.138-9.905-3.138-3.131,1.251-2.728,5.9-2.754,6.7-.26,7.741-.448,13.344-.448,13.344l2.723,2.017s-.139,6.622,5.423,8.219,7.36-7.827,7.36-7.827l-1.42-2.087Z" transform="translate(-567.113 -134.25)" fill="#ffec83"/>
          <path id="Path_2243" data-name="Path 2243" d="M567.475,156.675c.009-.108.017-.208.028-.318C567.537,156.385,567.107,157.246,567.475,156.675Z" transform="translate(-566.996 -129.612)" fill="#6c90b1" opacity="0.2" style="mix-blend-mode: multiply;isolation: isolate"/>
          <path id="Path_2244" data-name="Path 2244" d="M567.733,156.657c-.06.1-.1.161-.141.224-.364,3.966-.479,6.888-.479,6.888l2.723,2.017s-.139,6.622,5.423,8.219c2.739.786,4.563-1.1,5.711-3.218-1.4-3.285-3.39-5.734-5.59-8.623C573.516,159.718,569.32,154.067,567.733,156.657Z" transform="translate(-567.113 -129.818)" fill="#6c90b1" opacity="0.2" style="mix-blend-mode: multiply;isolation: isolate"/>
          <path id="Path_2245" data-name="Path 2245" d="M585.053,166.612c-.623.138-4.109-.132-6.57.138-.349-5.5.352-14.578-.442-15.23-4.794-3.938-4.392,1.915-4.391,5.389a66.753,66.753,0,0,0,1.268,13.981,2.061,2.061,0,0,0,2.236,1.675l9.194-3.7C586.83,167.915,586.209,167.262,585.053,166.612Z" transform="translate(-563.523 -133.092)" fill="#ffec83"/>
          <path id="Path_2246" data-name="Path 2246" d="M570.558,146.56c-.515,2.455,3.542,4.747,3.542,4.747,2.347.5,4.285-.221,4.809-2.72l1.32-6.291-9.206-.385Z" transform="translate(-565.244 -137.786)" fill="#8f644d"/>
          <path id="Path_2247" data-name="Path 2247" d="M580.095,140.258c-1.232-.893-6.031-2.108-7.557,1.152-5.614,12-4.143,14.487-4.143,14.487s3.848,2.114,5.108,1.486c1.731-.864,5.544-7.929,5.945-9.843s1.665-1.956,1.665-1.956C584.475,144.15,581.846,141.523,580.095,140.258Z" transform="translate(-566.504 -139.276)" fill="#002d42"/>
          <path id="Path_2248" data-name="Path 2248" d="M574.715,144.815c-.36,1.048.1,2.385,1.042,2.17l.435-2.079S575.2,143.393,574.715,144.815Z" transform="translate(-563 -136.487)" fill="#8f644d"/>
        </g>
        <path id="Path_2249" data-name="Path 2249" d="M577.42,160.257l-8.055-4.829a3.468,3.468,0,0,0-5.237,2.869l-.277,23.3,18.957,10.015-2.4-26.435A6.2,6.2,0,0,0,577.42,160.257Z" transform="translate(-563.851 -130.418)" fill="#565ace" stroke="rgba(0,0,0,0)" stroke-width="1"/>
      </g>
      <g id="Group_1540" data-name="Group 1540" transform="translate(116.542 0)">
        <g id="Group_1537" data-name="Group 1537">
          <g id="Group_1535" data-name="Group 1535" transform="translate(20.268 16.825)" opacity="0.3">
            <path id="Path_2250" data-name="Path 2250" d="M608.542,104.663,636.656,119.9l.056-42.763-28.17-15.274Z" transform="translate(-608.542 -61.868)" fill="#6c90b1" opacity="0.5" style="mix-blend-mode: multiply;isolation: isolate"/>
          </g>
          <g id="Group_1536" data-name="Group 1536">
            <path id="Path_2251" data-name="Path 2251" d="M595.466,93.886,641.3,120.1l.056-42.763L595.522,51.123Z" transform="translate(-595.466 -51.123)" fill="#fff"/>
          </g>
        </g>
        <g id="Group_1538" data-name="Group 1538" transform="translate(3.497 17.365)">
          <path id="Path_2252" data-name="Path 2252" d="M622.422,86.831l-.006,2.017.925.54.006-2.017.013-4.724-.925-.54Z" transform="translate(-584.143 -50.957)" fill="#c5d5e7"/>
          <path id="Path_2253" data-name="Path 2253" d="M621.443,83.029l-.009,3.094.925.54.009-3.094.01-3.644-.925-.54Z" transform="translate(-584.684 -52.497)" fill="#c5d5e7"/>
          <path id="Path_2254" data-name="Path 2254" d="M620.462,81.4l-.01,3.639.923.538.01-3.624.017-6.235-.923-.538Z" transform="translate(-585.224 -54.876)" fill="#c5d5e7"/>
          <path id="Path_2255" data-name="Path 2255" d="M610.586,72.68l-.012,4.238.925.54.028-9.861-.925-.54Z" transform="translate(-590.655 -59.472)" fill="#c5d5e7"/>
          <path id="Path_2256" data-name="Path 2256" d="M609.6,71.4l-.015,5.212.923.538.015-5.212.021-7.455-.923-.538Z" transform="translate(-591.197 -61.23)" fill="#c5d5e7"/>
          <path id="Path_2257" data-name="Path 2257" d="M619.47,82.032l-.01,3.675.923.538.028-9.861-.923-.538Z" transform="translate(-585.769 -54.499)" fill="#c5d5e7"/>
          <path id="Path_2258" data-name="Path 2258" d="M618.484,79.331l-.011,3.965.923.538.011-3.965.006-2.144-.923-.538Z" transform="translate(-586.312 -53.74)" fill="#c5d5e7"/>
          <path id="Path_2259" data-name="Path 2259" d="M616.507,78.214l-.009,3.228.925.54.009-3.228.008-2.881-.925-.54Z" transform="translate(-587.398 -54.79)" fill="#c5d5e7"/>
          <path id="Path_2260" data-name="Path 2260" d="M615.524,76.53l-.013,4.621.925.54.013-4.621.011-4.048-.925-.54Z" transform="translate(-587.94 -56.403)" fill="#c5d5e7"/>
          <path id="Path_2261" data-name="Path 2261" d="M604.647,72.284l-.01,3.5.925.54.024-8.668-.925-.54Z" transform="translate(-593.92 -59.438)" fill="#c5d5e7"/>
          <path id="Path_2262" data-name="Path 2262" d="M603.67,69.311l-.017,6.044.925.54.017-6.044.02-7.1-.925-.54Z" transform="translate(-594.461 -62.213)" fill="#c5d5e7"/>
          <path id="Path_2263" data-name="Path 2263" d="M608.617,68.9,608.6,74l.923.539.014-5.1.01-3.572-.923-.538Z" transform="translate(-591.739 -60.451)" fill="#c5d5e7"/>
          <path id="Path_2264" data-name="Path 2264" d="M607.615,72.392l-.009,3.338.925.54.009-3.338.01-3.716-.925-.54Z" transform="translate(-592.287 -58.556)" fill="#c5d5e7"/>
          <path id="Path_2265" data-name="Path 2265" d="M614.542,73.773l-.014,5.122.925.54.014-5.122.01-3.549-.925-.54Z" transform="translate(-588.481 -57.68)" fill="#c5d5e7"/>
          <path id="Path_2266" data-name="Path 2266" d="M613.548,74.484l-.011,3.757.925.54.011-3.76.009-3.141-.925-.54Z" transform="translate(-589.026 -57.049)" fill="#c5d5e7"/>
          <path id="Path_2267" data-name="Path 2267" d="M617.489,80.58l-.006,2.1.925.54.013-4.654-.925-.54Z" transform="translate(-586.856 -53.264)" fill="#c5d5e7"/>
          <path id="Path_2268" data-name="Path 2268" d="M611.565,75.2l-.006,2.041.925.54.017-6.109-.925-.54Z" transform="translate(-590.113 -57.169)" fill="#c5d5e7"/>
          <path id="Path_2269" data-name="Path 2269" d="M612.552,75.8l-.008,2.68.925.54.008-2.68.005-1.974-.925-.54Z" transform="translate(-589.572 -55.642)" fill="#c5d5e7"/>
          <path id="Path_2270" data-name="Path 2270" d="M606.622,73.245l-.007,2.49.925.54.017-6.109-.926-.54Z" transform="translate(-592.832 -58.018)" fill="#c5d5e7"/>
          <path id="Path_2271" data-name="Path 2271" d="M605.627,75.023l0,1.545.925.54L606.565,71l-.925-.54Z" transform="translate(-593.378 -57.549)" fill="#c5d5e7"/>
          <path id="Path_2272" data-name="Path 2272" d="M602.682,67.052l-.013,4.646.925.54.013-4.646.011-4.024-.925-.54Z" transform="translate(-595.002 -61.752)" fill="#c5d5e7"/>
          <path id="Path_2273" data-name="Path 2273" d="M601.684,69.82l-.01,3.608.925.54.01-3.608.013-4.811-.925-.54Z" transform="translate(-595.549 -60.631)" fill="#c5d5e7"/>
          <path id="Path_2274" data-name="Path 2274" d="M600.691,69.965l-.007,2.346.925.54.007-2.346.011-3.762-.925-.54Z" transform="translate(-596.093 -59.956)" fill="#c5d5e7"/>
          <path id="Path_2275" data-name="Path 2275" d="M599.694,72.391l-.005,1.876.925.54.017-6.109-.925-.54Z" transform="translate(-596.641 -58.849)" fill="#c5d5e7"/>
          <path id="Path_2276" data-name="Path 2276" d="M598.712,69.5l-.007,2.59.923.538.013-4.654-.923-.538Z" transform="translate(-597.182 -59.256)" fill="#c5d5e7"/>
          <path id="Path_2277" data-name="Path 2277" d="M597.73,67.455l-.008,2.758.923.538.019-6.708-.923-.538Z" transform="translate(-597.722 -61.482)" fill="#c5d5e7"/>
        </g>
        <g id="Group_1539" data-name="Group 1539" transform="translate(2.385 37.07)">
          <path id="Path_2278" data-name="Path 2278" d="M597,78.323,637.01,101.2l.049-3.525L597.053,74.8Z" transform="translate(-597.004 -74.798)" fill="#565ace" stroke="rgba(0,0,0,0)" stroke-width="1"/>
        </g>
      </g>
      <g id="Group_1542" data-name="Group 1542" transform="translate(206.523 60.308)">
        <path id="Path_2279" data-name="Path 2279" d="M656.053,131.182,678.2,144.1V107.556L656.155,94.7Z" transform="translate(-652.13 -86.775)" fill="#6c90b1" opacity="0.1" style="mix-blend-mode: multiply;isolation: isolate"/>
        <path id="Path_2280" data-name="Path 2280" d="M653.522,126.121l31.427,18.33.1-36.482-31.427-18.33Z" transform="translate(-653.522 -89.639)" fill="#fff"/>
        <g id="Group_1541" data-name="Group 1541" transform="translate(5.217 14.096)">
          <path id="Path_2281" data-name="Path 2281" d="M663.919,111.7l-.016,5.684.085.047c.177.1.353.183.527.266l.13.063c.054.023.107.045.161.07.136.059.274.119.409.174l.07.027c.076.03.152.056.226.083.133.049.265.1.4.138l0,0c.09.028.178.052.266.077.126.036.251.07.374.1.09.022.18.041.27.058.119.025.24.047.358.066.088.014.177.025.263.036.116.014.232.025.347.033.085.006.171.013.253.014.116,0,.231,0,.344,0,.079,0,.16,0,.237-.006.118-.006.234-.02.349-.033.07-.008.141-.014.209-.023.132-.02.259-.049.386-.077.045-.009.091-.017.136-.028l.084-.025c.141-.038.281-.08.417-.128.051-.019.1-.041.149-.061.116-.045.231-.094.344-.149.048-.023.095-.05.143-.075l.042-.023c.094-.05.189-.1.279-.158l.026-.017-3.447-6.031A3.681,3.681,0,0,1,663.919,111.7Z" transform="translate(-653.03 -91.251)" fill="#002d42"/>
          <path id="Path_2282" data-name="Path 2282" d="M670.4,112.575h0v0Z" transform="translate(-649.459 -90.757)" fill="#517fa2"/>
          <path id="Path_2283" data-name="Path 2283" d="M667.269,108.683v0Z" transform="translate(-651.181 -92.966)" fill="#517fa2"/>
          <path id="Path_2284" data-name="Path 2284" d="M666.011,101.359q.335.336.66.691l.006.006C666.459,101.818,666.236,101.586,666.011,101.359Z" transform="translate(-651.871 -97.103)" fill="#517fa2"/>
          <path id="Path_2285" data-name="Path 2285" d="M670.337,112.9l0,.013v0Z" transform="translate(-649.494 -90.572)" fill="#517fa2"/>
          <path id="Path_2286" data-name="Path 2286" d="M670.332,112.925l0-.013v.013Z" transform="translate(-649.495 -90.566)" fill="#517fa2"/>
          <path id="Path_2287" data-name="Path 2287" d="M677.975,118.271v-.1l0-.063,0-.1,0-.069,0-.088,0-.091,0-.066,0-.1,0-.06-.006-.094,0-.066-.008-.1,0-.061-.008-.1,0-.058-.011-.106c-.008-.091-.012-.128-.016-.166l-.019-.164c-.009-.081-.014-.121-.02-.16l-.022-.166-.022-.163-.025-.169-.008-.05-.019-.116c-.012-.069-.02-.117-.03-.168l-.028-.164c-.1-.572-.239-1.146-.4-1.719q-.146-.535-.321-1.068c-.042-.13-.088-.258-.133-.388-.093-.266-.189-.532-.292-.8-.057-.146-.115-.291-.174-.435-.107-.261-.219-.52-.335-.778-.06-.133-.116-.266-.18-.4-.158-.338-.326-.675-.5-1.007-.047-.091-.094-.18-.143-.269h0c-.02-.036-.04-.07-.059-.1q-.235-.432-.485-.858c-.082-.136-.166-.269-.25-.4q-.219-.355-.448-.7c-.088-.135-.18-.269-.271-.4q-.246-.355-.5-.7c-.037-.05-.074-.1-.113-.152l-.172-.229c-.209-.269-.422-.534-.64-.791-.113-.135-.228-.268-.344-.4h0c-.084-.1-.167-.188-.253-.282h0l-.006-.006c-.276-.3-.561-.592-.849-.877-.211-.207-.425-.412-.642-.608.217.2.431.4.642.608-.062-.059-.119-.127-.181-.186l-.036-.033-.085-.081-.119-.111-.119-.11-.121-.108-.121-.108-.057-.05-.065-.055-.124-.106-.124-.1-.125-.1-.047-.039-.079-.064-.051-.041-.076-.059-.051-.039-.078-.061-.053-.041-.074-.058-.054-.041-.074-.055-.059-.044-.071-.052-.059-.042-.07-.052-.065-.045-.065-.047-.063-.044-.068-.047-.068-.045-.064-.044-.068-.045-.063-.042-.073-.047-.06-.039-.071-.045-.062-.039-.07-.042-.064-.041-.068-.041-.065-.041-.135-.078-.133-.077-.135-.075-.135-.074-.046-.027-.085-.044-.059-.031-.073-.038-.064-.031-.07-.036-.06-.03-.071-.034-.062-.03-.07-.033-.06-.027-.07-.033-.064-.028-.067-.03-.062-.027-.068-.028-.064-.028-.065-.027-.065-.025-.064-.025-.067-.027-.062-.023-.064-.023-.065-.025-.063-.022-.065-.023-.06-.02-.065-.022-.064-.022-.06-.019-.067-.02-.059-.019-.068-.02-.057-.016-.067-.02-.056-.014-.07-.019-.054-.016-.068-.016-.056-.014-.068-.017-.054-.011-.068-.016-.051-.011-.073-.016-.045-.009-.074-.014-.046-.008-.076-.014-.119-.019L663.7,98.7l-.119-.016-.12-.014a6.753,6.753,0,0,0-1.136-.017c-.087.006-.175.009-.26.019-.132.014-.259.038-.386.061-.074.013-.15.023-.225.039-.136.031-.27.072-.4.111-.059.019-.119.033-.178.053a4.691,4.691,0,0,0-.439.18c-.033.014-.067.025-.1.041s-.065.038-.1.053c-.136.07-.27.142-.4.224-.056.034-.108.075-.163.113-.106.072-.212.146-.313.227-.059.047-.115.1-.172.15-.091.08-.181.16-.268.247-.057.058-.112.121-.167.182-.079.088-.158.177-.234.272-.054.067-.105.138-.158.21-.07.1-.138.2-.2.3-.048.077-.1.157-.143.236-.062.106-.121.216-.178.329q-.065.127-.126.258c-.054.117-.1.24-.153.362-.036.092-.073.183-.105.279-.047.128-.087.263-.127.4-.028.092-.057.186-.084.282l-.006.023c-.036.141-.067.287-.1.432-.019.089-.04.177-.057.269l-.011.066c-.028.158-.05.321-.071.485-.009.074-.022.144-.031.218,0,.038-.008.075-.011.113-.023.23-.042.465-.053.706l0,.066,4.893,2.854c.217-2.8,2.074-4.1,4.492-3.283a4.973,4.973,0,0,1,1.354.67,14.825,14.825,0,0,1,5.329,8.441,12.3,12.3,0,0,0-1.285-3.867,11.735,11.735,0,0,1,1.381,4.613c-.016-.241-.059-.487-.095-.733a7.327,7.327,0,0,1,.115,1.279v.16c-.006.177-.008.2-.009.213v.02h0v-.02l0,.085-.006.081a3.849,3.849,0,0,1-1.474,3.014l0,0h0l3.447,6.031c.023-.014.045-.031.068-.047.1-.067.206-.139.305-.216l.037-.027.091-.077c.02-.016.039-.033.059-.05.064-.055.129-.11.191-.168l.065-.06c.028-.027.054-.056.082-.083s.051-.053.076-.08c.048-.05.095-.1.141-.153.031-.036.065-.07.1-.108s.087-.108.129-.163.079-.1.116-.155.065-.086.1-.132.078-.117.116-.178c.057-.089.115-.18.169-.276.042-.075.082-.152.122-.23.051-.1.1-.2.147-.3.037-.083.074-.168.109-.252.043-.1.087-.21.126-.318.033-.089.064-.18.094-.272.053-.16.1-.321.149-.49l.031-.122.031-.124,0-.019.025-.108.006-.028v0l0-.006.02-.091.006-.033.02-.1.006-.033.017-.1.009-.047.014-.085.008-.042.012-.081,0-.013.008-.05.012-.083v0l.008-.053.011-.083.006-.058.011-.081.006-.059h0v0l.009-.078.006-.066.008-.077.006-.064.006-.08,0-.066.006-.078,0-.075,0-.011,0-.058,0-.078v-.014l0-.058,0-.07,0-.078,0-.072v0h0l0-.075,0-.077v-.229c0-.052,0-.1,0-.157Zm-4.9-2.327,0,0v0l0-.006h0v0Zm0-.07v0l0-.03Z" transform="translate(-656.881 -98.641)" fill="#517fa2"/>
          <path id="Path_2288" data-name="Path 2288" d="M670.333,112.919v-.008l0,.007Z" transform="translate(-649.495 -90.567)" fill="#517fa2"/>
          <path id="Path_2289" data-name="Path 2289" d="M667.337,109.7v0Z" transform="translate(-651.142 -92.387)" fill="#517fa2"/>
          <path id="Path_2290" data-name="Path 2290" d="M667.35,102.889h0Z" transform="translate(-651.135 -96.237)" fill="#517fa2"/>
          <path id="Path_2291" data-name="Path 2291" d="M667.335,109.749v0h0Z" transform="translate(-651.143 -92.358)" fill="#517fa2"/>
          <path id="Path_2292" data-name="Path 2292" d="M661.779,106.5c0-.18.008-.354.02-.523l-4.893-2.854c-.008.174-.019.344-.019.523-.019,6.75,4.7,15,10.514,18.4.121.069.239.13.358.194l.016-5.678c-.118-.061-.237-.127-.358-.2A12.6,12.6,0,0,1,661.779,106.5Z" transform="translate(-656.888 -96.104)" fill="#565ace" stroke="rgba(0,0,0,0)" stroke-width="1"/>
        </g>
      </g>
    </g>
  </g>
</svg>
