<svg xmlns="http://www.w3.org/2000/svg" xmlns:xlink="http://www.w3.org/1999/xlink" width="378" height="378" viewBox="0 0 378 378">
  <defs>
    <filter id="Rectangle_168" x="0" y="0" width="378" height="378" filterUnits="userSpaceOnUse">
      <feOffset dy="2" input="SourceAlpha"/>
      <feGaussianBlur stdDeviation="3" result="blur"/>
      <feFlood flood-opacity="0.039"/>
      <feComposite operator="in" in2="blur"/>
      <feComposite in="SourceGraphic"/>
    </filter>
  </defs>
  <g id="Group_295" data-name="Group 295" transform="translate(-460 -561)">
    <g transform="matrix(1, 0, 0, 1, 460, 561)" filter="url(#Rectangle_168)">
      <rect id="Rectangle_168-2" data-name="Rectangle 168" width="360" height="360" transform="translate(9 7)" fill="#fff"/>
    </g>
    <text id="Daily" transform="translate(494 601)" fill="#4d4f5c" font-size="18" font-family="EuphemiaUCAS, Euphemia UCAS"><tspan x="0" y="0">Daily</tspan></text>
    <g id="Group_188" data-name="Group 188" transform="translate(488 621.54)">
      <g id="Group_187" data-name="Group 187" transform="translate(3)">
        <g id="Rectangle_200" data-name="Rectangle 200" fill="#fff" stroke="#f0f0f7" stroke-width="1">
          <rect width="315" height="265.46" stroke="none"/>
          <rect x="0.5" y="0.5" width="314" height="264.46" fill="none"/>
        </g>
        <g id="Rectangle_201" data-name="Rectangle 201" transform="translate(44 1)" fill="none" stroke="#f0f0f7" stroke-width="1">
          <rect width="1" height="263.46" stroke="none"/>
          <rect x="0.5" y="0.5" height="262.46" fill="none"/>
        </g>
        <g id="Rectangle_202" data-name="Rectangle 202" transform="translate(156.621)" fill="none" stroke="#f0f0f7" stroke-width="1">
          <rect width="1" height="263.46" stroke="none"/>
          <rect x="0.5" y="0.5" height="262.46" fill="none"/>
        </g>
        <g id="Rectangle_203" data-name="Rectangle 203" transform="translate(265 1)" fill="none" stroke="#f0f0f7" stroke-width="1">
          <rect width="1" height="263.46" stroke="none"/>
          <rect x="0.5" y="0.5" height="262.46" fill="none"/>
        </g>
        <g id="Rectangle_204" data-name="Rectangle 204" transform="translate(100.53 1)" fill="none" stroke="#f0f0f7" stroke-width="1">
          <rect width="1" height="263.46" stroke="none"/>
          <rect x="0.5" y="0.5" height="262.46" fill="none"/>
        </g>
        <g id="Rectangle_205" data-name="Rectangle 205" transform="translate(212.711)" fill="none" stroke="#f0f0f7" stroke-width="1">
          <rect width="1" height="263.46" stroke="none"/>
          <rect x="0.5" y="0.5" height="262.46" fill="none"/>
        </g>
      </g>
      <path id="Rectangle_194" data-name="Rectangle 194" d="M0,0H288.953a5,5,0,0,1,5,5V20a5,5,0,0,1-5,5H0a0,0,0,0,1,0,0V0A0,0,0,0,1,0,0Z" transform="translate(3.047 6.46)" fill="#3b986d"/>
      <path id="Rectangle_195" data-name="Rectangle 195" d="M0,0H218a5,5,0,0,1,5,5V20a5,5,0,0,1-5,5H0a0,0,0,0,1,0,0V0A0,0,0,0,1,0,0Z" transform="translate(3.047 51.46)" fill="#3b986d"/>
      <path id="Rectangle_196" data-name="Rectangle 196" d="M0,0H165a5,5,0,0,1,5,5V20a5,5,0,0,1-5,5H0a0,0,0,0,1,0,0V0A0,0,0,0,1,0,0Z" transform="translate(3.047 96.46)" fill="#f4dd62"/>
      <path id="Rectangle_197" data-name="Rectangle 197" d="M0,0H116a5,5,0,0,1,5,5V20a5,5,0,0,1-5,5H0a0,0,0,0,1,0,0V0A0,0,0,0,1,0,0Z" transform="translate(3.047 141.46)" fill="#ea8d8d"/>
      <path id="Rectangle_198" data-name="Rectangle 198" d="M0,0H106a5,5,0,0,1,5,5V20a5,5,0,0,1-5,5H0a0,0,0,0,1,0,0V0A0,0,0,0,1,0,0Z" transform="translate(3.047 186.46)" fill="#b1afff"/>
      <path id="Rectangle_199" data-name="Rectangle 199" d="M0,0H61a5,5,0,0,1,5,5V20a5,5,0,0,1-5,5H0a0,0,0,0,1,0,0V0A0,0,0,0,1,0,0Z" transform="translate(3.047 231.46)" fill="#ea8d8d"/>
      <text id="_0" data-name="0" transform="translate(0 281.46)" fill="#808293" font-size="10" font-family="EuphemiaUCAS, Euphemia UCAS"><tspan x="0" y="0">0</tspan></text>
      <text id="_200" data-name="200" transform="translate(34 281.46)" fill="#808293" font-size="10" font-family="EuphemiaUCAS, Euphemia UCAS"><tspan x="0" y="0">200</tspan></text>
      <text id="_400" data-name="400" transform="translate(96.571 281.46)" fill="#808293" font-size="10" font-family="EuphemiaUCAS, Euphemia UCAS"><tspan x="0" y="0">400</tspan></text>
      <text id="_600" data-name="600" transform="translate(150.5 281.46)" fill="#808293" font-size="10" font-family="EuphemiaUCAS, Euphemia UCAS"><tspan x="0" y="0">600</tspan></text>
      <text id="_800" data-name="800" transform="translate(209.446 281.46)" fill="#808293" font-size="10" font-family="EuphemiaUCAS, Euphemia UCAS"><tspan x="0" y="0">800</tspan></text>
      <text id="_1000" data-name="1000" transform="translate(271 281.46)" fill="#808293" font-size="10" font-family="EuphemiaUCAS, Euphemia UCAS"><tspan x="0" y="0">1000</tspan></text>
    </g>
  </g>
</svg>
