<svg id="egi85a56lfbd1" xmlns="http://www.w3.org/2000/svg" xmlns:xlink="http://www.w3.org/1999/xlink" viewBox="0 0 360 360" shape-rendering="geometricPrecision" text-rendering="geometricPrecision"><defs><linearGradient id="egi85a56lfbd8-fill" x1="0.498000" y1="0.100000" x2="0.502000" y2="0.002942" spreadMethod="pad" gradientUnits="objectBoundingBox"><stop id="egi85a56lfbd8-fill-0" offset="0%" stop-color="rgb(255,255,255)"/><stop id="egi85a56lfbd8-fill-1" offset="100%" stop-color="rgb(170,196,216)"/></linearGradient><linearGradient id="egi85a56lfbd82-fill" x1="0" y1="0.500000" x2="1" y2="0.500000" spreadMethod="pad" gradientUnits="objectBoundingBox"><stop id="egi85a56lfbd82-fill-0" offset="0%" stop-color="rgb(255,255,255)"/><stop id="egi85a56lfbd82-fill-1" offset="100%" stop-color="rgb(170,196,216)"/></linearGradient></defs><g id="egi85a56lfbd2" transform="matrix(1 0 0 1 1093 774)"><rect id="egi85a56lfbd3" width="360" height="360" rx="0" ry="0" transform="matrix(1 0 0 1 -1093.23629972499998 -774)" fill="rgb(237,245,255)" stroke="none" stroke-width="1"/><rect id="egi85a56lfbd4" width="360" height="360" rx="0" ry="0" transform="matrix(1 0 0 1 -1093.23629972499998 -774)" fill="rgb(237,245,255)" stroke="none" stroke-width="1"/><rect id="egi85a56lfbd5" width="360" height="360" rx="0" ry="0" transform="matrix(1 0 0 1 -1093.23629972499998 -774)" fill="rgb(237,245,255)" stroke="none" stroke-width="1"/><g id="egi85a56lfbd6" transform="matrix(1 0 0 1 -1355 -537.55700683593750)"><path id="egi85a56lfbd7" d="M578.334000,400.154000L525.763000,367.312000C523.818235,366.229166,521.451765,366.229166,519.507000,367.312000L467.278000,400.154000C465.556000,401.237000,465.565000,402.992000,467.298000,404.074000L519.870000,436.914000C521.814364,437.998378,524.181636,437.998378,526.126000,436.914000L578.355000,404.074000C580.078000,402.991000,580.068000,401.236000,578.334000,400.154000Z" transform="matrix(1 0 0 1 -48.69800186157227 -448.49200439453125)" fill="rgb(255,255,255)" stroke="none" stroke-width="1"/><path id="egi85a56lfbd8" style="mix-blend-mode:multiply;isolation:isolate" d="M691.249000,425.400000L574.128000,351.758000C571.332198,350.200838,567.929802,350.200838,565.134000,351.758000L393.200000,459.161000C390.708000,460.718000,390.700000,463.241000,393.176000,464.798000L510.297000,538.443000C513.093003,539.999391,516.494997,539.999391,519.291000,538.443000L691.225000,431.038000C693.717000,429.483000,693.726000,426.958000,691.249000,425.400000Z" transform="matrix(1 0 0 1 -100.44899749755859 -461.72799682617188)" fill="url(#egi85a56lfbd8-fill)" stroke="none" stroke-width="1"/><g id="egi85a56lfbd9" transform="matrix(1 0 0 1 386.11401367187500 -190.72399902343750)"><path id="egi85a56lfbd10" d="M467.256000,336.732000C467.256000,336.732000,464.589000,321.980000,463.045000,319.300000C462.035593,317.376412,460.069259,316.144732,457.898000,316.076000C455.726741,316.007268,460.585000,325.331000,458.755000,325.451000C458.215734,325.481711,457.674724,325.452196,457.142000,325.363000L461.261000,331.910000L462.428000,343.387000L471.261000,346.430000L471.251000,340.167000Z" transform="matrix(1 0 0 1 -440.94500732421875 -299.71499633789063)" fill="rgb(9,66,94)" stroke="none" stroke-width="1"/><path id="egi85a56lfbd11" style="mix-blend-mode:multiply;isolation:isolate" d="M463.481000,331.885000C463.088000,329.185000,462.060000,322.324000,461.647000,320.416000L461.638000,320.387000L461.647000,320.416000C461.647000,320.409000,461.638000,320.363000,461.627000,320.288000Q460.812000,319.596000,460,318.905000C459.485855,318.464979,459.005812,317.986608,458.564000,317.474000C459.216000,320.224000,459.954000,324.208000,458.755000,324.287000C458.215734,324.317711,457.674724,324.288196,457.142000,324.199000L461.261000,330.746000L462.428000,342.223000L471.789000,344.714000C471.816051,344.393680,471.891928,344.079380,472.014000,343.782000C465.870000,340.455000,465.100000,339.806000,463.481000,331.885000Z" transform="matrix(1 0 0 1 -440.94500732421875 -298.55099487304688)" opacity="0.10000000149011612" fill="rgb(108,144,177)" stroke="none" stroke-width="1"/><path id="egi85a56lfbd12" d="M460.479000,369.024000L456.360000,364.565000L450.641000,365.496000L450.641000,368.051000C450.630943,368.770293,450.995219,369.443181,451.603000,369.828000L458.812000,374.170000C458.812000,374.170000,462.053000,375.137000,463.226000,372.477000L463.195000,372.299000C463,371.114000,461.263000,369.881000,460.479000,369.024000Z" transform="matrix(1 0 0 1 -445.45098876953125 -259.37799072265625)" fill="rgb(0,45,66)" stroke="none" stroke-width="1"/><path id="egi85a56lfbd13" d="M466.893000,365.861000L462.774000,361.402000L457.055000,362.333000L457.055000,364.888000C457.044552,365.607389,457.408925,366.280456,458.017000,366.665000L461.877000,368.092000C461.877000,368.092000,466.020000,371.135000,467.838000,370.473000C469.433000,369.893000,470.782000,368.092000,466.893000,365.861000Z" transform="matrix(1 0 0 1 -441.00500488281250 -262.00900268554688)" fill="rgb(0,45,66)" stroke="none" stroke-width="1"/><path id="egi85a56lfbd14" d="M468.662000,335.124000C466.810000,336.273000,466.033000,335.106000,464.262000,336.045000C459.504000,338.575000,449.209000,337.765000,449.094000,337.761000L450.922000,390.046000C457.122000,393.614000,458.712000,389.194000,458.712000,389.194000L460.085000,349.459000L462.066000,385.012000C467.877000,386.948000,469.050000,383.380000,469.050000,383.380000C469.050000,383.380000,469.065000,356.254000,468.657000,346.614000C468.559000,344.188000,468.662000,335.124000,468.662000,335.124000Z" transform="matrix(1 0 0 1 -446.51901245117188 -283.86898803710938)" fill="rgb(81,127,162)" stroke="none" stroke-width="1"/><path id="egi85a56lfbd15" d="M467.721000,337.505000C467.911000,331.191000,468.271000,325.323000,467.188000,319.183000C465.644001,318.715567,464.187273,317.997676,462.876000,317.058000C462.511452,316.783152,462.246403,316.396988,462.121000,315.958000L459.412000,315.958000L456.244000,316.558000L451.134000,320.169000C448.724754,321.473467,447.328332,324.091512,447.587000,326.819000L450.873000,352.793000C450.873000,352.793000,451.325000,356.973000,459.846000,355.731000C464.526000,355.050000,467.086000,353.613000,468.418000,352.516000C467.787408,347.538782,467.554337,342.519237,467.721000,337.505000Z" transform="matrix(1 0 0 1 -447.57501220703125 -299.81500244140625)" fill="rgb(213,224,238)" stroke="none" stroke-width="1"/><path id="egi85a56lfbd16" d="M461.992000,321.100000C461.139000,318.200000,460.255000,315.947000,456.545000,315.962000C459.337000,321.298000,458.932000,331.368000,458.776000,334.836000C458.622000,338.320000,457.430000,333.077000,457.449000,336.565000Q457.485000,343.558000,457.412000,350.549000C458.562000,351.163000,457.993000,354.495000,459.168000,355.708000C461.823000,358.450000,463.895000,354.272000,463.895000,354.272000L462.681000,338.622000C462.681000,338.622000,462.821000,323.910000,461.992000,321.100000Z" transform="matrix(1 0 0 1 -441.35900878906250 -299.81100463867188)" fill="rgb(9,66,94)" stroke="none" stroke-width="1"/><path id="egi85a56lfbd17" style="mix-blend-mode:multiply;isolation:isolate" d="M459.292000,325.091000C459.255000,324.591000,459.272000,324.443000,459.304000,324.452000C459.243000,324.227000,459.160000,323.899000,459.038000,323.395000C458.769000,322.276000,458.493000,321.202000,458.190000,320.132000C458.555581,323.864157,458.633144,327.618930,458.422000,331.363000C458.266000,334.847000,457.076000,329.603000,457.095000,333.092000Q457.131000,340.085000,457.058000,347.077000C458.208000,347.691000,457.639000,351.023000,458.814000,352.236000C459.190582,352.762881,459.777697,353.099928,460.422581,353.159444C461.067465,353.218960,461.706349,352.995059,462.173000,352.546000C460.855929,347.129317,460.069881,341.597170,459.826000,336.028000C459.634000,332.382000,459.559000,328.733000,459.292000,325.091000Z" transform="matrix(1 0 0 1 -441.00399780273438 -296.33999633789063)" opacity="0.10000000149011612" fill="rgb(108,144,177)" stroke="none" stroke-width="1"/><path id="egi85a56lfbd18" d="M464.639000,333.114000L464.634000,333.414000C464.634000,333.414000,459.218000,322.769000,458.405000,321.443000C457.420000,319.833000,456.466000,318.199000,455.522000,316.559000L451.134000,319.659000C448.724754,320.963467,447.328332,323.581512,447.587000,326.309000L449.898000,357.123000C449.898000,357.123000,450.760000,359.493000,457.684000,360.232000C460.904000,360.576000,466.154000,357.640000,466.314000,355.453000C465.452000,348.825000,465.082000,339.966000,464.714000,333.278000C464.688000,333.226000,464.663000,333.171000,464.639000,333.114000Z" transform="matrix(1 0 0 1 -447.57501220703125 -299.31100463867188)" fill="rgb(9,66,94)" stroke="none" stroke-width="1"/><path id="egi85a56lfbd19" style="mix-blend-mode:multiply;isolation:isolate" d="M454.266000,327.540000C453.753000,326.540000,453.274000,325.523000,452.724000,324.547000C452.350000,323.888000,451.955000,323.230000,451.546000,322.585000C451.182444,322.249154,450.847921,321.883185,450.546000,321.491000C449.958094,320.797065,449.415631,320.065876,448.922000,319.302000C447.921821,320.665500,447.449027,322.344967,447.591000,324.030000L449.900000,354.844000C449.900000,354.844000,450.763000,357.213000,457.688000,357.953000C458.397831,358.007784,459.111863,357.950756,459.804000,357.784000C457.242000,350.722000,455.488000,330.652000,454.659000,328.326000C454.557000,328.121000,454.433000,327.866000,454.266000,327.540000Z" transform="matrix(1 0 0 1 -447.57501220703125 -297.03100585937500)" opacity="0.10000000149011612" fill="rgb(108,144,177)" stroke="none" stroke-width="1"/><path id="egi85a56lfbd20" d="M452.695000,319.239000C452.602259,320.512754,453.229252,321.731505,454.319483,322.396674C455.409713,323.061842,456.780287,323.061842,457.870517,322.396674C458.960748,321.731505,459.587741,320.512754,459.495000,319.239000L459.495000,313.227000L453.200000,313.227000Z" transform="matrix(1 0 0 1 -444.02700805664063 -302.08401489257813)" fill="rgb(247,183,169)" stroke="none" stroke-width="1"/><path id="egi85a56lfbd21" d="M452.695000,317.768000C452.695000,319.301000,454.217000,320.547000,456.095000,320.547000C457.973000,320.547000,459.495000,319.301000,459.495000,317.768000L459.495000,313.227000L453.200000,313.227000Z" transform="matrix(1 0 0 1 -444.02700805664063 -302.08401489257813)" fill="rgb(234,174,160)" stroke="none" stroke-width="1"/><path id="egi85a56lfbd22" d="M453.238000,315.338000L451.912000,318C453.688000,322.772000,457.569000,323.463000,457.569000,323.463000L458.409000,320.614000C454.472000,319.654000,453.238000,315.338000,453.238000,315.338000Z" transform="matrix(1 0 0 1 -444.57000732421875 -300.32800292968750)" fill="rgb(255,255,255)" stroke="none" stroke-width="1"/><path id="egi85a56lfbd23" d="M455.749000,320.005000C456.525425,320.575641,457.221362,321.248369,457.818000,322.005000C458.414638,322.761631,458.703000,317.505000,457.374000,316.072000C457.514241,317.570785,456.906254,319.042302,455.749000,320.005000Z" transform="matrix(1 0 0 1 -441.91000366210938 -299.71600341796875)" fill="rgb(255,255,255)" stroke="none" stroke-width="1"/><path id="egi85a56lfbd24" d="M453.225000,315.872000L451.225000,318.378000L452.512000,324.278000L453.712000,324.278000L452.258000,324.950000C454.401202,326.776280,456.383187,328.783693,458.182000,330.950000C460.297000,333.568000,461.595000,334.901000,462.382000,337.224000C462.583967,336.299564,462.632616,335.348216,462.526000,334.408000C461.037000,329.673000,456.100000,320.880000,453.225000,315.872000Z" transform="matrix(1 0 0 1 -445.04299926757813 -299.88400268554688)" fill="rgb(0,61,87)" stroke="none" stroke-width="1"/><path id="egi85a56lfbd25" d="M458.872000,321.308000L459.840000,320.854000C459.419303,318.806709,458.274667,316.979694,456.616000,315.708000L456.616000,318.346000C459.386000,325.851000,458.648000,337.366000,458.648000,337.366000C460.212000,333.931000,460.168000,321.308000,460.168000,321.308000Z" transform="matrix(1 0 0 1 -441.30899047851563 -300.01998901367188)" fill="rgb(0,61,87)" stroke="none" stroke-width="1"/><path id="egi85a56lfbd26" d="M452.486000,317.216000C452.486000,320.294000,457.569000,322.003000,457.569000,322.003000C460.315000,322.003000,461.769000,320.638000,461.769000,317.503000L461.769000,309.615000L451.914000,311.515000Z" transform="matrix(1 0 0 1 -444.57000732421875 -305.08801269531250)" fill="rgb(247,183,169)" stroke="none" stroke-width="1"/><path id="egi85a56lfbd27" d="M461.176000,308.500000C457.270000,305.844000,453.896000,307.384000,451.576000,310.559000C450.440000,312.107000,451.220000,315.228000,451.557000,316.690000C451.956632,318.586144,452.830919,320.349858,454.098000,321.816000L454.391000,316.566000L454.962000,317.608000L455.780000,316.963000C455.780000,316.963000,455.421000,314.735000,455.440000,314.363000C455.498000,313.099000,462.420000,312.918000,462.420000,312.918000C462.420000,312.918000,465.438000,311.400000,461.176000,308.500000Z" transform="matrix(1 0 0 1 -445.21798706054688 -307.14401245117188)" fill="rgb(129,82,79)" stroke="none" stroke-width="1"/><path id="egi85a56lfbd28" d="M452.009000,312.841000C451.852000,314.191000,452.678000,315.677000,453.685000,315.177000L453.685000,312.570000C453.685000,312.570000,452.220000,311.009000,452.009000,312.841000Z" transform="matrix(1 0 0 1 -444.51599121093750 -303.14700317382813)" fill="rgb(247,183,169)" stroke="none" stroke-width="1"/><path id="egi85a56lfbd29" d="M456.518000,318.430000L455.850000,318.681000L455.335000,320.427000L456.448000,321.907000L457.848000,321.658000L458.101000,320.047000L457.380000,319.196000Z" transform="matrix(1 0 0 1 -442.19699096679688 -297.75601196289063)" fill="rgb(236,101,80)" stroke="none" stroke-width="1"/><path id="egi85a56lfbd30" d="M457.400000,320.192000L456,320.441000L456.486000,324.268000L459.176000,330.643000C459.219997,328.667891,459.144191,326.691932,458.949000,324.726000C458.543979,323.178898,458.026262,321.663517,457.400000,320.192000Z" transform="matrix(1 0 0 1 -441.74200439453125 -296.29000854492188)" fill="rgb(236,101,80)" stroke="none" stroke-width="1"/></g><path id="egi85a56lfbd31" d="M453.881000,322.974000C453.043000,320.874000,451.927000,318.830000,449.037000,319.338000C449.037000,319.338000,447.488000,319.646000,447.403000,324.760000C447.318000,329.874000,454.571000,342.795000,455.037000,343.304000C455.503000,343.813000,469.787000,346.046000,475.096000,345.004000L475.096000,340.712000C475.096000,340.712000,459.686000,337.975000,459.176000,337.534000C459.177000,337.534000,455.168000,326.194000,453.881000,322.974000Z" transform="matrix(1 0 0 1 -61.58100128173828 -487.79000854492188)" fill="rgb(9,66,94)" stroke="none" stroke-width="1"/><g id="egi85a56lfbd32" transform="matrix(1 0 0 1 291.88699340820313 -130.88600158691406)"><g id="egi85a56lfbd33"><g id="egi85a56lfbd34" style="isolation:isolate"><path id="egi85a56lfbd35" d="M570.165000,382.224000L570.175000,385.999000L570.175000,385.953000L570.165000,382.178000Z" transform="matrix(1 0 0 1 -268.38598632812500 -304.56298828125000)" fill="rgb(33,33,33)" stroke="none" stroke-width="1"/><g id="egi85a56lfbd36" transform="matrix(1 0 0 1 18.28000068664551 11.43500041961670)"><path id="egi85a56lfbd37" d="M402.718000,439.748000L517.950000,512.200000L667.940000,418.500000L552.707000,346.051000Z" transform="matrix(1 0 0 1 -402.71699067054692 -346.04999487304690)" fill="rgb(81,127,162)" stroke="none" stroke-width="1"/></g><g id="egi85a56lfbd38" transform="matrix(1 0 0 1 18.28000068664551 11.43500041961670)"><path id="egi85a56lfbd39" d="M402.718000,439.748000L414.187000,446.960000L564.787000,352.882000L552.707000,346.052000Z" transform="matrix(1 0 0 1 -402.71798706054688 -346.05099487304688)" fill="rgb(9,66,94)" stroke="none" stroke-width="1"/></g><g id="egi85a56lfbd40" transform="matrix(1 0 0 1 0.00100000004750 0)"><path id="egi85a56lfbd41" d="M691.849000,414.623000L574.728000,340.978000C571.932198,339.420838,568.529802,339.420838,565.734000,340.978000L393.800000,448.382000C391.308000,449.937000,391.300000,452.462000,393.776000,454.019000L510.897000,527.662000C513.692802,529.219162,517.095198,529.219162,519.891000,527.662000L691.826000,420.259000C694.318000,418.700000,694.326000,416.180000,691.849000,414.623000ZM525.433000,517.400000L410.200000,444.940000L560.190000,351.240000L675.422000,423.700000Z" transform="matrix(1 0 0 1 -391.92098999023438 -339.80899047851563)" fill="rgb(0,45,66)" stroke="none" stroke-width="1"/></g><path id="egi85a56lfbd42" d="M693.700000,382.178000C693.700000,382.246000,693.691000,382.314000,693.686000,382.378000C693.681000,382.442000,693.677000,382.517000,693.666000,382.587000C693.655000,382.657000,693.639000,382.708000,693.624000,382.770000C693.609000,382.832000,693.595000,382.904000,693.573000,382.970000C693.553961,383.027772,693.531931,383.084515,693.507000,383.140000C693.480000,383.210000,693.453000,383.281000,693.419000,383.351000C693.395000,383.400000,693.365000,383.451000,693.338000,383.498000C693.292000,383.580000,693.245000,383.663000,693.191000,383.744000C693.161000,383.790000,693.125000,383.834000,693.091000,383.878000C693.016403,383.978695,692.936280,384.075177,692.851000,384.167000C692.805000,384.216000,692.761000,384.267000,692.712000,384.314000C692.663000,384.361000,692.604000,384.414000,692.546000,384.470000C692.488000,384.526000,692.417000,384.584000,692.346000,384.639000C692.275000,384.694000,692.221000,384.739000,692.155000,384.785000C692.048000,384.862000,691.942000,384.939000,691.825000,385.012000L519.888000,492.420000C519.600118,492.594820,519.299233,492.747269,518.988000,492.876000C518.902000,492.914000,518.812000,492.949000,518.724000,492.982000C518.524000,493.063000,518.304000,493.129000,518.089000,493.193000C517.904000,493.246000,517.717000,493.293000,517.527000,493.341000C517.258000,493.402000,516.985000,493.456000,516.706000,493.493000C516.657000,493.498000,516.606000,493.510000,516.557000,493.515000C516.196766,493.556302,515.834584,493.578333,515.472000,493.581000C515.420000,493.581000,515.372000,493.581000,515.315000,493.581000C514.960099,493.579003,514.605572,493.557638,514.253000,493.517000C514.202000,493.512000,514.153000,493.506000,514.101000,493.499000C513.759068,493.455036,513.419869,493.391937,513.085000,493.310000L512.894000,493.261000C512.573456,493.177210,512.258501,493.073338,511.951000,492.950000C511.926000,492.939000,511.899000,492.932000,511.875000,492.921000C511.533285,492.782823,511.204075,492.615541,510.891000,492.421000L393.773000,418.773000C392.710435,418.225589,392.008960,417.165043,391.921000,415.973000L391.931000,419.748000C392.017981,420.939817,392.718804,422.000522,393.781000,422.548000L510.900000,496.192000C511.206762,496.384765,511.528845,496.551994,511.863000,496.692000L511.877000,496.698000C511.907000,496.711000,511.935000,496.718000,511.960000,496.727000C512.180000,496.817000,512.404000,496.899000,512.636000,496.971000C512.722000,496.997000,512.814000,497.015000,512.902000,497.041000L513.095000,497.090000C513.163000,497.107000,513.230000,497.127000,513.295000,497.143000C513.503000,497.189000,513.713000,497.225000,513.925000,497.257000C513.984000,497.268000,514.045000,497.272000,514.106000,497.279000L514.258000,497.297000C514.351000,497.306000,514.444000,497.321000,514.539000,497.330000C514.746000,497.346000,514.952000,497.357000,515.160000,497.363000L515.319000,497.363000L515.476000,497.363000C515.586000,497.363000,515.694000,497.363000,515.804000,497.363000C516.038000,497.354000,516.270000,497.337000,516.504000,497.312000C516.523000,497.312000,516.543000,497.305000,516.563000,497.303000C516.614000,497.297000,516.663000,497.286000,516.714000,497.279000C516.909000,497.253000,517.103000,497.228000,517.296000,497.191000C517.377000,497.175000,517.452000,497.145000,517.533000,497.127000C517.724000,497.085000,517.909000,497.034000,518.095000,496.979000C518.205000,496.946000,518.324000,496.926000,518.432000,496.889000C518.540000,496.852000,518.632000,496.808000,518.732000,496.770000C518.832000,496.732000,518.911000,496.702000,518.998000,496.664000C519.309309,496.534656,519.610198,496.381537,519.898000,496.206000L691.836000,388.787000C691.909000,388.741000,691.980000,388.695000,692.051000,388.648000C692.092000,388.619000,692.125000,388.589000,692.165000,388.560000C692.231000,388.512000,692.297000,388.460000,692.358000,388.413000C692.419000,388.366000,692.492000,388.303000,692.558000,388.244000C692.624000,388.185000,692.672000,388.144000,692.724000,388.090000L692.798000,388.022000C692.822000,387.996000,692.839000,387.969000,692.863000,387.943000C692.949000,387.843000,693.031000,387.751000,693.103000,387.654000C693.123000,387.627000,693.150000,387.601000,693.171000,387.572000C693.192000,387.543000,693.191000,387.537000,693.203000,387.521000C693.257000,387.438000,693.303000,387.358000,693.350000,387.276000C693.370000,387.237000,693.397000,387.203000,693.416000,387.164000L693.431000,387.129000C693.465000,387.059000,693.492000,386.988000,693.519000,386.917000C693.538000,386.869000,693.563000,386.824000,693.578000,386.778000L693.578000,386.758000C693.603000,386.681000,693.617000,386.613000,693.632000,386.547000C693.647000,386.481000,693.662000,386.447000,693.671000,386.391000L693.671000,386.365000C693.683000,386.294000,693.684000,386.224000,693.691000,386.153000C693.691000,386.102000,693.705000,386.053000,693.705000,385.999000L693.705000,385.953000Z" transform="matrix(1 0 0 1 -391.92098999023438 -304.56298828125000)" fill="rgb(9,66,94)" stroke="none" stroke-width="1"/></g><path id="egi85a56lfbd43" d="M440.620000,422.253000L433.520000,417.818000C432.346549,417.035126,430.872557,416.851665,429.543000,417.323000C427.843000,417.981000,427.657000,419.404000,428.991000,420.239000L436.591000,424.987000C437.783989,425.647525,439.216634,425.714443,440.466000,425.168000C441.983000,424.462000,442.049000,423.145000,440.620000,422.253000Z" transform="matrix(1 0 0 1 -366.83801269531250 -275.54800415039063)" fill="rgb(81,127,162)" stroke="none" stroke-width="1"/></g></g><g id="egi85a56lfbd44" transform="matrix(1 0 0 1 357.93701171875000 -77.15699768066406)"><g id="egi85a56lfbd45" style="isolation:isolate"><g id="egi85a56lfbd46" transform="matrix(1 0 0 1 56.64500045776367 91.53600311279297)"><path id="egi85a56lfbd47" d="M472,419.927000C471.635164,419.701182,471.242548,419.523698,470.832000,419.399000C469.652812,419.045824,468.400738,419.013719,467.205000,419.306000C466.675560,419.432170,466.169338,419.641071,465.705000,419.925000C463.961000,421.015000,463.953000,422.785000,465.685000,423.875000C466.292179,424.241645,466.965099,424.486220,467.666000,424.595000C469.146537,424.867703,470.675826,424.612940,471.988000,423.875000C473.731000,422.784000,473.736000,421.017000,472,419.927000Z" transform="matrix(1 0 0 1 -464.39001464843750 -419.10800170898438)" fill="rgb(255,255,255)" stroke="none" stroke-width="1"/></g><g id="egi85a56lfbd48" transform="matrix(1 0 0 1 65.57199859619141 60.11399841308594)"><path id="egi85a56lfbd49" d="M471.740211,401.955000L469.663000,401.955000C469.725387,402.514075,469.745086,403.439642,469.711312,404.225000L471.748485,404.225000C471.697455,403.574147,471.694069,402.645013,471.740211,401.955000Z" transform="matrix(1 0 0 1 -469.66299438476563 -401.95498657226563)" fill="rgb(255,255,255)" stroke="none" stroke-width="1"/></g><g id="egi85a56lfbd50" transform="matrix(1 0 0 1 57.34999847412109 58.82199859619141)"><path id="egi85a56lfbd51" d="M472.423000,402.067000C470.464269,400.977663,468.081731,400.977663,466.123000,402.067000C464.379000,403.157000,464.369000,404.927000,466.103000,406.017000C466.406487,406.205875,466.730171,406.360170,467.068000,406.477000C468.234838,406.868499,469.485431,406.939300,470.689000,406.682000C471.293213,406.559990,471.871751,406.334326,472.399000,406.015000C472.886596,405.733401,473.282199,405.316611,473.538000,404.815000C473.893137,404.029642,473.686006,403.104075,473.030000,402.545000C472.845728,402.363980,472.642181,402.203690,472.423000,402.067000Z" transform="matrix(1 0 0 1 -464.80700683593750 -401.25000000000000)" fill="rgb(255,255,255)" stroke="none" stroke-width="1"/></g><g id="egi85a56lfbd52" transform="matrix(1 0 0 1 87.07299804687500 58.38999938964844)"><path id="egi85a56lfbd53" d="M489.974000,401.833000C489.732714,401.682713,489.478347,401.554526,489.214000,401.450000C488.058724,401.012692,486.805785,400.899952,485.591000,401.124000C484.913579,401.235986,484.263675,401.475925,483.676000,401.831000C483.291052,402.060592,482.959644,402.369838,482.704000,402.738000C482.217505,403.428212,482.252719,404.358540,482.790000,405.010000C483.029195,405.316779,483.322322,405.577374,483.655000,405.779000C485.613682,406.868530,487.996318,406.868530,489.955000,405.779000C491.700000,404.689000,491.708000,402.923000,489.974000,401.833000Z" transform="matrix(1 0 0 1 -482.36199951171875 -401.01400756835938)" fill="rgb(255,255,255)" stroke="none" stroke-width="1"/></g><g id="egi85a56lfbd54" transform="matrix(1 0 0 1 148.21400451660156 33.53099822998047)"><path id="egi85a56lfbd55" d="M518.475000,389.147000L524.600000,393L527.326000,391.300000L521.196000,387.446000Z" transform="matrix(1 0 0 1 -518.47497558593750 -387.44400024414063)" fill="rgb(214,230,237)" fill-opacity="0" stroke="none" stroke-width="1"/></g><g id="egi85a56lfbd56" transform="matrix(1 0 0 1 146.97700500488281 26.61499977111816)"><path id="egi85a56lfbd57" d="M517.744000,385.371000L530.008000,393.082000L532.734000,391.382000L520.470000,383.671000Z" transform="matrix(1 0 0 1 -517.74401855468750 -383.66799926757813)" fill="rgb(214,230,237)" fill-opacity="0" stroke="none" stroke-width="1"/></g><g id="egi85a56lfbd58" transform="matrix(1 0 0 1 154.83000183105469 25.41500091552734)"><path id="egi85a56lfbd59" d="M522.383000,384.716000L531.690000,390.568000L534.416000,388.868000L525.109000,383.016000Z" transform="matrix(1 0 0 1 -522.38299560546875 -383.01300048828125)" fill="rgb(214,230,237)" fill-opacity="0" stroke="none" stroke-width="1"/></g><g id="egi85a56lfbd60" transform="matrix(1 0 0 1 153.36799621582031 24.58799934387207)"><path id="egi85a56lfbd61" d="M521.519000,399.268000L524.839000,401.356000L551.582000,384.650000L548.262000,382.562000Z" transform="matrix(1 0 0 1 -521.51898193359375 -382.56201171875000)" fill="rgb(214,230,237)" stroke="none" stroke-width="1"/></g><g id="egi85a56lfbd62" transform="matrix(1 0 0 1 88.03600311279297 24.74699974060059)"><path id="egi85a56lfbd63" d="M490.548000,383.466000C489.143151,382.678528,487.495257,382.442860,485.926000,382.805000C485.332480,382.929226,484.764171,383.152695,484.245000,383.466000C482.501000,384.556000,482.491000,386.326000,484.225000,387.416000C484.575212,387.632876,484.951115,387.805207,485.344000,387.929000C486.520300,388.289622,487.771271,388.331378,488.969000,388.050000C489.519232,387.923413,490.045589,387.709359,490.528000,387.416000C492.272000,386.326000,492.282000,384.556000,490.548000,383.466000Z" transform="matrix(1 0 0 1 -482.93099975585938 -382.64898681640625)" fill="rgb(255,255,255)" stroke="none" stroke-width="1"/></g><g id="egi85a56lfbd64" transform="matrix(1 0 0 1 151.78999328613281 17.36300086975098)"><path id="egi85a56lfbd65" d="M520.587000,380.318000L537.835000,391.163000L540.557000,389.463000L523.309000,378.618000Z" transform="matrix(1 0 0 1 -520.58697509765625 -378.61801147460938)" fill="rgb(214,230,237)" fill-opacity="0" stroke="none" stroke-width="1"/></g><g id="egi85a56lfbd66" transform="matrix(1 0 0 1 59.39799880981445 12.83500003814697)"><path id="egi85a56lfbd67" d="M497.649000,388.214000C499.218257,387.851860,500.866151,388.087528,502.271000,388.875000C504.005000,389.965000,503.995000,391.735000,502.251000,392.825000C501.768589,393.118359,501.242232,393.332413,500.692000,393.459000L500.543000,422.137000C500.807350,422.241521,501.061717,422.369708,501.303000,422.520000C503.037000,423.610000,503.032000,425.376000,501.286000,426.466000C499.327269,427.555337,496.944731,427.555337,494.986000,426.466000C494.653322,426.264374,494.360195,426.003779,494.121000,425.697000L472.700000,425.697000C472.444199,426.198611,472.048596,426.615401,471.561000,426.897000C471.033751,427.216326,470.455213,427.441990,469.851000,427.564000L469.709000,455.137000C470.119580,455.261613,470.512207,455.439102,470.877000,455.665000C472.611000,456.755000,472.606000,458.523000,470.862000,459.613000C469.549826,460.350940,468.020537,460.605703,466.540000,460.333000L466.018000,470.133000L469.531000,472.342000L560.200000,415.700000L497.289000,376.144000Z" transform="matrix(1 0 0 1 -466.95846988093751 -375.76191910875002)" fill="rgb(9,66,94)" stroke="none" stroke-width="1"/></g><g id="egi85a56lfbd68" transform="matrix(1 0 0 1 0 12.83500003814697)"><path id="egi85a56lfbd69" d="M520.283000,388.876000C520.802145,388.562643,521.370463,388.339170,521.964000,388.215000L521.608000,376.147000L430.932000,432.790000L490.332000,470.138000L490.854000,460.338000C490.153093,460.229245,489.480168,459.984668,488.873000,459.618000C487.141000,458.528000,487.149000,456.758000,488.893000,455.668000C489.357323,455.384041,489.863550,455.175139,490.393000,455.049000L490.540000,427.364000C490.202180,427.247146,489.878499,427.092853,489.575000,426.904000C487.841000,425.814000,487.851000,424.044000,489.595000,422.954000C491.553731,421.864663,493.936269,421.864663,495.895000,422.954000C496.113643,423.089482,496.316846,423.248423,496.501000,423.428000L518.343000,423.428000C518.598644,423.059838,518.930052,422.750592,519.315000,422.521000C519.902675,422.165925,520.552579,421.925986,521.230000,421.814000L521.377000,393.341000C520.984119,393.217197,520.608216,393.044867,520.258000,392.828000C518.529000,391.735000,518.539000,389.966000,520.283000,388.876000Z" transform="matrix(1 0 0 1 -430.43755964101558 -376.14599609375000)" fill="rgb(9,66,94)" stroke="none" stroke-width="1"/></g><g id="egi85a56lfbd70" transform="matrix(1 0 0 1 150.85600280761719 10.63800048828125)"><path id="egi85a56lfbd71" d="M517.392999,374.428858L542.835269,391.159000L545.836000,389.199157L520.393730,372.469016Z" transform="matrix(1 0 0 1 -520.03497314453125 -374.08999266929686)" fill="rgb(214,230,237)" fill-opacity="0" stroke="none" stroke-width="1"/></g><g id="egi85a56lfbd72" transform="matrix(1 0 0 1 119.61499786376953 3.45600008964539)"><path id="egi85a56lfbd73" d="M501.583000,392.944000L540.068000,417.144000L575.155000,395.224000L536.672000,371.024000ZM531.670000,394.184000L543.935000,401.896000L541.207000,403.596000L528.944000,395.884000ZM533.758000,386.633000L536.481000,384.933000L553.728000,395.778000L551.007000,397.478000ZM548.831000,398.833000L546.105000,400.533000L536.798000,394.680000L539.524000,392.980000ZM532.908000,401.100000L539.037000,404.954000L536.311000,406.654000L530.182000,402.800000ZM565.400000,394.245000L538.656000,410.945000L535.336000,408.858000L562.078000,392.151000ZM555.900000,394.417000L532.820000,379.905000L535.543000,378.205000L558.623000,392.717000Z" transform="matrix(1 0 0 1 -501.58300781250000 -371.02600097656250)" fill="rgb(9,66,94)" stroke="none" stroke-width="1"/></g><g id="egi85a56lfbd74" transform="matrix(1 0 0 1 59.46200180053711 64.04900360107422)"><path id="egi85a56lfbd75" d="M466.200000,427.842885L466.053000,431.864491C467.248738,431.822033,468.500812,431.826697,469.680000,431.878000L469.822000,427.872664C468.618111,427.910067,467.367147,427.899782,466.200000,427.842885Z" transform="matrix(1 0 0 1 -466.05398559570313 -404.10299682617188)" fill="rgb(255,255,255)" stroke="none" stroke-width="1"/></g><g id="egi85a56lfbd76" transform="matrix(1 0 0 1 90.30100250244141 30.02700042724609)"><path id="egi85a56lfbd77" d="M484.416000,412.398299L484.269000,414.304176C485.483785,414.289177,486.736724,414.296724,487.892000,414.326000L488.041000,412.406131C486.843624,412.425055,485.592656,412.422352,484.416000,412.398299Z" transform="matrix(1 0 0 1 -483.96449914117187 -385.53100491937505)" fill="rgb(255,255,255)" stroke="none" stroke-width="1"/></g><g id="egi85a56lfbd78" transform="matrix(1 0 0 1 110.38200378417969 9.83899974822998)"><path id="egi85a56lfbd79" d="M496.147000,374.552000L496.187000,374.527000L496.129000,374.511000Z" transform="matrix(1 0 0 1 -496.13000488281250 -374.51098632812500)" fill="rgb(84,152,180)" stroke="none" stroke-width="1"/></g><g id="egi85a56lfbd80" transform="matrix(1 0 0 1 124.84100341796875 0)"><path id="egi85a56lfbd81" d="M504.700000,369.340000L504.957000,369.179000L504.670000,369.139000Z" transform="matrix(1 0 0 1 -504.67001342773438 -369.14001464843750)" fill="rgb(9,66,94)" stroke="none" stroke-width="1"/></g></g></g><ellipse id="egi85a56lfbd82" style="mix-blend-mode:multiply;isolation:isolate" rx="27.479000" ry="17.874001" transform="matrix(1 0 0 1 471.32000350952148 -77.43499755859375)" fill="url(#egi85a56lfbd82-fill)" stroke="none" stroke-width="1"/><g id="egi85a56lfbd83" transform="matrix(1 0 0 1 452.69500732421875 -105.83999633789063)"><path id="egi85a56lfbd84" d="M515.107000,354.470000C515.007000,354.450000,514.917000,354.426000,514.819000,354.406000C514.760000,354.391000,514.699000,354.382000,514.643000,354.369000C505.204000,352.380000,494.385000,353.735000,486.900000,358.441000L506.400000,370.557000L527.626000,360.278000C528.126000,360.678000,528.587000,361.095000,529.018000,361.516000C527.840225,360.344541,526.531627,359.312426,525.118000,358.440000C522.027350,356.564414,518.643089,355.222339,515.107000,354.470000Z" transform="matrix(1 0 0 1 -486.90100097656250 -353.48199462890625)" fill="rgb(81,127,162)" stroke="none" stroke-width="1"/></g><path id="egi85a56lfbd85" d="M527.076000,365.868000C526.853929,366.852626,526.467518,367.792790,525.933000,368.649000C524.384096,371.249207,522.208120,373.419683,519.604000,374.962000C512.952000,379.144000,503.669000,380.677000,495.061000,379.573000L495.046000,385.221000Q495.925000,385.331000,496.812000,385.406000L496.812000,385.446000C496.944000,385.459000,497.076000,385.472000,497.212000,385.483000C497.766000,385.531000,498.319000,385.565000,498.871000,385.591000C500.954670,385.686899,503.042563,385.630416,505.118000,385.422000C510.669299,384.966803,516.023820,383.155064,520.711000,380.146000Q521.117000,379.869000,521.511000,379.576000L521.569000,379.534000L521.569000,379.221000L521.569000,379.221000L521.569000,379.534000C522.438437,378.882669,523.251629,378.159460,524,377.372000L524.066000,377.302000C524.678000,376.651215,525.232410,375.948583,525.723000,375.202000C525.892000,374.944000,526.053000,374.684000,526.202000,374.418000C526.322000,374.207000,526.436000,373.993000,526.542000,373.777000L526.542000,373.772000Q526.742000,373.372000,526.906000,372.964000L526.906000,372.726000L526.906000,372.964000C526.957000,372.845000,527.006000,372.724000,527.048000,372.603000L527.048000,372.603000C527.085000,372.503000,527.121000,372.403000,527.155000,372.308000C527.179000,372.238000,527.201000,372.169000,527.224000,372.101000Q527.303000,371.854000,527.371000,371.606000L527.410000,371.459000C527.415073,371.374743,527.415073,371.290257,527.410000,371.206000L527.410000,370.946000C527.548849,370.265314,527.620858,369.572690,527.625000,368.878000L527.457000,362.419000C527.389926,363.574498,527.262754,364.725722,527.076000,365.868000Z" transform="matrix(1 0 0 1 -28.56100082397461 -451.88400268554688)" fill="rgb(244,175,153)" stroke="none" stroke-width="1"/><g id="egi85a56lfbd86" transform="matrix(1 0 0 1 472.19900512695313 -99.04299926757813)"><path id="egi85a56lfbd87" d="M521.279000,358.672000C521.203000,358.590000,521.118000,358.511000,521.039000,358.430000C520.609000,358.009000,520.147000,357.595000,519.647000,357.192000L498.421000,367.471000L523.600000,373C526.212000,368.338000,525.462000,363.100000,521.358000,358.750000Z" transform="matrix(1 0 0 1 -498.42098999023438 -357.19198608398438)" fill="rgb(81,127,162)" stroke="none" stroke-width="1"/></g><g id="egi85a56lfbd88" transform="matrix(1 0 0 1 444.82501220703125 -88.98400115966797)"><path id="egi85a56lfbd89" d="M482.267000,362.683000L482.253000,368.329000C482.241000,372.692000,484.903000,377.061000,490.232000,380.390000C494.413398,382.881160,499.077632,384.452722,503.914000,385L503.929000,379.352000C499.092111,378.805005,494.427425,377.233064,490.246000,374.741000C484.916000,371.416000,482.256000,367.045000,482.267000,362.683000Z" transform="matrix(1 0 0 1 -482.25299072265625 -362.68301391601563)" fill="rgb(0,45,66)" stroke="none" stroke-width="1"/></g><g id="egi85a56lfbd90" transform="matrix(1 0 0 1 444.83898925781250 -100.87999725341797)"><path id="egi85a56lfbd91" d="M490.240000,380.146000C494.421425,382.638064,499.086111,384.210005,503.923000,384.757000L509.623000,368.305000L490.123000,356.189000C479.600000,362.800000,479.648000,373.530000,490.240000,380.146000Z" transform="matrix(1 0 0 1 -481.66422744812496 -356.18899536132813)" fill="rgb(81,127,162)" stroke="rgba(0,0,0,0)" stroke-width="1"/></g><g id="egi85a56lfbd92" transform="matrix(1 0 0 1 466.48001098632813 -72.29000091552734)"><path id="egi85a56lfbd93" d="M495.043000,377.444000C495.492000,377.504000,495.943000,377.559000,496.387000,377.605000C496.392000,375.724000,496.401000,373.840000,496.401000,371.959000C495.954000,371.911000,495.501000,371.859000,495.057000,371.796000Z" transform="matrix(1 0 0 1 -495.04299926757813 -371.79598999023438)" fill="rgb(244,175,153)" stroke="none" stroke-width="1"/></g><g id="egi85a56lfbd94" transform="matrix(1 0 0 1 467.82400512695313 -72.12699890136719)"><path id="egi85a56lfbd95" d="M495.837000,377.531000C495.981000,377.547000,496.123000,377.560000,496.265000,377.573000Q496.270000,374.751000,496.279000,371.927000C496.137000,371.914000,495.995000,371.900000,495.851000,371.885000C495.850000,373.766000,495.842000,375.649000,495.837000,377.531000Z" transform="matrix(1 0 0 1 -495.83700561523438 -371.88500976562500)" fill="rgb(244,175,153)" stroke="none" stroke-width="1"/></g><g id="egi85a56lfbd96" transform="matrix(1 0 0 1 466.50201416015625 -88.76399993896484)"><path id="egi85a56lfbd97" d="M495.056000,379.255000C503.664000,380.355000,512.947000,378.826000,519.599000,374.644000C522.203120,373.101683,524.379096,370.931207,525.928000,368.331000L500.753000,362.800000Z" transform="matrix(1 0 0 1 -495.05699267585942 -363.14796152320309)" fill="rgb(81,127,162)" stroke="none" stroke-width="1"/></g><path id="egi85a56lfbd98" d="M527.168000,365.289000C526.947313,366.470087,526.530200,367.605825,525.934000,368.649000C524.385096,371.249207,522.209120,373.419683,519.605000,374.962000C512.953000,379.144000,503.670000,380.677000,495.062000,379.573000L495.047000,385.221000Q495.926000,385.331000,496.813000,385.406000L496.813000,385.446000C496.945000,385.459000,497.077000,385.472000,497.213000,385.483000C497.767000,385.531000,498.320000,385.565000,498.872000,385.591000C500.955670,385.686899,503.043563,385.630416,505.119000,385.422000C510.670299,384.966803,516.024820,383.155064,520.712000,380.146000Q521.118000,379.869000,521.512000,379.576000L521.570000,379.534000L521.570000,379.221000L521.570000,379.221000L521.570000,379.534000C522.439437,378.882669,523.252629,378.159460,524.001000,377.372000L524.067000,377.302000C524.679000,376.651215,525.233410,375.948583,525.724000,375.202000C525.893000,374.944000,526.054000,374.684000,526.203000,374.418000C526.323000,374.207000,526.437000,373.993000,526.543000,373.777000L526.543000,373.772000Q526.743000,373.372000,526.907000,372.964000L526.907000,372.726000L526.907000,372.964000C526.958000,372.845000,527.007000,372.724000,527.049000,372.603000L527.049000,372.603000C527.086000,372.503000,527.122000,372.403000,527.156000,372.308000C527.180000,372.238000,527.202000,372.169000,527.225000,372.101000Q527.304000,371.854000,527.372000,371.606000L527.411000,371.459000C527.416073,371.374743,527.416073,371.290257,527.411000,371.206000L527.411000,370.946000C527.549849,370.265314,527.621858,369.572690,527.626000,368.878000L527.458000,362.419000C527.421338,363.380782,527.324482,364.339325,527.168000,365.289000Z" transform="matrix(1 0 0 1 -28.56100082397461 -451.88400268554688)" fill="rgb(81,127,162)" stroke="none" stroke-width="1"/><path id="egi85a56lfbd99" d="M514.600000,365.289000C514.379331,366.470092,513.962217,367.605833,513.366000,368.649000C513.313000,368.742000,513.239000,368.832000,513.183000,368.926000L513.183000,375.153000C513.340000,374.913000,513.489000,374.671000,513.628000,374.424000C513.748000,374.213000,513.862000,373.999000,513.968000,373.783000L513.968000,373.778000Q514.168000,373.378000,514.332000,372.970000C514.383000,372.851000,514.432000,372.730000,514.474000,372.609000L514.474000,372.609000C514.511000,372.509000,514.547000,372.409000,514.581000,372.314000C514.605000,372.244000,514.627000,372.175000,514.651000,372.105000C514.703000,371.942000,514.751000,371.777000,514.798000,371.612000C514.811000,371.563000,514.825000,371.512000,514.837000,371.465000C514.841248,371.380720,514.841248,371.296280,514.837000,371.212000L514.837000,370.952000C514.975849,370.271314,515.047858,369.578690,515.052000,368.884000L514.884000,362.425000C514.849196,363.384658,514.754344,364.341196,514.600000,365.289000Z" transform="matrix(1 0 0 1 -15.99199962615967 -451.88400268554688)" fill="rgb(81,127,162)" stroke="none" stroke-width="1"/><path id="egi85a56lfbd100" d="M482.267000,362.683000L482.253000,368.329000C482.241000,372.692000,484.903000,377.061000,490.232000,380.390000C494.413398,382.881160,499.077632,384.452722,503.914000,385L503.929000,379.352000C499.092111,378.805005,494.427425,377.233064,490.246000,374.741000C484.916000,371.416000,482.256000,367.045000,482.267000,362.683000Z" transform="matrix(1 0 0 1 -37.42800140380859 -451.66699218750000)" fill="rgb(81,127,162)" stroke="rgba(0,0,0,0)" stroke-width="1"/><g id="egi85a56lfbd101"><path id="egi85a56lfbd102" d="M481.070000,414.095622L471,413.701007L470.992000,413.701949L470.967000,413.701007L470.967000,413.701007L463.460000,414.671406L467,414.802395L467.269000,419.855823L477.369000,420.230000L485.382000,419.935511L485.103000,414.620695L488.635000,414.511263ZM470.984000,413.701714L470.989000,413.702008Z" transform="matrix(1 0 0 1 -50.45299911499023 -496.01501464843750)" fill="rgb(213,224,238)" stroke="none" stroke-width="1"/><g id="egi85a56lfbd103" transform="matrix(1 0 0 1 423.11099243164063 -179.93899536132813)"><path id="egi85a56lfbd104" d="M476.934000,411.331885L469.427000,412.310465L472.960000,412.179382L473.241000,417.539000L481.255000,417.241672L480.974000,411.882054L484.507000,411.750971Z" transform="matrix(1 0 0 1 -468.34800262312501 -313.36061544945312)" fill="rgb(255,255,255)" stroke="none" stroke-width="1"/></g></g><g id="egi85a56lfbd105"><path id="egi85a56lfbd106" d="M464.064000,416.037523L455.780000,416.394806L455.980000,421.164387L466.080000,421.603000L474.364000,421.245716L474.164000,416.476136Z" transform="matrix(1 0 0 1 -55.77097704656251 -469.30851245523434)" fill="rgb(213,224,238)" stroke="none" stroke-width="1"/><g id="egi85a56lfbd107" transform="matrix(1 0 0 1 410.10900878906250 -122.36699676513672)"><path id="egi85a56lfbd108" d="M461.748000,413.681762L461.948000,418.718000L470.232000,418.340741L470.032000,413.304503Z" transform="matrix(1 0 0 1 -461.74798583984375 -344.45901489257813)" fill="rgb(255,255,255)" stroke="none" stroke-width="1"/></g></g><g id="egi85a56lfbd109"><path id="egi85a56lfbd110" d="M454.268000,418.709551L445.984000,418.920475L446.152000,421.216022L456.252000,421.475000L464.536000,421.264076L464.368000,418.968529Z" transform="matrix(1 0 0 1 -62.56499862670898 -459.20199584960938)" fill="rgb(213,224,238)" stroke="none" stroke-width="1"/></g><g id="egi85a56lfbd111" transform="matrix(1 0 0 1 393.52398681640625 -99.22299957275391)"><path id="egi85a56lfbd112" d="M451.952000,416.057266L452.120000,418.590000L460.404000,418.357282L460.236000,415.824549Z" transform="matrix(1 0 0 1 -451.95199584960938 -357.09399414062500)" fill="rgb(255,255,255)" stroke="none" stroke-width="1"/></g><g id="egi85a56lfbd113"><path id="egi85a56lfbd114" d="M444.479000,417.699503L436.195000,417.926643L436.322000,419.707112L446.422000,419.986000L454.706000,419.758860L454.579000,417.978391Z" transform="matrix(1 0 0 1 -69.34899902343750 -447.33401489257813)" fill="rgb(213,224,238)" stroke="none" stroke-width="1"/></g><g id="egi85a56lfbd115" transform="matrix(1 0 0 1 376.95098876953125 -73.08799743652344)"><path id="egi85a56lfbd116" d="M442.163000,415.072168L442.290000,417.100000L450.574000,416.841303L450.447000,414.813471Z" transform="matrix(1 0 0 1 -442.16299438476563 -371.35998535156250)" fill="rgb(255,255,255)" stroke="none" stroke-width="1"/></g><path id="egi85a56lfbd117" style="mix-blend-mode:multiply;isolation:isolate" d="M433.090000,398.723000L431.290000,399.371000C424.970000,398.771000,420.073000,400.910000,415.707000,405.850000C405.545000,417.350000,427.333000,415.127000,434.324000,414.273000C449.738000,412.392000,447.200000,394,433.090000,398.723000Z" transform="matrix(1 0 0 1 -85.38600158691406 -422.32901000976563)" opacity="0.10000000149011612" fill="rgb(108,144,177)" stroke="none" stroke-width="1"/><path id="egi85a56lfbd118" d="M425.127000,405.354000L421.614000,401.170000L416.736000,402.042000L416.736000,404.442000C416.719250,405.098787,417.026140,405.721912,417.557000,406.109000L423.704000,410.181000C423.704000,410.181000,426.467000,411.090000,427.468000,408.593000L427.443000,408.428000C427.274000,407.314000,425.794000,406.156000,425.127000,405.354000Z" transform="matrix(1 0 0 1 -82.83499908447266 -419.65100097656250)" fill="rgb(13,52,58)" stroke="none" stroke-width="1"/><path id="egi85a56lfbd119" d="M431.425000,402L428.261000,397.891000L423.861000,398.748000L423.861000,401.102000C423.838251,401.733618,424.112003,402.339573,424.601000,402.740000L427.567000,404.055000C427.567000,404.055000,430.750000,406.855000,432.148000,406.250000C433.377000,405.718000,434.415000,404.058000,431.425000,402Z" transform="matrix(1 0 0 1 -77.89499664306641 -422.37600708007813)" fill="rgb(13,52,58)" stroke="none" stroke-width="1"/><path id="egi85a56lfbd120" d="M434.152000,381.400000C434.045000,378.885000,434.152000,369.495000,434.152000,369.495000C432.234000,370.686000,431.430000,369.477000,429.599000,370.449000C424.670000,373.070000,415.514000,372.297000,415.399000,368.849000L416.748000,402.184000L417.642000,429.373000C423.060000,432.024000,423.307000,428.622000,423.307000,428.622000L425.794000,385.406000L429.674000,423.575000C434.638000,425.158000,434.249000,422.575000,434.249000,422.575000C434.612000,387.942000,434.429000,387.949000,434.152000,381.400000Z" transform="matrix(1 0 0 1 -83.76399993896484 -446.53500366210938)" fill="rgb(86,90,206)" stroke="rgba(0,0,0,0)" stroke-width="1"/><path id="egi85a56lfbd121" style="mix-blend-mode:multiply;isolation:isolate" d="M421.172000,395.062000C420.472000,404.535000,419.496000,415.337000,418.192000,424.716000C419.537358,424.817092,420.803534,424.070312,421.366000,422.844000L423.917000,378.656000C423.917000,378.656000,425.901000,377.081000,427.474000,375.800000C425.782202,376.478299,424.025843,376.982892,422.232000,377.306000C420.438157,377.629108,421.368000,392.400000,421.172000,395.062000Z" transform="matrix(1 0 0 1 -81.82599639892578 -440.75500488281250)" opacity="0.10000000149011612" fill="rgb(108,144,177)" stroke="none" stroke-width="1"/><path id="egi85a56lfbd122" style="mix-blend-mode:multiply;isolation:isolate" d="M427.464000,371.276000C427.092000,372.056000,425.434000,384.160000,425.180000,402.160000C425.119000,406.474000,425.160000,413.485000,425.170000,417.799000C425.200643,419.319048,425.133840,420.839497,424.970000,422.351000C426.073807,422.174863,427.042802,421.518613,427.616000,420.559000C427.982000,385.926000,427.799000,385.933000,427.521000,379.382000C427.483000,378.534000,427.464000,373.062000,427.464000,371.276000Z" transform="matrix(1 0 0 1 -77.13099670410156 -444.51901245117188)" opacity="0.10000000149011612" fill="rgb(108,144,177)" stroke="none" stroke-width="1"/><g id="egi85a56lfbd123" transform="matrix(1 0 0 1 347.73599243164063 -108.55599975585938)"><path id="egi85a56lfbd124" d="M429.831000,372.206000L428.248000,373.006000C427.666429,373.849348,427.411902,374.875632,427.532000,375.893000L427.654000,377.016000L427.864000,378.806000L427.536000,380.552000C427.536000,380.552000,427.436000,381.697000,428.289000,381.452000L428.739000,380.073000L428.646000,381.220000C428.646000,381.220000,427.932000,382.676000,429.108000,382.820000L429.315000,382.459000C429.427615,382.785907,429.771665,382.972268,430.107000,382.888000C430.616077,381.792754,430.950786,380.624648,431.099000,379.426000C431.292117,379.621536,431.567454,379.712323,431.839000,379.670000L431.778000,375.880000Z" transform="matrix(1 0 0 1 -422.71292262617186 -335.24882458632811)" fill="rgb(223,152,119)" stroke="none" stroke-width="1"/><path id="egi85a56lfbd125" d="M428.475000,352.007000C424.324000,352.333000,424.940000,359.818000,424.940000,359.818000L426.073000,375.081000L428.883000,390.581000C430.142880,391.114987,431.603426,390.632986,432.298000,389.454000L431.172000,373.423000L432.325000,360.250000C432.325000,360.250000,432.325000,351.700000,428.475000,352.007000Z" transform="matrix(1 0 0 1 -424.90798950195313 -351.99899291992188)" fill="rgb(81,127,162)" stroke="none" stroke-width="1"/><path id="egi85a56lfbd126" style="mix-blend-mode:multiply;isolation:isolate" d="M429.140000,360.237000C429.146053,359.493073,429.227130,358.751653,429.382000,358.024000C428.254376,358.646645,426.983986,358.964760,425.696000,358.947000C425.496000,358.947000,425.302000,358.929000,425.107000,358.916000L425.935000,370.068000L428.745000,385.568000C429.741587,385.991317,430.895124,385.771351,431.666000,385.011000C428.480000,370.986000,429.123000,363.474000,429.140000,360.237000Z" transform="matrix(1 0 0 1 -424.76998901367188 -346.98599243164063)" opacity="0.10000000149011612" fill="rgb(108,144,177)" stroke="none" stroke-width="1"/></g><path id="egi85a56lfbd127" d="M433.390000,351.118000L430.637000,350.530000L427.308000,350.453000L421.445000,353.016000C418.753723,353.822542,416.834155,356.199262,416.612000,359L415.138000,388.600000C415.138000,388.600000,414.830000,390.463000,423.718000,391.047000C427.444944,391.263939,431.167254,390.549445,434.549000,388.968000C434.813000,383.780000,434.011000,379.312000,435.096000,374.234000C436.457000,367.859000,437.910000,361.973000,437.945000,355.498000C436.458837,354.685098,435.111629,353.640683,433.954000,352.404000C433.634980,352.045606,433.437555,351.595450,433.390000,351.118000Z" transform="matrix(1 0 0 1 -83.94400024414063 -461.84100341796875)" fill="rgb(81,127,162)" stroke="none" stroke-width="1"/><path id="egi85a56lfbd128" d="M422.307000,353.410000C421.885829,355.402901,423.107098,357.374467,425.079000,357.885000C426.027887,358.054943,427.005065,357.831131,427.785392,357.265129C428.565719,356.699128,429.081897,355.839752,429.215000,354.885000L430.327000,348.774000L423.927000,347.409000Z" transform="matrix(1 0 0 1 -79.02100372314453 -464.37500000000000)" fill="rgb(223,152,119)" stroke="none" stroke-width="1"/><path id="egi85a56lfbd129" style="mix-blend-mode:multiply;isolation:isolate" d="M425.976000,348.041000C424.873751,350.300345,423.638240,352.492207,422.276000,354.605000C422.484866,356.099098,423.584945,357.314140,425.051000,357.670000C425.999887,357.839943,426.977065,357.616131,427.757392,357.050129C428.537719,356.484128,429.053897,355.624752,429.187000,354.670000L430.299000,348.559000L426.136000,347.671000C426.082000,347.792000,426.035000,347.916000,425.976000,348.041000Z" transform="matrix(1 0 0 1 -78.99400329589844 -464.15899658203125)" opacity="0.10000000149011612" fill="rgb(108,144,177)" stroke="none" stroke-width="1"/><path id="egi85a56lfbd130" d="M423.400000,349.607000L421.422000,351.822000C422.345000,357.056000,426.161000,358.598000,426.161000,358.598000L427.541000,355.885000C423.723000,354.053000,423.400000,349.607000,423.400000,349.607000Z" transform="matrix(1 0 0 1 -79.58399963378906 -462.54501342773438)" fill="rgb(255,255,255)" stroke="none" stroke-width="1"/><path id="egi85a56lfbd131" d="M425.041000,354.688000C425.725018,355.436262,426.307372,356.271462,426.773000,357.172000C427.238628,358.072538,428.507000,352.792000,427.421000,351.046000C427.291185,352.583188,426.396729,353.951931,425.041000,354.688000Z" transform="matrix(1 0 0 1 -77.08000183105469 -461.34799194335938)" fill="rgb(255,255,255)" stroke="none" stroke-width="1"/><path id="egi85a56lfbd132" d="M425.931000,353.300000L425.205000,353.410000L424.359000,355.073000L425.216000,356.819000L426.688000,356.870000L427.243000,355.287000L426.667000,354.266000Z" transform="matrix(1 0 0 1 -77.55200195312500 -459.46899414062500)" fill="rgb(253,214,99)" stroke="none" stroke-width="1"/><g id="egi85a56lfbd133" transform="matrix(1 0 0 1 342.77200317382813 -126.76300048828125)"><path id="egi85a56lfbd134" d="M422.524000,350.500000C421.711000,353.477000,425.895000,356.540000,426.178000,356.700000C428.311000,357.920000,430.600000,356.676000,431.427000,353.644000L433.509000,346.014000L423.476000,344.809000Z" transform="matrix(1 0 0 1 -421.66900634765625 -339.77301025390625)" fill="rgb(223,152,119)" stroke="none" stroke-width="1"/><path id="egi85a56lfbd135" d="M423.622000,343.874000C422.115000,345.021000,422.046000,348.280000,421.985000,349.800000C421.912369,351.886512,422.407288,353.953628,423.417000,355.781000L424.705000,350.769000L425.035000,351.740000L425.677000,351.493000C425.677000,351.493000,426.237000,349.102000,426.353000,348.751000C426.742000,347.551000,433.488000,349.511000,433.488000,349.511000C433.488000,349.511000,436.815000,348.971000,433.456000,344.851000C430.377000,341.075000,426.708000,341.522000,423.622000,343.874000Z" transform="matrix(1 0 0 1 -421.97601318359375 -342.05999755859375)" fill="rgb(0,45,66)" stroke="none" stroke-width="1"/><path id="egi85a56lfbd136" d="M422.775000,346.994000C422.331000,347.980000,422.856000,350.039000,423.781000,349.773000L424.433000,347.665000C424.433000,347.665000,423.569000,345.232000,422.775000,346.994000Z" transform="matrix(1 0 0 1 -421.53298950195313 -338.48800659179688)" fill="rgb(223,152,119)" stroke="none" stroke-width="1"/></g><g id="egi85a56lfbd137" transform="matrix(1 0 0 1 328.03900146484375 -112.27999877929688)"><path id="egi85a56lfbd138" d="M423.621000,352.422000C419.686000,350.958000,417.162000,357.922000,417.162000,357.922000L413.471000,371.963000C413.201981,372.942414,413.208555,373.977084,413.490000,374.953000C414,376.636000,415.271000,378.796000,418.415000,378.053000L419.678000,374.946000L423.578000,361.918000C423.578000,361.918000,426.627000,353.539000,423.621000,352.422000Z" transform="matrix(1 0 0 1 -413.27398681640625 -348.09100341796875)" fill="rgb(81,127,162)" stroke="none" stroke-width="1"/><path id="egi85a56lfbd139" style="mix-blend-mode:multiply;isolation:isolate" d="M417.100000,372.700000L421,359.672000C421.541555,358.124791,421.947747,356.533482,422.214000,354.916000C421.787000,355.641000,418.214000,364.857000,417.622000,367.050000C416.618000,370.810000,417.100000,372.700000,417.100000,372.700000Z" transform="matrix(1 0 0 1 -410.70001220703125 -345.84500122070313)" opacity="0.10000000149011612" fill="rgb(108,144,177)" stroke="none" stroke-width="1"/><path id="egi85a56lfbd140" d="M429.731000,351.873000C428.924459,352.594642,428.082057,353.275172,427.207000,353.912000C426.237000,354.564000,425.431000,352.890000,425.431000,352.890000L425.099000,350.690000C424.813729,350.275606,424.357396,350.011277,423.856000,349.970000L423.963000,353.024000L422.703000,357.761000L425.662000,360.820000L428.601000,359.175000C429.049644,358.909424,429.300303,358.404972,429.241000,357.887000L428.902000,354.423000L429.825000,353.164000L431.225000,351.264000C430.361000,350.636000,429.731000,351.873000,429.731000,351.873000Z" transform="matrix(1 0 0 1 -406.73800659179688 -349.96600341796875)" fill="rgb(223,152,119)" stroke="none" stroke-width="1"/><path id="egi85a56lfbd141" d="M428.418000,354.219000C420.095000,368.848000,414.457000,371.470000,414.457000,371.470000L417.594000,376.394000C425.020000,373.641000,431.673000,357.594000,431.673000,357.594000C431.577751,355.816308,430.191081,354.378516,428.418000,354.219000Z" transform="matrix(1 0 0 1 -412.45300292968750 -346.42800903320313)" fill="rgb(81,127,162)" stroke="none" stroke-width="1"/><path id="egi85a56lfbd142" style="mix-blend-mode:multiply;isolation:isolate" d="M428.480000,354.439000C427.182506,359.966751,424.913974,365.220264,421.780000,369.955000C420.104016,372.165302,418.275558,374.255732,416.308000,376.211000C423.734000,373.458000,430.388000,357.416000,430.388000,357.416000C430.300363,356.163529,429.581394,355.041740,428.480000,354.439000Z" transform="matrix(1 0 0 1 -411.16900634765625 -346.24499511718750)" opacity="0.10000000149011612" fill="rgb(108,144,177)" stroke="none" stroke-width="1"/></g></g></g><script><![CDATA[!function(t,n){"object"==typeof exports&&"undefined"!=typeof module?module.exports=n():"function"==typeof define&&define.amd?define(n):(t=t||self).__SVGATOR_PLAYER__=n()}(this,(function(){"use strict";function t(n){return(t="function"==typeof Symbol&&"symbol"==typeof Symbol.iterator?function(t){return typeof t}:function(t){return t&&"function"==typeof Symbol&&t.constructor===Symbol&&t!==Symbol.prototype?"symbol":typeof t})(n)}function n(t,n){if(!(t instanceof n))throw new TypeError("Cannot call a class as a function")}function r(t,n){for(var r=0;r<n.length;r++){var e=n[r];e.enumerable=e.enumerable||!1,e.configurable=!0,"value"in e&&(e.writable=!0),Object.defineProperty(t,e.key,e)}}function e(t,n,e){return n&&r(t.prototype,n),e&&r(t,e),t}var i=1e-5,u=Math.abs;function o(t){return t}function a(t,n,r){var e=1-r;return 3*r*e*(t*e+n*r)+r*r*r}function l(){var t=arguments.length>0&&void 0!==arguments[0]?arguments[0]:0,n=arguments.length>1&&void 0!==arguments[1]?arguments[1]:0,r=arguments.length>2&&void 0!==arguments[2]?arguments[2]:1,e=arguments.length>3&&void 0!==arguments[3]?arguments[3]:1;return t<0||t>1||r<0||r>1?null:u(t-n)<=i&&u(r-e)<=i?o:function(o){if(o<=0)return t>0?o*n/t:0===n&&r>0?o*e/r:0;if(o>=1)return r<1?1+(o-1)*(e-1)/(r-1):1===r&&t<1?1+(o-1)*(n-1)/(t-1):1;for(var l,f=0,s=1;f<s;){var c=a(t,r,l=(f+s)/2);if(u(o-c)<i)break;c<o?f=l:s=l}return a(n,e,l)}}function f(){return 1}function s(t){return 1===t?1:0}function c(){var t=arguments.length>0&&void 0!==arguments[0]?arguments[0]:1,n=arguments.length>1&&void 0!==arguments[1]?arguments[1]:0;if(1===t){if(0===n)return s;if(1===n)return f}var r=1/t;return function(t){return t>=1?1:(t+=n*r)-t%r}}function v(t){var n=arguments.length>1&&void 0!==arguments[1]?arguments[1]:2;if(Number.isInteger(t))return t;var r=Math.pow(10,n);return Math.round(t*r)/r}var h=Math.PI/180;function y(t,n,r){return t>=.5?r:n}function d(t,n,r){return 0===t||n===r?n:t*(r-n)+n}function g(t,n,r){var e=d(t,n,r);return e<=0?0:e}function m(t,n,r){return 0===t?n:1===t?r:{x:d(t,n.x,r.x),y:d(t,n.y,r.y)}}function p(t,n,r){return 0===t?n:1===t?r:{x:g(t,n.x,r.x),y:g(t,n.y,r.y)}}function b(t,n,r){var e=function(t,n,r){return Math.round(d(t,n,r))}(t,n,r);return e<=0?0:e>=255?255:e}function w(t,n,r){return 0===t?n:1===t?r:{r:b(t,n.r,r.r),g:b(t,n.g,r.g),b:b(t,n.b,r.b),a:d(t,null==n.a?1:n.a,null==r.a?1:r.a)}}function A(t,n,r){if(0===t)return n;if(1===t)return r;var e=n.length;if(e!==r.length)return y(t,n,r);for(var i=[],u=0;u<e;u++)i.push(w(t,n[u],r[u]));return i}function x(t,n,r){var e=n.length;if(e!==r.length)return y(t,n,r);for(var i=new Array(e),u=0;u<e;u++)i[u]=d(t,n[u],r[u]);return i}function k(t,n){for(var r=[],e=0;e<t;e++)r.push(n);return r}function S(t,n){if(--n<=0)return t;var r=(t=Object.assign([],t)).length;do{for(var e=0;e<r;e++)t.push(t[e])}while(--n>0);return t}var _=6,M=/\.0+$/g;function I(t){return Number.isInteger(t)?t+"":t.toFixed(_).replace(M,"")}function E(t){var n=arguments.length>1&&void 0!==arguments[1]?arguments[1]:" ";return t&&t.length?t.map(I).join(n):""}function F(t){return I(t.x)+","+I(t.y)}function B(t){return t?null==t.a||t.a>=1?"rgb("+t.r+","+t.g+","+t.b+")":"rgba("+t.r+","+t.g+","+t.b+","+t.a+")":"transparent"}var j={f:null,i:p,u:function(t,n){return function(r){var e=n(r);t.setAttribute("rx",I(e.x)),t.setAttribute("ry",I(e.y))}}},q={f:null,i:function(t,n,r){return 0===t?n:1===t?r:{width:g(t,n.width,r.width),height:g(t,n.height,r.height)}},u:function(t,n){return function(r){var e=n(r);t.setAttribute("width",I(e.width)),t.setAttribute("height",I(e.height))}}},P=Math.sin,O=Math.cos,z=Math.acos,L=Math.asin,C=Math.tan,R=Math.atan2,T=Math.PI/180,V=180/Math.PI,D=Math.sqrt,N=function(){function t(){var r=arguments.length>0&&void 0!==arguments[0]?arguments[0]:1,e=arguments.length>1&&void 0!==arguments[1]?arguments[1]:0,i=arguments.length>2&&void 0!==arguments[2]?arguments[2]:0,u=arguments.length>3&&void 0!==arguments[3]?arguments[3]:1,o=arguments.length>4&&void 0!==arguments[4]?arguments[4]:0,a=arguments.length>5&&void 0!==arguments[5]?arguments[5]:0;n(this,t),this.m=[r,e,i,u,o,a],this.i=null,this.w=null,this.s=null}return e(t,[{key:"point",value:function(t,n){var r=this.m;return{x:r[0]*t+r[2]*n+r[4],y:r[1]*t+r[3]*n+r[5]}}},{key:"translateSelf",value:function(){var t=arguments.length>0&&void 0!==arguments[0]?arguments[0]:0,n=arguments.length>1&&void 0!==arguments[1]?arguments[1]:0;if(!t&&!n)return this;var r=this.m;return r[4]+=r[0]*t+r[2]*n,r[5]+=r[1]*t+r[3]*n,this.w=this.s=this.i=null,this}},{key:"rotateSelf",value:function(){var t=arguments.length>0&&void 0!==arguments[0]?arguments[0]:0;if(t%=360){var n=P(t*=T),r=O(t),e=this.m,i=e[0],u=e[1];e[0]=i*r+e[2]*n,e[1]=u*r+e[3]*n,e[2]=e[2]*r-i*n,e[3]=e[3]*r-u*n,this.w=this.s=this.i=null}return this}},{key:"scaleSelf",value:function(){var t=arguments.length>0&&void 0!==arguments[0]?arguments[0]:1,n=arguments.length>1&&void 0!==arguments[1]?arguments[1]:1;if(1!==t||1!==n){var r=this.m;r[0]*=t,r[1]*=t,r[2]*=n,r[3]*=n,this.w=this.s=this.i=null}return this}},{key:"skewSelf",value:function(t,n){if(n%=360,(t%=360)||n){var r=this.m,e=r[0],i=r[1],u=r[2],o=r[3];t&&(t=C(t*T),r[2]+=e*t,r[3]+=i*t),n&&(n=C(n*T),r[0]+=u*n,r[1]+=o*n),this.w=this.s=this.i=null}return this}},{key:"resetSelf",value:function(){var t=arguments.length>0&&void 0!==arguments[0]?arguments[0]:1,n=arguments.length>1&&void 0!==arguments[1]?arguments[1]:0,r=arguments.length>2&&void 0!==arguments[2]?arguments[2]:0,e=arguments.length>3&&void 0!==arguments[3]?arguments[3]:1,i=arguments.length>4&&void 0!==arguments[4]?arguments[4]:0,u=arguments.length>5&&void 0!==arguments[5]?arguments[5]:0,o=this.m;return o[0]=t,o[1]=n,o[2]=r,o[3]=e,o[4]=i,o[5]=u,this.w=this.s=this.i=null,this}},{key:"recomposeSelf",value:function(){var t=arguments.length>0&&void 0!==arguments[0]?arguments[0]:null,n=arguments.length>1&&void 0!==arguments[1]?arguments[1]:null,r=arguments.length>2&&void 0!==arguments[2]?arguments[2]:null,e=arguments.length>3&&void 0!==arguments[3]?arguments[3]:null,i=arguments.length>4&&void 0!==arguments[4]?arguments[4]:null;return this.isIdentity||this.resetSelf(),t&&(t.x||t.y)&&this.translateSelf(t.x,t.y),n&&this.rotateSelf(n),r&&(r.x&&this.skewSelf(r.x,0),r.y&&this.skewSelf(0,r.y)),!e||1===e.x&&1===e.y||this.scaleSelf(e.x,e.y),i&&(i.x||i.y)&&this.translateSelf(i.x,i.y),this}},{key:"decompose",value:function(){var t=arguments.length>0&&void 0!==arguments[0]?arguments[0]:0,n=arguments.length>1&&void 0!==arguments[1]?arguments[1]:0,r=this.m,e=r[0]*r[0]+r[1]*r[1],i=[[r[0],r[1]],[r[2],r[3]]],u=D(e);if(0===u)return{origin:{x:r[4],y:r[5]},translate:{x:t,y:n},scale:{x:0,y:0},skew:{x:0,y:0},rotate:0};i[0][0]/=u,i[0][1]/=u;var o=r[0]*r[3]-r[1]*r[2]<0;o&&(u=-u);var a=i[0][0]*i[1][0]+i[0][1]*i[1][1];i[1][0]-=i[0][0]*a,i[1][1]-=i[0][1]*a;var l=D(i[1][0]*i[1][0]+i[1][1]*i[1][1]);if(0===l)return{origin:{x:r[4],y:r[5]},translate:{x:t,y:n},scale:{x:u,y:0},skew:{x:0,y:0},rotate:0};i[1][0]/=l,i[1][1]/=l,a/=l;var f=0;return i[1][1]<0?(f=z(i[1][1])*V,i[0][1]<0&&(f=360-f)):f=L(i[0][1])*V,o&&(f=-f),a=R(a,D(i[0][0]*i[0][0]+i[0][1]*i[0][1]))*V,{origin:{x:r[4],y:r[5]},translate:{x:t,y:n},scale:{x:u,y:l},skew:{x:a,y:0},rotate:f}}},{key:"toString",value:function(){return null===this.s&&(this.s="matrix("+this.m.map($).join(" ")+")"),this.s}},{key:"determinant",get:function(){var t=this.m;return t[0]*t[3]-t[1]*t[2]}},{key:"isIdentity",get:function(){if(null===this.i){var t=this.m;this.i=1===t[0]&&0===t[1]&&0===t[2]&&1===t[3]&&0===t[4]&&0===t[5]}return this.i}}]),t}(),G=/\.0+$/;function $(t){return Number.isInteger(t)?t:t.toFixed(14).replace(G,"")}Object.freeze({M:2,L:2,Z:0,H:1,V:1,C:6,Q:4,T:2,S:4,A:7});function H(t,n,r){return t+(n-t)*r}function Q(t,n,r){var e=arguments.length>3&&void 0!==arguments[3]&&arguments[3],i={x:H(t.x,n.x,r),y:H(t.y,n.y,r)};return e&&(i.a=function(t,n){return Math.atan2(n.y-t.y,n.x-t.x)}(t,n)),i}function U(t,n,r,e){var i=1-e;return i*i*t+2*i*e*n+e*e*r}function Y(t,n,r,e){return 2*(1-e)*(n-t)+2*e*(r-n)}function Z(t,n,r,e){var i=arguments.length>4&&void 0!==arguments[4]&&arguments[4],u={x:U(t.x,n.x,r.x,e),y:U(t.y,n.y,r.y,e)};return i&&(u.a=function(t,n,r,e){return Math.atan2(Y(t.y,n.y,r.y,e),Y(t.x,n.x,r.x,e))}(t,n,r,e)),u}function J(t,n,r,e,i){var u=i*i;return i*u*(e-t+3*(n-r))+3*u*(t+r-2*n)+3*i*(n-t)+t}function K(t,n,r,e,i){var u=1-i;return 3*(u*u*(n-t)+2*u*i*(r-n)+i*i*(e-r))}function W(t,n,r,e,i){var u=arguments.length>5&&void 0!==arguments[5]&&arguments[5],o={x:J(t.x,n.x,r.x,e.x,i),y:J(t.y,n.y,r.y,e.y,i)};return u&&(o.a=function(t,n,r,e,i){return Math.atan2(K(t.y,n.y,r.y,e.y,i),K(t.x,n.x,r.x,e.x,i))}(t,n,r,e,i)),o}function X(t,n,r){var e,i=arguments.length>3&&void 0!==arguments[3]&&arguments[3];if(nt(n)){if(null!=(e=r).start&&!nt(e))return Z(n,r.start,r,t,i)}else if(nt(r)){if(n.end)return Z(n,n.end,r,t,i)}else{if(n.end)return r.start?W(n,n.end,r.start,r,t,i):Z(n,n.end,r,t,i);if(r.start)return Z(n,r.start,r,t,i)}return Q(n,r,t,i)}function tt(t,n,r){var e=X(t,n,r,!0);return e.a=function(t){return arguments.length>1&&void 0!==arguments[1]&&arguments[1]?t+Math.PI:t}(e.a)/h,e}function nt(t){return!t.type||"corner"===t.type}var rt=new N;var et={f:function(t){return t?t.join(" "):""},i:function(n,r,e){if(0===n)return r;if(1===n)return e;var i=r.length;if(i!==e.length)return y(n,r,e);for(var u,o=new Array(i),a=0;a<i;a++){if((u=t(r[a]))!==t(e[a]))return y(n,r,e);if("number"===u)o[a]=d(n,r[a],e[a]);else{if(r[a]!==e[a])return y(n,r,e);o[a]=r[a]}}return o}},it={f:null,i:x,u:function(t,n){return function(r){var e=n(r);t.setAttribute("x1",I(e[0])),t.setAttribute("y1",I(e[1])),t.setAttribute("x2",I(e[2])),t.setAttribute("y2",I(e[3]))}}},ut={f:I,i:d},ot={f:I,i:function(t,n,r){var e=d(t,n,r);return e<=0?0:e>=1?1:e}},at={f:E,i:function(t,n,r){var e,i,u,o=n.length,a=r.length;if(o!==a)if(0===o)n=k(o=a,0);else if(0===a)a=o,r=k(o,0);else{var l=(u=(e=o)*(i=a)/function(t,n){for(var r;n;)r=n,n=t%n,t=r;return t||1}(e,i))<0?-u:u;n=S(n,Math.floor(l/o)),r=S(r,Math.floor(l/a)),o=a=l}for(var f=[],s=0;s<o;s++)f.push(v(g(t,n[s],r[s]),6));return f}};function lt(t,n,r,e,i,u,o,a){return n=function(t,n,r){for(var e,i,u,o=t.length-1,a={},l=0;l<=o;l++)(e=t[l]).e&&(e.e=n(e.e)),e.v&&"g"===(i=e.v).t&&i.r&&(u=r.getElementById(i.r))&&(a[i.r]=u.querySelectorAll("stop"));return a}(t,e,a),function(e){var i,u=r(e,t,ft);return u?"c"===u.t?B(u.v):"g"===u.t?(n[u.r]&&function(t,n){for(var r=0,e=t.length;r<e;r++)t[r].setAttribute("stop-color",B(n[r]))}(n[u.r],u.v),(i=u.r)?"url(#"+i+")":"none"):"none":"none"}}function ft(t,n,r){if(0===t)return n;if(1===t)return r;if(n&&r){var e=n.t;if(e===r.t)switch(n.t){case"c":return{t:e,v:w(t,n.v,r.v)};case"g":if(n.r===r.r)return{t:e,v:A(t,n.v,r.v),r:n.r}}}return y(t,n,r)}var st={blur:p,brightness:g,contrast:g,"drop-shadow":function(t,n,r){return 0===t?n:1===t?r:{blur:p(t,n.blur,r.blur),offset:m(t,n.offset,r.offset),color:w(t,n.color,r.color)}},grayscale:g,"hue-rotate":d,invert:g,opacity:g,saturate:g,sepia:g};function ct(t,n,r){if(0===t)return n;if(1===t)return r;var e=n.length;if(e!==r.length)return y(t,n,r);for(var i,u=[],o=0;o<e;o++){if(n[o].type!==r[o].type)return n;if(!(i=st[n[o].type]))return y(t,n,r);u.push({type:n.type,value:i(t,n[o].value,r[o].value)})}return u}var vt={blur:function(t){return t?function(n){t.setAttribute("stdDeviation",F(n))}:null},brightness:function(t,n,r){return(t=yt(r,n))?function(n){n=I(n),t.map((function(t){return t.setAttribute("slope",n)}))}:null},contrast:function(t,n,r){return(t=yt(r,n))?function(n){var r=I((1-n)/2);n=I(n),t.map((function(t){t.setAttribute("slope",n),t.setAttribute("intercept",r)}))}:null},"drop-shadow":function(t,n,r){var e=r.getElementById(n+"-blur");if(!e)return null;var i=r.getElementById(n+"-offset");if(!i)return null;var u=r.getElementById(n+"-flood");return u?function(t){e.setAttribute("stdDeviation",F(t.blur)),i.setAttribute("dx",I(t.offset.x)),i.setAttribute("dy",I(t.offset.y)),u.setAttribute("flood-color",B(t.color))}:null},grayscale:function(t){return t?function(n){t.setAttribute("values",E(function(t){return[.2126+.7874*(t=1-t),.7152-.7152*t,.0722-.0722*t,0,0,.2126-.2126*t,.7152+.2848*t,.0722-.0722*t,0,0,.2126-.2126*t,.7152-.7152*t,.0722+.9278*t,0,0,0,0,0,1,0]}(n)))}:null},"hue-rotate":function(t){return t?function(n){return t.setAttribute("values",I(n))}:null},invert:function(t,n,r){return(t=yt(r,n))?function(n){n=I(n)+" "+I(1-n),t.map((function(t){return t.setAttribute("tableValues",n)}))}:null},opacity:function(t,n,r){return(t=r.getElementById(n+"-A"))?function(n){return t.setAttribute("tableValues","0 "+I(n))}:null},saturate:function(t){return t?function(n){return t.setAttribute("values",I(n))}:null},sepia:function(t){return t?function(n){return t.setAttribute("values",E(function(t){return[.393+.607*(t=1-t),.769-.769*t,.189-.189*t,0,0,.349-.349*t,.686+.314*t,.168-.168*t,0,0,.272-.272*t,.534-.534*t,.131+.869*t,0,0,0,0,0,1,0]}(n)))}:null}};var ht=["R","G","B"];function yt(t,n){var r=ht.map((function(r){return t.getElementById(n+"-"+r)||null}));return-1!==r.indexOf(null)?null:r}var dt={fill:lt,"fill-opacity":ot,stroke:lt,"stroke-opacity":ot,"stroke-width":ut,"stroke-dashoffset":{f:I,i:d},"stroke-dasharray":at,opacity:ot,transform:function(n,r,e,i){if(!(n=function(n,r){if(!n||"object"!==t(n))return null;var e=!1;for(var i in n)n.hasOwnProperty(i)&&(n[i]&&n[i].length?(n[i].forEach((function(t){t.e&&(t.e=r(t.e))})),e=!0):delete n[i]);return e?n:null}(n,i)))return null;var u=function(t,i,u){var o=arguments.length>3&&void 0!==arguments[3]?arguments[3]:null;return n[t]?e(i,n[t],u):r&&r[t]?r[t]:o};return r&&r.a&&n.o?function(t){var r=e(t,n.o,tt);return rt.recomposeSelf(r,u("r",t,d,0)+r.a,u("k",t,m),u("s",t,m),u("t",t,m)).toString()}:function(t){return rt.recomposeSelf(u("o",t,X,null),u("r",t,d,0),u("k",t,m),u("s",t,m),u("t",t,m)).toString()}},"#filter":function(t,n,r,e,i,u,o,a){if(!n.items||!t||!t.length)return null;var l=function(t,n){var r=(t=t.map((function(t){return t&&vt[t[0]]?(n.getElementById(t[1]),vt[t[0]](n.getElementById(t[1]),t[1],n)):null}))).length;return function(n){for(var e=0;e<r;e++)t[e]&&t[e](n[e].value)}}(n.items,a);return l?(t=function(t,n){return t.map((function(t){return t.e=n(t.e),t}))}(t,e),function(n){l(r(n,t,ct))}):null},"#line":it,points:{f:E,i:x},d:et,r:ut,"#size":q,"#radius":j,_:function(t,n){if(Array.isArray(t))for(var r=0;r<t.length;r++)this[t[r]]=n;else this[t]=n}},gt=function(){function t(r){n(this,t),this.list=r,this.length=r.length}return e(t,[{key:"setAttribute",value:function(t,n){for(var r=this.list,e=0;e<this.length;e++)r[e].setAttribute(t,n)}},{key:"removeAttribute",value:function(t){for(var n=this.list,r=0;r<this.length;r++)n[r].removeAttribute(t)}},{key:"style",value:function(t,n){for(var r=this.list,e=0;e<this.length;e++)r[e].style[t]=n}}]),t}(),mt=/-./g,pt=function(t,n){return n.toUpperCase()};function bt(t){return"function"==typeof t?t:y}function wt(t){return t?"function"==typeof t?t:Array.isArray(t)?function(t){var n=arguments.length>1&&void 0!==arguments[1]?arguments[1]:o;if(!Array.isArray(t))return n;switch(t.length){case 1:return c(t[0])||n;case 2:return c(t[0],t[1])||n;case 4:return l(t[0],t[1],t[2],t[3])||n}return n}(t,null):function(t,n){var r=arguments.length>2&&void 0!==arguments[2]?arguments[2]:o;switch(t){case"linear":return o;case"steps":return c(n.steps||1,n.jump||0)||r;case"bezier":case"cubic-bezier":return l(n.x1||0,n.y1||0,n.x2||0,n.y2||0)||r}return r}(t.type,t.value,null):null}function At(t,n,r){var e=arguments.length>3&&void 0!==arguments[3]&&arguments[3],i=n.length-1;if(t<=n[0].t)return e?[0,0,n[0].v]:n[0].v;if(t>=n[i].t)return e?[i,1,n[i].v]:n[i].v;var u,o=n[0],a=null;for(u=1;u<=i;u++){if(!(t>n[u].t)){a=n[u];break}o=n[u]}return null==a?e?[i,1,n[i].v]:n[i].v:o.t===a.t?e?[u,1,a.v]:a.v:(t=(t-o.t)/(a.t-o.t),o.e&&(t=o.e(t)),e?[u,t,r(t,o.v,a.v)]:r(t,o.v,a.v))}function xt(t,n){var r=arguments.length>2&&void 0!==arguments[2]?arguments[2]:null;return t&&t.length?"function"!=typeof n?null:("function"!=typeof r&&(r=null),function(e){var i=At(e,t,n);return null!=i&&r&&(i=r(i)),i}):null}function kt(t,n){return t.t-n.t}function St(n,r,e,i,u){var o,a="@"===e[0],l="#"===e[0],f=dt[e],s=y;switch(a?(o=e.substr(1),e=o.replace(mt,pt)):l&&(e=e.substr(1)),t(f)){case"function":if(s=f(i,u,At,wt,e,a,r,n),l)return s;break;case"string":s=xt(i,bt(f));break;case"object":if((s=xt(i,bt(f.i),f.f))&&"function"==typeof f.u)return f.u(r,s,e,a,n)}return s?function(t,n,r){if(arguments.length>3&&void 0!==arguments[3]&&arguments[3])return t instanceof gt?function(e){return t.style(n,r(e))}:function(e){return t.style[n]=r(e)};if(Array.isArray(n)){var e=n.length;return function(i){var u=r(i);if(null==u)for(var o=0;o<e;o++)t[o].removeAttribute(n);else for(var a=0;a<e;a++)t[a].setAttribute(n,u)}}return function(e){var i=r(e);null==i?t.removeAttribute(n):t.setAttribute(n,i)}}(r,e,s,a):null}function _t(n,r,e,i){if(!i||"object"!==t(i))return null;var u=null,o=null;return Array.isArray(i)?o=function(t){if(!t||!t.length)return null;for(var n=0;n<t.length;n++)t[n].e&&(t[n].e=wt(t[n].e));return t.sort(kt)}(i):(o=i.keys,u=i.data||null),o?St(n,r,e,o,u):null}function Mt(t,n,r){if(!r)return null;var e=[];for(var i in r)if(r.hasOwnProperty(i)){var u=_t(t,n,i,r[i]);u&&e.push(u)}return e.length?e:null}function It(t,n){if(!n.duration||n.duration<0)return null;var r=function(t,n){if(!n)return null;var r=[];if(Array.isArray(n))for(var e=n.length,i=0;i<e;i++){var u=n[i];if(2===u.length){var o=null;if("string"==typeof u[0])o=t.getElementById(u[0]);else if(Array.isArray(u[0])){o=[];for(var a=0;a<u[0].length;a++)if("string"==typeof u[0][a]){var l=t.getElementById(u[0][a]);l&&o.push(l)}o=o.length?1===o.length?o[0]:new gt(o):null}if(o){var f=Mt(t,o,u[1]);f&&(r=r.concat(f))}}}else for(var s in n)if(n.hasOwnProperty(s)){var c=t.getElementById(s);if(c){var v=Mt(t,c,n[s]);v&&(r=r.concat(v))}}return r.length?r:null}(t,n.elements);return r?function(t,n){var r=arguments.length>2&&void 0!==arguments[2]?arguments[2]:1/0,e=arguments.length>3&&void 0!==arguments[3]?arguments[3]:1,i=arguments.length>4&&void 0!==arguments[4]&&arguments[4],u=arguments.length>5&&void 0!==arguments[5]?arguments[5]:1,o=t.length,a=e>0?n:0;i&&r%2==0&&(a=n-a);var l=null;return function(f,s){var c=f%n,v=1+(f-c)/n;s*=e,i&&v%2==0&&(s=-s);var h=!1;if(v>r)c=a,h=!0,-1===u&&(c=e>0?0:n);else if(s<0&&(c=n-c),c===l)return!1;l=c;for(var y=0;y<o;y++)t[y](c);return h}}(r,n.duration,n.iterations||1/0,n.direction||1,!!n.alternate,n.fill||1):null}var Et=function(){function t(r){var e=arguments.length>1&&void 0!==arguments[1]?arguments[1]:{};n(this,t),this._id=0,this._running=!1,this._animations=r,this.direction=e.direction||1,this.speed=e.speed||1,this.fps=e.fps||100,this.offset=e.offset||0}return e(t,[{key:"_start",value:function(){var t=this,n=arguments.length>0&&void 0!==arguments[0]?arguments[0]:0,r=-1/0,e=null,i={},u=function u(o){t._running=!0,null==e&&(e=o);var a=Math.round((o-e+n)*t.speed),l=t.fps?1e3/t.fps:0;if(a>r+l){t.offset=a,r=a;for(var f=t._animations,s=f.length,c=0,v=0;v<s;v++)i[v]?c++:(i[v]=f[v](a,t.direction),i[v]&&c++);if(c===s)return void t._stop()}t._id=window.requestAnimationFrame(u)};this._id=window.requestAnimationFrame(u)}},{key:"_stop",value:function(){this._id&&window.cancelAnimationFrame(this._id),this._running=!1}},{key:"play",value:function(){this._running||this._start(this.offset)}},{key:"stop",value:function(){this._stop(),this.offset=0;var t=this.direction,n=this._animations;requestAnimationFrame((function(){for(var r=0;r<n.length;r++)n[r](0,t)}))}},{key:"restart",value:function(){this._stop(),this.offset=0,this._start()}},{key:"pause",value:function(){this._stop()}},{key:"reverse",value:function(){this.direction=-this.direction}}],[{key:"build",value:function(n){if(!(n=function(t){if(!t||!t.root||!Array.isArray(t.animations))return null;var n=window.document.getElementById(t.root);if(!n)return null;var r=t.animations.map((function(t){return It(n,t)})).filter((function(t){return!!t}));return r.length?{element:n,animations:r,options:t.options||void 0}:null}(n)))return null;var r=n.element,e=n.options||{},i=new t(n.animations,n.options);return function(t,n,r){var e=arguments.length>3&&void 0!==arguments[3]?arguments[3]:null;if("click"===r){return void n.addEventListener("click",(function r(){n.removeEventListener("click",r),t.play()}))}if("hover"===r)return n.addEventListener("mouseenter",(function(){return t.play()})),void n.addEventListener("mouseleave","freeze"===e?function(){return t.pause()}:function(){return t.stop()});t.play()}(i,r,e.start,e.hover),i}}]),t}();return function(){for(var t=0,n=["ms","moz","webkit","o"],r=0;r<n.length&&!window.requestAnimationFrame;++r)window.requestAnimationFrame=window[n[r]+"RequestAnimationFrame"],window.cancelAnimationFrame=window[n[r]+"CancelAnimationFrame"]||window[n[r]+"CancelRequestAnimationFrame"];window.requestAnimationFrame||(window.requestAnimationFrame=function(n){var r=Date.now(),e=Math.max(0,16-(r-t)),i=window.setTimeout((function(){n(r+e)}),e);return t=r+e,i},window.cancelAnimationFrame=window.clearTimeout)}(),Et}));
__SVGATOR_PLAYER__.build({"root":"egi85a56lfbd1","animations":[{"duration":2000,"direction":1,"iterations":1,"fill":1,"alternate":false,"elements":{"egi85a56lfbd49":{"d":[{"t":500,"v":["M",471.7402111128403,401.955,"L",469.663,401.955,"C",469.7253872783923,402.5140752920126,469.745085817126,403.4396424180108,469.71131165851676,404.22499999999997,"L",471.74848495986976,404.22499999999997,"C",471.69745549547497,403.57414734631107,471.6940689242092,402.64501284020065,471.7402111128403,401.955,"Z"]},{"t":1200,"v":["M",491.505,401.955,"L",469.663,401.955,"C",470.31900599102335,402.5140752920126,470.5261373126124,403.4396424180108,470.171,404.22499999999997,"L",491.592,404.22499999999997,"C",491.0554221074493,403.57414734631107,491.01981210655435,402.64501284020065,491.505,401.955,"Z"]}]},"egi85a56lfbd55":{"fill-opacity":[{"t":0,"v":0},{"t":2000,"v":1}]},"egi85a56lfbd57":{"fill-opacity":[{"t":0,"v":0},{"t":2000,"v":1}]},"egi85a56lfbd59":{"fill-opacity":[{"t":0,"v":0},{"t":2000,"v":1}]},"egi85a56lfbd65":{"fill-opacity":[{"t":0,"v":0},{"t":2000,"v":1}]},"egi85a56lfbd71":{"fill-opacity":[{"t":0,"v":0},{"t":2000,"v":1}]},"egi85a56lfbd75":{"d":[{"t":0,"v":["M",466.2,427.8428851019493,"L",466.053,431.864490543397,"C",467.2487379411038,431.82203298403,468.5008122350504,431.82669657469387,469.68,431.87800000000004,"L",469.822,427.8726640116656,"C",468.6181110806029,427.9100667467896,467.36714722069405,427.8997817275066,466.2,427.8428851019493,"Z"]},{"t":500,"v":["M",466.2,404.02613240178124,"L",466.053,431.78475269325963,"C",467.2487379411038,431.49169478737315,468.5008122350504,431.52388462904656,469.68,431.87800000000004,"L",469.822,404.23167754029504,"C",468.6181110806029,404.4898451644654,467.36714722069405,404.4188541264034,466.2,404.02613240178124,"Z"]}]},"egi85a56lfbd77":{"d":[{"t":1200,"v":["M",484.416,412.3982987499128,"L",484.269,414.30417570385384,"C",485.4837850987416,414.2891766472195,486.73672415666476,414.2967241252911,487.892,414.326,"L",488.041,412.40613139607564,"C",486.84362371478966,412.42505532499536,485.59265596996,412.42235232149017,484.416,412.3982987499128,"Z"]},{"t":2000,"v":["M",484.416,385.531,"L",484.269,414,"C",485.4837850987416,413.7759518827069,486.73672415666476,413.8886921898786,487.892,414.326,"L",488.041,385.648,"C",486.84362371478966,385.93067582086064,485.59265596996,385.8902997584758,484.416,385.531,"Z"]}]},"egi85a56lfbd84":{"fill":[{"t":0,"v":{"t":"c","v":{"r":81,"g":127,"b":162,"a":1}},"e":[0.39,0.575,0.565,1]},{"t":2000,"v":{"t":"c","v":{"r":213,"g":224,"b":238,"a":1}},"e":[0.39,0.575,0.565,1]}]},"egi85a56lfbd91":{"fill":[{"t":0,"v":{"t":"c","v":{"r":81,"g":127,"b":162,"a":1}}},{"t":2000,"v":{"t":"c","v":{"r":86,"g":90,"b":206,"a":1}}}]},"egi85a56lfbd97":{"fill":[{"t":0,"v":{"t":"c","v":{"r":81,"g":127,"b":162,"a":1}}},{"t":2000,"v":{"t":"c","v":{"r":255,"g":236,"b":131,"a":1}}}]},"egi85a56lfbd98":{"fill":[{"t":0,"v":{"t":"c","v":{"r":81,"g":127,"b":162,"a":1}}},{"t":2000,"v":{"t":"c","v":{"r":237,"g":191,"b":122,"a":1}}}]},"egi85a56lfbd100":{"fill":[{"t":0,"v":{"t":"c","v":{"r":81,"g":127,"b":162,"a":1}}},{"t":2000,"v":{"t":"c","v":{"r":43,"g":47,"b":152,"a":1}}}]},"egi85a56lfbd102":{"d":[{"t":0,"v":["M",481.07,414.0956218076251,"L",471,413.7010068288063,"L",470.992,413.70194919293493,"L",470.96700000000004,413.7010068288063,"L",470.96700000000004,413.7010068288063,"L",463.46000000000004,414.67140629015233,"L",467,414.8023949040168,"L",467.269,419.85582254321866,"L",477.369,420.23,"L",485.382,419.935511209837,"L",485.103,414.6206953204863,"L",488.635,414.51126328606153,"Z","M",470.984,413.70171360190284,"L",470.989,413.70200809069286,"Z"]},{"t":2000,"v":["M",481.07,316.077,"L",471,309.377,"L",470.992,309.39300000000003,"L",470.96700000000004,309.377,"L",470.96700000000004,309.377,"L",463.46000000000004,325.853,"L",467,328.077,"L",467.269,413.877,"L",477.369,420.23,"L",485.382,415.23,"L",485.103,324.992,"L",488.635,323.134,"Z","M",470.984,309.389,"L",470.989,309.394,"Z"]}]},"egi85a56lfbd104":{"d":[{"t":0,"v":["M",476.934,411.3318849397214,"L",469.427,412.3104646303943,"L",472.96000000000004,412.17938151693744,"L",473.24100000000004,417.539,"L",481.25500000000005,417.241672376092,"L",480.97400000000005,411.8820538930295,"L",484.50700000000006,411.7509707795725,"Z"]},{"t":2000,"v":["M",476.934,313.032,"L",469.427,329.508,"L",472.96000000000004,327.301,"L",473.24100000000004,417.539,"L",481.25500000000005,412.533,"L",480.97400000000005,322.295,"L",484.50700000000006,320.088,"Z"]}]},"egi85a56lfbd106":{"d":[{"t":0,"v":["M",464.064,416.03752259008047,"L",455.78000000000003,416.3948061904916,"L",455.98,421.1643869152828,"L",466.08000000000004,421.603,"L",474.36400000000003,421.2457163995889,"L",474.16400000000004,416.4761356747977,"Z"]},{"t":2000,"v":["M",464.064,340.991,"L",455.78000000000003,346.166,"L",455.98,415.25,"L",466.08000000000004,421.603,"L",474.36400000000003,416.428,"L",474.16400000000004,347.344,"Z"]}]},"egi85a56lfbd108":{"d":[{"t":0,"v":["M",461.748,413.6817619526491,"L",461.948,418.718,"L",470.23199999999997,418.3407414177662,"L",470.032,413.3045033704153,"Z"]},{"t":2000,"v":["M",461.748,349.634,"L",461.948,418.718,"L",470.23199999999997,413.543,"L",470.032,344.459,"Z"]}]},"egi85a56lfbd110":{"d":[{"t":0,"v":["M",454.268,418.7095507347852,"L",445.984,418.92047483128454,"L",446.152,421.21602189195016,"L",456.252,421.475,"L",464.536,421.26407590350044,"L",464.368,418.96852884283476,"Z"]},{"t":2000,"v":["M",454.268,353.625,"L",445.984,358.8,"L",446.152,415.121,"L",456.252,421.47499999999997,"L",464.536,416.29999999999995,"L",464.368,359.9789999999999,"Z"]}]},"egi85a56lfbd112":{"d":[{"t":0,"v":["M",451.952,416.05726635844155,"L",452.12,418.59,"L",460.404,418.35728224649654,"L",460.236,415.8245486049382,"Z"]},{"t":2000,"v":["M",451.952,362.269,"L",452.12,418.59000000000003,"L",460.404,413.415,"L",460.236,357.09400000000005,"Z"]}]},"egi85a56lfbd114":{"d":[{"t":0,"v":["M",444.479,417.69950325973105,"L",436.195,417.92664305761366,"L",436.322,419.70711183077367,"L",446.422,419.986,"L",454.706,419.7588602021176,"L",454.579,417.97839142895725,"Z"]},{"t":2000,"v":["M",444.479,367.892,"L",436.195,373.067,"L",436.322,413.632,"L",446.422,419.986,"L",454.706,414.811,"L",454.579,374.246,"Z"]}]},"egi85a56lfbd116":{"d":[{"t":0,"v":["M",442.163,415.0721678446825,"L",442.29,417.1,"L",450.574,416.8413033057127,"L",450.447,414.813471150395,"Z"]},{"t":2000,"v":["M",442.163,376.535,"L",442.29,417.1,"L",450.574,411.925,"L",450.447,371.36,"Z"]}]}}}],"options":{"start":"load","hover":"freeze"}})]]></script></svg>