<svg xmlns="http://www.w3.org/2000/svg" xmlns:xlink="http://www.w3.org/1999/xlink" width="302.804" height="268.607" viewBox="0 0 302.804 268.607">
  <defs>
    <linearGradient id="linear-gradient" x1="0.498" y1="0.1" x2="0.502" y2="1.059" gradientUnits="objectBoundingBox">
      <stop offset="0" stop-color="#fff"/>
      <stop offset="1" stop-color="#aac4d8"/>
    </linearGradient>
    <linearGradient id="linear-gradient-2" x1="0" y1="0.5" x2="1" y2="0.5" xlink:href="#linear-gradient"/>
  </defs>
  <g id="Group_1710" data-name="Group 1710" transform="translate(-290.872 190.724)">
    <path id="Path_291" data-name="Path 291" d="M578.334,400.154l-52.571-32.842a6.43,6.43,0,0,0-6.256,0l-52.229,32.842c-1.722,1.083-1.713,2.838.02,3.92l52.572,32.84a6.422,6.422,0,0,0,6.256,0l52.229-32.84C580.078,402.991,580.068,401.236,578.334,400.154Z" transform="translate(-48.698 -448.492)" fill="#fff"/>
    <path id="Path_293" data-name="Path 293" d="M691.249,425.4,574.128,351.758a9.242,9.242,0,0,0-8.994,0L393.2,459.161c-2.492,1.557-2.5,4.08-.024,5.637l117.121,73.645a9.246,9.246,0,0,0,8.994,0L691.225,431.038C693.717,429.483,693.726,426.958,691.249,425.4Z" transform="translate(-100.449 -461.728)" fill="url(#linear-gradient)" style="mix-blend-mode: multiply;isolation: isolate"/>
    <g id="Group_336" data-name="Group 336" transform="translate(386.114 -190.724)">
      <path id="Path_2483" data-name="Path 2483" d="M467.256,336.732s-2.667-14.752-4.211-17.432a6.028,6.028,0,0,0-5.147-3.224s2.687,9.255.857,9.375a7.266,7.266,0,0,1-1.613-.088l4.119,6.547,1.167,11.477,8.833,3.043-.01-6.263Z" transform="translate(-440.945 -299.715)" fill="#09425e"/>
      <path id="Path_2484" data-name="Path 2484" d="M463.481,331.885c-.393-2.7-1.421-9.561-1.834-11.469l-.009-.029.009.029c0-.007-.009-.053-.02-.128q-.815-.692-1.627-1.383a13.388,13.388,0,0,1-1.436-1.431c.652,2.75,1.39,6.734.191,6.813a7.266,7.266,0,0,1-1.613-.088l4.119,6.547,1.167,11.477,9.361,2.491a3.153,3.153,0,0,1,.225-.932C465.87,340.455,465.1,339.806,463.481,331.885Z" transform="translate(-440.945 -298.551)" fill="#6c90b1" opacity="0.1" style="mix-blend-mode: multiply;isolation: isolate"/>
      <path id="Path_2485" data-name="Path 2485" d="M460.479,369.024l-4.119-4.459-5.719.931v2.555a2.069,2.069,0,0,0,.962,1.777l7.209,4.342s3.241.967,4.414-1.693l-.031-.178C463,371.114,461.263,369.881,460.479,369.024Z" transform="translate(-445.451 -259.378)" fill="#002d42"/>
      <path id="Path_2486" data-name="Path 2486" d="M466.893,365.861l-4.119-4.459-5.719.931v2.555a2.067,2.067,0,0,0,.962,1.777l3.86,1.427s4.143,3.043,5.961,2.381C469.433,369.893,470.782,368.092,466.893,365.861Z" transform="translate(-441.005 -262.009)" fill="#002d42"/>
      <path id="Path_2487" data-name="Path 2487" d="M468.662,335.124c-1.852,1.149-2.629-.018-4.4.921-4.758,2.53-15.053,1.72-15.168,1.716l1.828,52.285c6.2,3.568,7.79-.852,7.79-.852l1.373-39.735,1.981,35.553c5.811,1.936,6.984-1.632,6.984-1.632s.015-27.126-.393-36.766C468.559,344.188,468.662,335.124,468.662,335.124Z" transform="translate(-446.519 -283.869)" fill="#517fa2"/>
      <path id="Path_2488" data-name="Path 2488" d="M467.721,337.505c.19-6.314.55-12.182-.533-18.322a14.73,14.73,0,0,1-4.312-2.125,2.1,2.1,0,0,1-.755-1.1h-2.709l-3.168.6-5.11,3.611a6.829,6.829,0,0,0-3.547,6.65l3.286,25.974s.452,4.18,8.973,2.938c4.68-.681,7.24-2.118,8.572-3.215A94.462,94.462,0,0,1,467.721,337.505Z" transform="translate(-447.575 -299.815)" fill="#d5e0ee"/>
      <path id="Path_2489" data-name="Path 2489" d="M461.992,321.1c-.853-2.9-1.737-5.153-5.447-5.138,2.792,5.336,2.387,15.406,2.231,18.874-.154,3.484-1.346-1.759-1.327,1.729q.036,6.993-.037,13.984c1.15.614.581,3.946,1.756,5.159,2.655,2.742,4.727-1.436,4.727-1.436l-1.214-15.65S462.821,323.91,461.992,321.1Z" transform="translate(-441.359 -299.811)" fill="#09425e"/>
      <path id="Path_2490" data-name="Path 2490" d="M459.292,325.091c-.037-.5-.02-.648.012-.639-.061-.225-.144-.553-.266-1.057-.269-1.119-.545-2.193-.848-3.263a73.027,73.027,0,0,1,.232,11.231c-.156,3.484-1.346-1.76-1.327,1.729q.036,6.993-.037,13.985c1.15.614.581,3.946,1.756,5.159a2.229,2.229,0,0,0,3.359.31,85.8,85.8,0,0,1-2.347-16.518C459.634,332.382,459.559,328.733,459.292,325.091Z" transform="translate(-441.004 -296.34)" fill="#6c90b1" opacity="0.1" style="mix-blend-mode: multiply;isolation: isolate"/>
      <path id="Path_2491" data-name="Path 2491" d="M464.639,333.114l-.005.3s-5.416-10.645-6.229-11.971c-.985-1.61-1.939-3.244-2.883-4.884l-4.388,3.1a6.829,6.829,0,0,0-3.547,6.65l2.311,30.814s.862,2.37,7.786,3.109c3.22.344,8.47-2.592,8.63-4.779-.862-6.628-1.232-15.487-1.6-22.175C464.688,333.226,464.663,333.171,464.639,333.114Z" transform="translate(-447.575 -299.311)" fill="#09425e"/>
      <path id="Path_2492" data-name="Path 2492" d="M454.266,327.54c-.513-1-.992-2.017-1.542-2.993-.374-.659-.769-1.317-1.178-1.962a8.785,8.785,0,0,1-1-1.094,21.118,21.118,0,0,1-1.624-2.189,7,7,0,0,0-1.331,4.728l2.309,30.814s.863,2.369,7.788,3.109a6.8,6.8,0,0,0,2.116-.169c-2.562-7.062-4.316-27.132-5.145-29.458C454.557,328.121,454.433,327.866,454.266,327.54Z" transform="translate(-447.575 -297.031)" fill="#6c90b1" opacity="0.1" style="mix-blend-mode: multiply;isolation: isolate"/>
      <path id="Path_2493" data-name="Path 2493" d="M452.695,319.239a3.409,3.409,0,1,0,6.8,0v-6.012H453.2Z" transform="translate(-444.027 -302.084)" fill="#f7b7a9"/>
      <path id="Path_2494" data-name="Path 2494" d="M452.695,317.768c0,1.533,1.522,2.779,3.4,2.779s3.4-1.246,3.4-2.779v-4.541H453.2Z" transform="translate(-444.027 -302.084)" fill="#eaaea0"/>
      <path id="Path_2495" data-name="Path 2495" d="M453.238,315.338,451.912,318c1.776,4.772,5.657,5.463,5.657,5.463l.84-2.849C454.472,319.654,453.238,315.338,453.238,315.338Z" transform="translate(-444.57 -300.328)" fill="#fff"/>
      <path id="Path_2496" data-name="Path 2496" d="M455.749,320.005a10.719,10.719,0,0,1,2.069,2s.885-4.5-.444-5.933A4.563,4.563,0,0,1,455.749,320.005Z" transform="translate(-441.91 -299.716)" fill="#fff"/>
      <path id="Path_2497" data-name="Path 2497" d="M453.225,315.872l-2,2.506,1.287,5.9h1.2l-1.454.672a49.057,49.057,0,0,1,5.924,6c2.115,2.618,3.413,3.951,4.2,6.274a8.635,8.635,0,0,0,.144-2.816C461.037,329.673,456.1,320.88,453.225,315.872Z" transform="translate(-445.043 -299.884)" fill="#003d57"/>
      <path id="Path_2498" data-name="Path 2498" d="M458.872,321.308l.968-.454a8.688,8.688,0,0,0-3.224-5.146v2.638c2.77,7.505,2.032,19.02,2.032,19.02,1.564-3.435,1.52-16.058,1.52-16.058Z" transform="translate(-441.309 -300.02)" fill="#003d57"/>
      <path id="Path_2499" data-name="Path 2499" d="M452.486,317.216c0,3.078,5.083,4.787,5.083,4.787,2.746,0,4.2-1.365,4.2-4.5v-7.888l-9.855,1.9Z" transform="translate(-444.57 -305.088)" fill="#f7b7a9"/>
      <path id="Path_2500" data-name="Path 2500" d="M461.176,308.5c-3.906-2.656-7.28-1.116-9.6,2.059-1.136,1.548-.356,4.669-.019,6.131a11.451,11.451,0,0,0,2.541,5.126l.293-5.25.571,1.042.818-.645s-.359-2.228-.34-2.6c.058-1.264,6.98-1.445,6.98-1.445S465.438,311.4,461.176,308.5Z" transform="translate(-445.218 -307.144)" fill="#81524f"/>
      <path id="Path_2501" data-name="Path 2501" d="M452.009,312.841c-.157,1.35.669,2.836,1.676,2.336v-2.607S452.22,311.009,452.009,312.841Z" transform="translate(-444.516 -303.147)" fill="#f7b7a9"/>
      <path id="Path_2502" data-name="Path 2502" d="M456.518,318.43l-.668.251-.515,1.746,1.113,1.48,1.4-.249.253-1.611-.721-.851Z" transform="translate(-442.197 -297.756)" fill="#ec6550"/>
      <path id="Path_2503" data-name="Path 2503" d="M457.4,320.192l-1.4.249.486,3.827,2.69,6.375a48.872,48.872,0,0,0-.227-5.917A32.774,32.774,0,0,0,457.4,320.192Z" transform="translate(-441.742 -296.29)" fill="#ec6550"/>
    </g>
    <path id="Path_294" data-name="Path 294" d="M453.881,322.974c-.838-2.1-1.954-4.144-4.844-3.636,0,0-1.549.308-1.634,5.422s7.168,18.035,7.634,18.544,14.75,2.742,20.059,1.7v-4.292s-15.41-2.737-15.92-3.178C459.177,337.534,455.168,326.194,453.881,322.974Z" transform="translate(-61.581 -487.79)" fill="#09425e"/>
    <g id="Group_337" data-name="Group 337" transform="translate(291.887 -130.886)">
      <g id="Group_1689" data-name="Group 1689">
        <g id="Group_1688" data-name="Group 1688" style="isolation: isolate">
          <path id="Path_2505" data-name="Path 2505" d="M570.165,382.224l.01,3.775v-.046l-.01-3.775Z" transform="translate(-268.386 -304.563)" fill="#212121"/>
          <g id="Group_1685" data-name="Group 1685" transform="translate(18.28 11.435)">
            <path id="Path_2506" data-name="Path 2506" d="M402.718,439.748,517.95,512.2l149.99-93.7L552.707,346.051Z" transform="translate(-402.718 -346.051)" fill="#517fa2"/>
          </g>
          <g id="Group_1686" data-name="Group 1686" transform="translate(18.28 11.435)">
            <path id="Path_2507" data-name="Path 2507" d="M402.718,439.748l11.469,7.212,150.6-94.078-12.08-6.83Z" transform="translate(-402.718 -346.051)" fill="#09425e"/>
          </g>
          <g id="Group_1687" data-name="Group 1687" transform="translate(0.001)">
            <path id="Path_2508" data-name="Path 2508" d="M691.849,414.623,574.728,340.978a9.242,9.242,0,0,0-8.994,0L393.8,448.382c-2.492,1.555-2.5,4.08-.024,5.637l117.121,73.643a9.242,9.242,0,0,0,8.994,0L691.826,420.259C694.318,418.7,694.326,416.18,691.849,414.623ZM525.433,517.4,410.2,444.94l149.99-93.7L675.422,423.7Z" transform="translate(-391.921 -339.809)" fill="#002d42"/>
          </g>
          <path id="Path_2509" data-name="Path 2509" d="M693.7,382.178c0,.068-.009.136-.014.2s-.009.139-.02.209-.027.121-.042.183-.029.134-.051.2a1.755,1.755,0,0,1-.066.17c-.027.07-.054.141-.088.211-.024.049-.054.1-.081.147-.046.082-.093.165-.147.246-.03.046-.066.09-.1.134a3.39,3.39,0,0,1-.24.289c-.046.049-.09.1-.139.147s-.108.1-.166.156-.129.114-.2.169-.125.1-.191.146c-.107.077-.213.154-.33.227L519.888,492.42a6.577,6.577,0,0,1-.9.456c-.086.038-.176.073-.264.106-.2.081-.42.147-.635.211-.185.053-.372.1-.562.148-.269.061-.542.115-.821.152-.049.005-.1.017-.149.022a10.183,10.183,0,0,1-1.085.066c-.052,0-.1,0-.157,0a9.754,9.754,0,0,1-1.062-.064c-.051-.005-.1-.011-.152-.018a9.224,9.224,0,0,1-1.016-.189l-.191-.049a7.9,7.9,0,0,1-.943-.311c-.025-.011-.052-.018-.076-.029a6.435,6.435,0,0,1-.984-.5L393.773,418.773a3.434,3.434,0,0,1-1.852-2.8l.01,3.775a3.431,3.431,0,0,0,1.85,2.8L510.9,496.192a6.613,6.613,0,0,0,.963.5l.014.006c.03.013.058.02.083.029.22.09.444.172.676.244.086.026.178.044.266.07l.193.049c.068.017.135.037.2.053.208.046.418.082.63.114.059.011.12.015.181.022l.152.018c.093.009.186.024.281.033.207.016.413.027.621.033l.159,0,.157,0c.11,0,.218,0,.328,0,.234-.009.466-.026.7-.051.019,0,.039-.007.059-.009.051-.006.1-.017.151-.024.195-.026.389-.051.582-.088.081-.016.156-.046.237-.064.191-.042.376-.093.562-.148.11-.033.229-.053.337-.09s.2-.081.3-.119.179-.068.266-.106a6.568,6.568,0,0,0,.9-.458L691.836,388.787c.073-.046.144-.092.215-.139.041-.029.074-.059.114-.088.066-.048.132-.1.193-.147s.134-.11.2-.169.114-.1.166-.154l.074-.068c.024-.026.041-.053.065-.079.086-.1.168-.192.24-.289.02-.027.047-.053.068-.082s.02-.035.032-.051c.054-.083.1-.163.147-.245.02-.039.047-.073.066-.112l.015-.035c.034-.07.061-.141.088-.212.019-.048.044-.093.059-.139l0-.02c.025-.077.039-.145.054-.211s.03-.1.039-.156l0-.026c.012-.071.013-.141.02-.212,0-.051.014-.1.014-.154v-.046Z" transform="translate(-391.921 -304.563)" fill="#09425e"/>
        </g>
        <path id="Path_2510" data-name="Path 2510" d="M440.62,422.253l-7.1-4.435a4.473,4.473,0,0,0-3.977-.495c-1.7.658-1.886,2.081-.552,2.916l7.6,4.748a4.378,4.378,0,0,0,3.875.181C441.983,424.462,442.049,423.145,440.62,422.253Z" transform="translate(-366.838 -275.548)" fill="#517fa2"/>
      </g>
    </g>
    <g id="Group_338" data-name="Group 338" transform="translate(357.937 -77.157)">
      <g id="Group_1709" data-name="Group 1709" transform="translate(0 0)" style="isolation: isolate">
        <g id="Group_1691" data-name="Group 1691" transform="translate(56.645 91.536)">
          <path id="Path_2511" data-name="Path 2511" d="M472,419.927a4.956,4.956,0,0,0-1.168-.528,6.917,6.917,0,0,0-3.627-.093,5.175,5.175,0,0,0-1.5.619c-1.744,1.09-1.752,2.86-.02,3.95a5.449,5.449,0,0,0,1.981.72,6.438,6.438,0,0,0,4.322-.72C473.731,422.784,473.736,421.017,472,419.927Z" transform="translate(-464.39 -419.108)" fill="#fff"/>
        </g>
        <g id="Group_1692" data-name="Group 1692" transform="translate(65.572 60.114)">
          <path id="Path_2512" data-name="Path 2512" d="M491.505,401.955H469.663a1.935,1.935,0,0,1,.508,2.27l21.421,0A1.874,1.874,0,0,1,491.505,401.955Z" transform="translate(-469.663 -401.955)" fill="#fff"/>
        </g>
        <g id="Group_1693" data-name="Group 1693" transform="translate(57.35 58.822)">
          <path id="Path_2513" data-name="Path 2513" d="M472.423,402.067a6.481,6.481,0,0,0-6.3,0c-1.744,1.09-1.754,2.86-.02,3.95a4.788,4.788,0,0,0,.965.46,6.869,6.869,0,0,0,3.621.205,5.342,5.342,0,0,0,1.71-.667,2.915,2.915,0,0,0,1.139-1.2,1.935,1.935,0,0,0-.508-2.27A3.537,3.537,0,0,0,472.423,402.067Z" transform="translate(-464.807 -401.25)" fill="#fff"/>
        </g>
        <g id="Group_1694" data-name="Group 1694" transform="translate(87.073 58.39)">
          <path id="Path_2514" data-name="Path 2514" d="M489.974,401.833a4.721,4.721,0,0,0-.76-.383,6.767,6.767,0,0,0-3.623-.326,5.409,5.409,0,0,0-1.915.707,3.144,3.144,0,0,0-.972.907,1.874,1.874,0,0,0,.086,2.272,3.2,3.2,0,0,0,.865.769,6.48,6.48,0,0,0,6.3,0C491.7,404.689,491.708,402.923,489.974,401.833Z" transform="translate(-482.362 -401.014)" fill="#fff"/>
        </g>
        <g id="Group_1695" data-name="Group 1695" transform="translate(148.214 33.531)">
          <path id="Path_2515" data-name="Path 2515" d="M518.475,389.147,524.6,393l2.726-1.7-6.13-3.854Z" transform="translate(-518.475 -387.444)" fill="#d6e6ed"/>
        </g>
        <g id="Group_1696" data-name="Group 1696" transform="translate(146.977 26.615)">
          <path id="Path_2516" data-name="Path 2516" d="M517.744,385.371l12.264,7.711,2.726-1.7-12.264-7.711Z" transform="translate(-517.744 -383.668)" fill="#d6e6ed"/>
        </g>
        <g id="Group_1697" data-name="Group 1697" transform="translate(154.83 25.415)">
          <path id="Path_2517" data-name="Path 2517" d="M522.383,384.716l9.307,5.852,2.726-1.7-9.307-5.852Z" transform="translate(-522.383 -383.013)" fill="#d6e6ed"/>
        </g>
        <g id="Group_1698" data-name="Group 1698" transform="translate(153.368 24.588)">
          <path id="Path_2518" data-name="Path 2518" d="M521.519,399.268l3.32,2.088,26.743-16.706-3.32-2.088Z" transform="translate(-521.519 -382.562)" fill="#d6e6ed"/>
        </g>
        <g id="Group_1699" data-name="Group 1699" transform="translate(88.036 24.747)">
          <path id="Path_2519" data-name="Path 2519" d="M490.548,383.466a6.475,6.475,0,0,0-4.622-.661,5.391,5.391,0,0,0-1.681.661c-1.744,1.09-1.754,2.86-.02,3.95a4.952,4.952,0,0,0,1.119.513,6.947,6.947,0,0,0,3.625.121,5.278,5.278,0,0,0,1.559-.634C492.272,386.326,492.282,384.556,490.548,383.466Z" transform="translate(-482.931 -382.649)" fill="#fff"/>
        </g>
        <g id="Group_1700" data-name="Group 1700" transform="translate(151.79 17.363)">
          <path id="Path_2520" data-name="Path 2520" d="M520.587,380.318l17.248,10.845,2.722-1.7-17.248-10.845Z" transform="translate(-520.587 -378.618)" fill="#d6e6ed"/>
        </g>
        <g id="Group_1701" data-name="Group 1701" transform="translate(59.398 12.835)">
          <path id="Path_2521" data-name="Path 2521" d="M497.649,388.214a6.475,6.475,0,0,1,4.622.661c1.734,1.09,1.724,2.86-.02,3.95a5.278,5.278,0,0,1-1.559.634l-.149,28.678a4.72,4.72,0,0,1,.76.383c1.734,1.09,1.729,2.856-.017,3.946a6.481,6.481,0,0,1-6.3,0,3.2,3.2,0,0,1-.865-.769l-21.421,0a2.915,2.915,0,0,1-1.139,1.2,5.342,5.342,0,0,1-1.71.667l-.142,27.573a4.948,4.948,0,0,1,1.168.528c1.734,1.09,1.729,2.858-.015,3.948a6.438,6.438,0,0,1-4.322.72l-.522,9.8,3.513,2.209L560.2,415.7l-62.911-39.556Z" transform="translate(-466.016 -376.146)" fill="#09425e"/>
        </g>
        <g id="Group_1702" data-name="Group 1702" transform="translate(0 12.835)">
          <path id="Path_2522" data-name="Path 2522" d="M520.283,388.876a5.388,5.388,0,0,1,1.681-.661l-.356-12.068-90.676,56.643,59.4,37.348.522-9.8a5.448,5.448,0,0,1-1.981-.72c-1.732-1.09-1.724-2.86.02-3.95a5.173,5.173,0,0,1,1.5-.619l.147-27.685a4.791,4.791,0,0,1-.965-.46c-1.734-1.09-1.724-2.86.02-3.95a6.481,6.481,0,0,1,6.3,0,3.535,3.535,0,0,1,.606.474h21.842a3.144,3.144,0,0,1,.972-.907,5.409,5.409,0,0,1,1.915-.707l.147-28.473a4.953,4.953,0,0,1-1.119-.513C518.529,391.735,518.539,389.966,520.283,388.876Z" transform="translate(-430.933 -376.146)" fill="#09425e"/>
        </g>
        <g id="Group_1703" data-name="Group 1703" transform="translate(150.856 10.638)">
          <path id="Path_2523" data-name="Path 2523" d="M520.035,376.647l23.079,14.512,2.722-1.7-23.079-14.512Z" transform="translate(-520.035 -374.946)" fill="#d6e6ed"/>
        </g>
        <g id="Group_1704" data-name="Group 1704" transform="translate(119.615 3.456)">
          <path id="Path_2524" data-name="Path 2524" d="M501.583,392.944l38.485,24.2,35.087-21.92-38.483-24.2Zm30.087,1.24,12.265,7.712-2.728,1.7-12.263-7.712Zm2.088-7.551,2.723-1.7,17.247,10.845-2.721,1.7Zm15.073,12.2-2.726,1.7-9.307-5.853,2.726-1.7ZM532.908,401.1l6.129,3.854-2.726,1.7-6.129-3.854Zm32.492-6.855-26.744,16.7-3.32-2.087,26.742-16.707Zm-9.5.172-23.08-14.512,2.723-1.7,23.08,14.512Z" transform="translate(-501.583 -371.026)" fill="#09425e"/>
        </g>
        <g id="Group_1705" data-name="Group 1705" transform="translate(59.462 64.049)">
          <path id="Path_2525" data-name="Path 2525" d="M466.2,404.1l-.147,27.685a6.917,6.917,0,0,1,3.627.093l.142-27.573A6.869,6.869,0,0,1,466.2,404.1Z" transform="translate(-466.054 -404.103)" fill="#fff"/>
        </g>
        <g id="Group_1706" data-name="Group 1706" transform="translate(90.301 30.027)">
          <path id="Path_2526" data-name="Path 2526" d="M484.416,385.531,484.269,414a6.767,6.767,0,0,1,3.623.326l.149-28.678A6.947,6.947,0,0,1,484.416,385.531Z" transform="translate(-484.269 -385.531)" fill="#fff"/>
        </g>
        <g id="Group_1707" data-name="Group 1707" transform="translate(110.382 9.839)">
          <path id="Path_2527" data-name="Path 2527" d="M496.147,374.552l.04-.025-.058-.016Z" transform="translate(-496.13 -374.511)" fill="#5498b4"/>
        </g>
        <g id="Group_1708" data-name="Group 1708" transform="translate(124.841)">
          <path id="Path_2528" data-name="Path 2528" d="M504.7,369.34l.257-.161-.287-.04Z" transform="translate(-504.67 -369.14)" fill="#09425e"/>
        </g>
      </g>
    </g>
    <path id="Path_295" data-name="Path 295" d="M470.779,512.2l149.99-93.7L505.536,346.051Z" transform="translate(-45.38 -465.503)" fill="#fff" opacity="0.1"/>
    <ellipse id="Ellipse_38" data-name="Ellipse 38" cx="27.479" cy="17.874" rx="27.479" ry="17.874" transform="translate(443.841 -95.309)" fill="url(#linear-gradient-2)" style="mix-blend-mode: multiply;isolation: isolate"/>
    <g id="Group_339" data-name="Group 339" transform="translate(452.695 -105.84)">
      <path id="Path_2530" data-name="Path 2530" d="M515.107,354.47c-.1-.02-.19-.044-.288-.064-.059-.015-.12-.024-.176-.037-9.439-1.989-20.258-.634-27.743,4.072l19.5,12.116,21.226-10.279c.5.4.961.817,1.392,1.238a21.665,21.665,0,0,0-3.9-3.076A32.221,32.221,0,0,0,515.107,354.47Z" transform="translate(-486.901 -353.482)" fill="#d5e0ee"/>
    </g>
    <path id="Path_296" data-name="Path 296" d="M527.076,365.868a8.984,8.984,0,0,1-1.143,2.781,18.107,18.107,0,0,1-6.329,6.313c-6.652,4.182-15.935,5.715-24.543,4.611l-.015,5.648q.879.11,1.766.185v.04c.132.013.264.026.4.037.554.048,1.107.082,1.659.108a42.819,42.819,0,0,0,6.247-.169,34.008,34.008,0,0,0,15.593-5.276q.406-.277.8-.57l.058-.042v-.313h0v.313a19.4,19.4,0,0,0,2.431-2.162l.066-.07a15.452,15.452,0,0,0,1.657-2.1c.169-.258.33-.518.479-.784.12-.211.234-.425.34-.641l0-.005q.2-.4.364-.808l0-.238,0,.238c.051-.119.1-.24.142-.361v0c.037-.1.073-.2.107-.295.024-.07.046-.139.069-.207q.079-.247.147-.495l.039-.147a2.105,2.105,0,0,0,0-.253l0-.26a10.665,10.665,0,0,0,.215-2.068l-.168-6.459A33.356,33.356,0,0,1,527.076,365.868Z" transform="translate(-28.561 -451.884)" fill="#f4af99"/>
    <g id="Group_340" data-name="Group 340" transform="translate(472.199 -99.043)">
      <path id="Path_2532" data-name="Path 2532" d="M521.279,358.672c-.076-.082-.161-.161-.24-.242-.43-.421-.892-.835-1.392-1.238l-21.226,10.279L523.6,373c2.612-4.662,1.862-9.9-2.242-14.25Z" transform="translate(-498.421 -357.192)" fill="#517fa2"/>
    </g>
    <g id="Group_341" data-name="Group 341" transform="translate(444.825 -88.984)">
      <path id="Path_2533" data-name="Path 2533" d="M482.267,362.683l-.014,5.646c-.012,4.363,2.65,8.732,7.979,12.061A34.258,34.258,0,0,0,503.914,385l.015-5.648a34.243,34.243,0,0,1-13.683-4.611C484.916,371.416,482.256,367.045,482.267,362.683Z" transform="translate(-482.253 -362.683)" fill="#002d42"/>
    </g>
    <g id="Group_342" data-name="Group 342" transform="translate(444.839 -100.88)">
      <path id="Path_2534" data-name="Path 2534" d="M490.24,380.146a34.243,34.243,0,0,0,13.683,4.611l5.7-16.452-19.5-12.116C479.6,362.8,479.648,373.53,490.24,380.146Z" transform="translate(-482.261 -356.189)" fill="#565ace" stroke="rgba(0,0,0,0)" stroke-width="1"/>
    </g>
    <g id="Group_343" data-name="Group 343" transform="translate(466.48 -72.29)">
      <path id="Path_2535" data-name="Path 2535" d="M495.043,377.444c.449.06.9.115,1.344.161.005-1.881.014-3.765.014-5.646-.447-.048-.9-.1-1.344-.163Z" transform="translate(-495.043 -371.796)" fill="#f4af99"/>
    </g>
    <g id="Group_344" data-name="Group 344" transform="translate(467.824 -72.127)">
      <path id="Path_2536" data-name="Path 2536" d="M495.837,377.531c.144.016.286.029.428.042q.005-2.822.014-5.646c-.142-.013-.284-.027-.428-.042C495.85,373.766,495.842,375.649,495.837,377.531Z" transform="translate(-495.837 -371.885)" fill="#f4af99"/>
    </g>
    <g id="Group_345" data-name="Group 345" transform="translate(466.502 -88.764)">
      <path id="Path_2537" data-name="Path 2537" d="M495.056,379.255c8.608,1.1,17.891-.429,24.543-4.611a18.107,18.107,0,0,0,6.329-6.313L500.753,362.8Z" transform="translate(-495.056 -362.803)" fill="#ffec83"/>
    </g>
    <path id="Path_297" data-name="Path 297" d="M527.168,365.289a10.751,10.751,0,0,1-1.234,3.36,18.107,18.107,0,0,1-6.329,6.313c-6.652,4.182-15.935,5.715-24.543,4.611l-.015,5.648q.879.11,1.766.185v.04c.132.013.264.026.4.037.554.048,1.107.082,1.659.108a42.819,42.819,0,0,0,6.247-.169,34.008,34.008,0,0,0,15.593-5.276q.406-.277.8-.57l.058-.042v-.313h0v.313a19.4,19.4,0,0,0,2.431-2.162l.066-.07a15.452,15.452,0,0,0,1.657-2.1c.169-.258.33-.518.479-.784.12-.211.234-.425.34-.641l0-.005q.2-.4.364-.808l0-.238,0,.238c.051-.119.1-.24.142-.361v0c.037-.1.073-.2.107-.295.024-.07.046-.139.069-.207q.079-.247.147-.495l.039-.147a2.105,2.105,0,0,0,0-.253l0-.26a10.665,10.665,0,0,0,.215-2.068l-.168-6.459A23.054,23.054,0,0,1,527.168,365.289Z" transform="translate(-28.561 -451.884)" fill="#edbf7a"/>
    <path id="Path_298" data-name="Path 298" d="M514.6,365.289a10.75,10.75,0,0,1-1.234,3.36c-.053.093-.127.183-.183.277v6.227c.157-.24.306-.482.445-.729.12-.211.234-.425.34-.641l0-.005q.2-.4.364-.808c.051-.119.1-.24.142-.361v0c.037-.1.073-.2.107-.295.024-.07.046-.139.07-.209.052-.163.1-.328.147-.493.013-.049.027-.1.039-.147a2.513,2.513,0,0,0,0-.253v-.26a10.665,10.665,0,0,0,.215-2.068l-.168-6.459A23.007,23.007,0,0,1,514.6,365.289Z" transform="translate(-15.992 -451.884)" fill="#517fa2"/>
    <path id="Path_299" data-name="Path 299" d="M482.267,362.683l-.014,5.646c-.012,4.363,2.65,8.732,7.979,12.061A34.258,34.258,0,0,0,503.914,385l.015-5.648a34.243,34.243,0,0,1-13.683-4.611C484.916,371.416,482.256,367.045,482.267,362.683Z" transform="translate(-37.428 -451.667)" fill="#2b2f98" stroke="rgba(0,0,0,0)" stroke-width="1"/>
    <g id="Group_2264" data-name="Group 2264">
      <path id="Path_300" data-name="Path 300" d="M481.07,316.077l-10.07-6.7-.008.016-.025-.016h0l-7.507,16.476L467,328.077l.269,85.8,10.1,6.353,8.013-5-.279-90.238,3.532-1.858Zm-10.086-6.688.005.005Z" transform="translate(-50.453 -496.015)" fill="#d5e0ee"/>
      <g id="Group_346" data-name="Group 346" transform="translate(423.111 -179.939)">
        <path id="Path_2542" data-name="Path 2542" d="M476.934,313.032l-7.507,16.476,3.533-2.207.281,90.238,8.014-5.006-.281-90.238,3.533-2.207Z" transform="translate(-469.427 -313.032)" fill="#fff"/>
      </g>
    </g>
    <g id="Group_2265" data-name="Group 2265">
      <path id="Path_301" data-name="Path 301" d="M464.064,340.991l-8.284,5.175.2,69.084,10.1,6.353,8.284-5.175-.2-69.084Z" transform="translate(-55.776 -469.712)" fill="#d5e0ee"/>
      <g id="Group_347" data-name="Group 347" transform="translate(410.109 -122.367)">
        <path id="Path_2544" data-name="Path 2544" d="M461.748,349.634l.2,69.084,8.284-5.175-.2-69.084Z" transform="translate(-461.748 -344.459)" fill="#fff"/>
      </g>
    </g>
    <g id="Group_2266" data-name="Group 2266">
      <path id="Path_302" data-name="Path 302" d="M454.268,353.625l-8.284,5.175.168,56.321,10.1,6.354,8.284-5.175-.168-56.321Z" transform="translate(-62.565 -459.202)" fill="#d5e0ee"/>
    </g>
    <g id="Group_348" data-name="Group 348" transform="translate(393.524 -99.223)">
      <path id="Path_2546" data-name="Path 2546" d="M451.952,362.269l.168,56.321,8.284-5.175-.168-56.321Z" transform="translate(-451.952 -357.094)" fill="#fff"/>
    </g>
    <g id="Group_2267" data-name="Group 2267">
      <path id="Path_303" data-name="Path 303" d="M444.479,367.892l-8.284,5.175.127,40.565,10.1,6.354,8.284-5.175-.127-40.565Z" transform="translate(-69.349 -447.334)" fill="#d5e0ee"/>
    </g>
    <g id="Group_349" data-name="Group 349" transform="translate(376.951 -73.088)">
      <path id="Path_2548" data-name="Path 2548" d="M442.163,376.535l.127,40.565,8.284-5.175-.127-40.565Z" transform="translate(-442.163 -371.36)" fill="#fff"/>
    </g>
    <path id="Path_304" data-name="Path 304" d="M433.09,398.723l-1.8.648c-6.32-.6-11.217,1.539-15.583,6.479-10.162,11.5,11.626,9.277,18.617,8.423C449.738,412.392,447.2,394,433.09,398.723Z" transform="translate(-85.386 -422.329)" fill="#6c90b1" opacity="0.1" style="mix-blend-mode: multiply;isolation: isolate"/>
    <path id="Path_305" data-name="Path 305" d="M425.127,405.354l-3.513-4.184-4.878.872v2.4a2,2,0,0,0,.821,1.667l6.147,4.072s2.763.909,3.764-1.588l-.025-.165C427.274,407.314,425.794,406.156,425.127,405.354Z" transform="translate(-82.835 -419.651)" fill="#0d343a"/>
    <path id="Path_306" data-name="Path 306" d="M431.425,402l-3.164-4.109-4.4.857v2.354a2.023,2.023,0,0,0,.74,1.638l2.966,1.315s3.183,2.8,4.581,2.195C433.377,405.718,434.415,404.058,431.425,402Z" transform="translate(-77.895 -422.376)" fill="#0d343a"/>
    <path id="Path_307" data-name="Path 307" d="M434.152,381.4c-.107-2.515,0-11.905,0-11.905-1.918,1.191-2.722-.018-4.553.954-4.929,2.621-14.085,1.848-14.2-1.6l1.349,33.335.894,27.189c5.418,2.651,5.665-.751,5.665-.751l2.487-43.216,3.88,38.169c4.964,1.583,4.575-1,4.575-1C434.612,387.942,434.429,387.949,434.152,381.4Z" transform="translate(-83.764 -446.535)" fill="#565ace" stroke="rgba(0,0,0,0)" stroke-width="1"/>
    <path id="Path_308" data-name="Path 308" d="M421.172,395.062c-.7,9.473-1.676,20.275-2.98,29.654a3.226,3.226,0,0,0,3.174-1.872l2.551-44.188s1.984-1.575,3.557-2.856a26.9,26.9,0,0,1-5.242,1.506S421.368,392.4,421.172,395.062Z" transform="translate(-81.826 -440.755)" fill="#6c90b1" opacity="0.1" style="mix-blend-mode: multiply;isolation: isolate"/>
    <path id="Path_309" data-name="Path 309" d="M427.464,371.276c-.372.78-2.03,12.884-2.284,30.884-.061,4.314-.02,11.325-.01,15.639a35.585,35.585,0,0,1-.2,4.552,3.775,3.775,0,0,0,2.646-1.792c.366-34.633.183-34.626-.095-41.177C427.483,378.534,427.464,373.062,427.464,371.276Z" transform="translate(-77.131 -444.519)" fill="#6c90b1" opacity="0.1" style="mix-blend-mode: multiply;isolation: isolate"/>
    <g id="Group_350" data-name="Group 350" transform="translate(347.736 -108.556)">
      <path id="Path_2555" data-name="Path 2555" d="M429.831,372.206l-1.583.8a4.215,4.215,0,0,0-.716,2.887l.122,1.123.21,1.79-.328,1.746s-.1,1.145.753.9l.45-1.379-.093,1.147s-.714,1.456.462,1.6l.207-.361a.666.666,0,0,0,.792.429,11.587,11.587,0,0,0,.992-3.462.855.855,0,0,0,.74.244l-.061-3.79Z" transform="translate(-423.103 -335.189)" fill="#df9877"/>
      <path id="Path_2556" data-name="Path 2556" d="M428.475,352.007c-4.151.326-3.535,7.811-3.535,7.811l1.133,15.263,2.81,15.5a2.728,2.728,0,0,0,3.415-1.127l-1.126-16.031,1.153-13.173S432.325,351.7,428.475,352.007Z" transform="translate(-424.908 -351.999)" fill="#517fa2"/>
      <path id="Path_2557" data-name="Path 2557" d="M429.14,360.237a11.063,11.063,0,0,1,.242-2.213,7.414,7.414,0,0,1-3.686.923c-.2,0-.394-.018-.589-.031l.828,11.152,2.81,15.5a2.672,2.672,0,0,0,2.921-.557C428.48,370.986,429.123,363.474,429.14,360.237Z" transform="translate(-424.77 -346.986)" fill="#6c90b1" opacity="0.1" style="mix-blend-mode: multiply;isolation: isolate"/>
    </g>
    <path id="Path_310" data-name="Path 310" d="M433.39,351.118l-2.753-.588-3.329-.077-5.863,2.563A6.809,6.809,0,0,0,416.612,359L415.138,388.6s-.308,1.863,8.58,2.447a22.484,22.484,0,0,0,10.831-2.079c.264-5.188-.538-9.656.547-14.734,1.361-6.375,2.814-12.261,2.849-18.736a15.953,15.953,0,0,1-3.991-3.094A2.273,2.273,0,0,1,433.39,351.118Z" transform="translate(-83.944 -461.841)" fill="#517fa2"/>
    <path id="Path_311" data-name="Path 311" d="M422.307,353.41a3.809,3.809,0,0,0,2.772,4.475,3.545,3.545,0,0,0,4.136-3l1.112-6.111-6.4-1.365Z" transform="translate(-79.021 -464.375)" fill="#df9877"/>
    <path id="Path_312" data-name="Path 312" d="M425.976,348.041a63.468,63.468,0,0,1-3.7,6.564,3.678,3.678,0,0,0,2.775,3.065,3.545,3.545,0,0,0,4.136-3l1.112-6.111-4.163-.888C426.082,347.792,426.035,347.916,425.976,348.041Z" transform="translate(-78.994 -464.159)" fill="#6c90b1" opacity="0.1" style="mix-blend-mode: multiply;isolation: isolate"/>
    <path id="Path_313" data-name="Path 313" d="M423.4,349.607l-1.978,2.215c.923,5.234,4.739,6.776,4.739,6.776l1.38-2.713C423.723,354.053,423.4,349.607,423.4,349.607Z" transform="translate(-79.584 -462.545)" fill="#fff"/>
    <path id="Path_314" data-name="Path 314" d="M425.041,354.688a11.531,11.531,0,0,1,1.732,2.484s1.734-4.38.648-6.126A4.583,4.583,0,0,1,425.041,354.688Z" transform="translate(-77.08 -461.348)" fill="#fff"/>
    <path id="Path_315" data-name="Path 315" d="M425.931,353.3l-.726.11-.846,1.663.857,1.746,1.472.051.555-1.583-.576-1.021Z" transform="translate(-77.552 -459.469)" fill="#fdd663"/>
    <g id="Group_351" data-name="Group 351" transform="translate(342.772 -126.763)">
      <path id="Path_2564" data-name="Path 2564" d="M422.524,350.5c-.813,2.977,3.371,6.04,3.654,6.2,2.133,1.22,4.422-.024,5.249-3.056l2.082-7.63-10.033-1.205Z" transform="translate(-421.669 -339.773)" fill="#df9877"/>
      <path id="Path_2565" data-name="Path 2565" d="M423.622,343.874c-1.507,1.147-1.576,4.406-1.637,5.926a11.537,11.537,0,0,0,1.432,5.981l1.288-5.012.33.971.642-.247s.56-2.391.676-2.742c.389-1.2,7.135.76,7.135.76s3.327-.54-.032-4.66C430.377,341.075,426.708,341.522,423.622,343.874Z" transform="translate(-421.976 -342.06)" fill="#002d42"/>
      <path id="Path_2566" data-name="Path 2566" d="M422.775,346.994c-.444.986.081,3.045,1.006,2.779l.652-2.108S423.569,345.232,422.775,346.994Z" transform="translate(-421.533 -338.488)" fill="#df9877"/>
    </g>
    <g id="Group_352" data-name="Group 352" transform="translate(328.039 -112.28)">
      <path id="Path_2567" data-name="Path 2567" d="M423.621,352.422c-3.935-1.464-6.459,5.5-6.459,5.5l-3.691,14.041a5.517,5.517,0,0,0,.019,2.99c.51,1.683,1.781,3.843,4.925,3.1l1.263-3.107,3.9-13.028S426.627,353.539,423.621,352.422Z" transform="translate(-413.274 -348.091)" fill="#517fa2"/>
      <path id="Path_2568" data-name="Path 2568" d="M417.1,372.7l3.9-13.028a28.319,28.319,0,0,0,1.214-4.756c-.427.725-4,9.941-4.592,12.134C416.618,370.81,417.1,372.7,417.1,372.7Z" transform="translate(-410.7 -345.845)" fill="#6c90b1" opacity="0.1" style="mix-blend-mode: multiply;isolation: isolate"/>
      <path id="Path_2569" data-name="Path 2569" d="M429.731,351.873a32.207,32.207,0,0,1-2.524,2.039c-.97.652-1.776-1.022-1.776-1.022l-.332-2.2a1.676,1.676,0,0,0-1.243-.72l.107,3.054-1.26,4.737,2.959,3.059,2.939-1.645a1.322,1.322,0,0,0,.64-1.288l-.339-3.464.923-1.259,1.4-1.9C430.361,350.636,429.731,351.873,429.731,351.873Z" transform="translate(-406.738 -349.966)" fill="#df9877"/>
      <path id="Path_2570" data-name="Path 2570" d="M428.418,354.219c-8.323,14.629-13.961,17.251-13.961,17.251l3.137,4.924c7.426-2.753,14.079-18.8,14.079-18.8A3.581,3.581,0,0,0,428.418,354.219Z" transform="translate(-412.453 -346.428)" fill="#517fa2"/>
      <path id="Path_2571" data-name="Path 2571" d="M428.48,354.439a47.972,47.972,0,0,1-6.7,15.516,59.516,59.516,0,0,1-5.472,6.256c7.426-2.753,14.08-18.795,14.08-18.795A3.687,3.687,0,0,0,428.48,354.439Z" transform="translate(-411.169 -346.245)" fill="#6c90b1" opacity="0.1" style="mix-blend-mode: multiply;isolation: isolate"/>
    </g>
  </g>
</svg>
