<svg xmlns="http://www.w3.org/2000/svg" xmlns:xlink="http://www.w3.org/1999/xlink" width="208.621" height="238.237" viewBox="0 0 208.621 238.237">
  <defs>
    <linearGradient id="linear-gradient" x1="0.477" y1="1.051" x2="0.523" y2="-0.05" gradientUnits="objectBoundingBox">
      <stop offset="0" stop-color="#aac4d8"/>
      <stop offset="1" stop-color="#fff"/>
    </linearGradient>
  </defs>
  <g id="Group_2227" data-name="Group 2227" transform="translate(934.918 -112.779)">
    <g id="Group_2223" data-name="Group 2223" transform="translate(-934.918 208.043)">
      <path id="Path_1890" data-name="Path 1890" d="M348.771,310.238,252.9,254.243a12.589,12.589,0,0,0-11.482,0L144.93,310.236c-3.183,1.847-3.2,4.839-.038,6.686l95.866,55.995a12.59,12.59,0,0,0,11.482,0l96.493-55.995C351.916,315.076,351.932,312.085,348.771,310.238Z" transform="translate(-142.531 -231.329)" opacity="0.5" fill="url(#linear-gradient)" style="mix-blend-mode: multiply;isolation: isolate"/>
      <g id="Group_1402" data-name="Group 1402" transform="translate(0)">
        <g id="Group_1401" data-name="Group 1401" style="isolation: isolate">
          <g id="Group_1400" data-name="Group 1400" transform="translate(0.001)">
            <path id="Path_1891" data-name="Path 1891" d="M348.771,270.263,252.9,214.268a12.59,12.59,0,0,0-11.482,0L144.93,270.261c-3.183,1.847-3.2,4.839-.038,6.686l95.866,55.995a12.59,12.59,0,0,0,11.482,0l96.493-55.995C351.916,275.1,351.932,272.11,348.771,270.263Z" transform="translate(-142.531 -212.883)" fill="#fff"/>
          </g>
          <path id="Path_1892" data-name="Path 1892" d="M348.734,245.071l-96.493,55.995a12.59,12.59,0,0,1-11.482,0l-95.866-55.995a4.057,4.057,0,0,1-2.361-3.319l.023,7.6a4.054,4.054,0,0,0,2.359,3.319l95.866,55.995a12.589,12.589,0,0,0,11.482,0l96.493-55.995c1.6-.929,2.4-2.148,2.4-3.365l-.021-7.6C351.135,242.923,350.334,244.143,348.734,245.071Z" transform="translate(-142.531 -181.007)" fill="#e8eef5"/>
        </g>
      </g>
    </g>
    <g id="Group_2224" data-name="Group 2224" transform="translate(-915.648 138.566)">
      <g id="Group_1405" data-name="Group 1405" transform="translate(32.678 22.778)">
        <path id="Path_1893" data-name="Path 1893" d="M186.246,192.374c-.191.124-13.793,4.888-16.2,6.141a4.992,4.992,0,0,0-2.726,3.338,5.265,5.265,0,0,0,4.941.986c2.657-1,15.9-8.026,16.353-8.929A9.885,9.885,0,0,0,186.246,192.374Z" transform="translate(-167.324 -188.869)" fill="#fcb698"/>
        <g id="Group_1404" data-name="Group 1404" transform="translate(18.493)">
          <path id="Path_1894" data-name="Path 1894" d="M181.795,192.6c-.256-.446.09-.263,1.182-.773s.58-1.122.58-1.122a20.277,20.277,0,0,1-3.449,1.148,3.978,3.978,0,0,0-2.267.956c-.9.573-1.19,1.575-1.448,1.83,0,0-1.092,2.23,1.351,2.039a36.989,36.989,0,0,0,6.217-.842c.834-.318.214-2.917.021-3.043S182.052,193.05,181.795,192.6Z" transform="translate(-176.15 -190.708)" fill="#fcb698"/>
          <path id="Path_1895" data-name="Path 1895" d="M183.8,191.35a7.216,7.216,0,0,0-2.244.571,10.9,10.9,0,0,1-2.678.192l1.471.836a8.846,8.846,0,0,0,3.771-1.293S184.025,191.384,183.8,191.35Z" transform="translate(-173.161 -190.009)" fill="#fcb698"/>
          <path id="Path_1896" data-name="Path 1896" d="M184.4,191.64a7.952,7.952,0,0,0-2.315.613,25.541,25.541,0,0,1-3.128.505l1.777.537a10.086,10.086,0,0,0,3.989-1.348S184.622,191.676,184.4,191.64Z" transform="translate(-173.081 -189.688)" fill="#fcb698"/>
          <path id="Path_1897" data-name="Path 1897" d="M184.461,192.079a7.869,7.869,0,0,0-2.342.482,22.815,22.815,0,0,1-3.162.278l1.574.722a11.2,11.2,0,0,0,4.237-1.158S184.683,192.127,184.461,192.079Z" transform="translate(-173.076 -189.213)" fill="#fcb698"/>
          <path id="Path_1898" data-name="Path 1898" d="M184.338,192.506a7.882,7.882,0,0,0-2.342.482,22.815,22.815,0,0,1-3.162.278l1.228.682a14.378,14.378,0,0,0,4.582-1.118S184.56,192.552,184.338,192.506Z" transform="translate(-173.21 -188.74)" fill="#fcb698"/>
        </g>
      </g>
      <path id="Path_1899" data-name="Path 1899" d="M191.41,198.465c-3.428,1.242-8.515,2.727-11.14,3.669-2.648-2.114-10.723-8.63-15.373-13.086-1.108-1.061-5.138-1.413-6.428,2.845,0,0,3.059,2.536,6.984,6.423,2.747,2.721,6.4,5.092,11.956,8.259a6.542,6.542,0,0,0,.8.457l.212.12.013-.021a4.667,4.667,0,0,0,3.531.145c1.571-.592,6.849-3.294,10.992-5.587-.5-.975-.983-1.959-1.437-2.959C191.479,198.644,191.447,198.553,191.41,198.465Z" transform="translate(-144.346 -170.529)" fill="#fff"/>
      <path id="Path_1900" data-name="Path 1900" d="M171.23,234.072c-4.354-.5-17.845,3.3-17.923,9.022-.075,5.644,12.727,3.473,16.969,2.62,2.9-.583,13.579-3.005,14.162-6.461C185.228,234.575,173.227,233.7,171.23,234.072Z" transform="translate(-149.999 -120.057)" fill="#6c90b1" opacity="0.1" style="mix-blend-mode: multiply;isolation: isolate"/>
      <path id="Path_1901" data-name="Path 1901" d="M180.762,205.836c-3.66-.887-6.849-4.113-10-6.017a73.555,73.555,0,0,1-9.628-7.007,2.863,2.863,0,0,1-.346-4.229,4.85,4.85,0,0,0-2.324,3.058s3.059,2.536,6.984,6.423c2.747,2.721,6.4,5.092,11.956,8.26a6.545,6.545,0,0,0,.8.457l.212.12.013-.021a4.667,4.667,0,0,0,3.531.145c.918-.345,3.1-1.413,5.584-2.7C185.224,204.852,183.121,206.407,180.762,205.836Z" transform="translate(-144.346 -170.279)" fill="#6c90b1" opacity="0.2" style="mix-blend-mode: multiply;isolation: isolate"/>
      <g id="Group_1408" data-name="Group 1408" transform="translate(0)">
        <g id="Group_1407" data-name="Group 1407">
          <g id="Group_1406" data-name="Group 1406">
            <path id="Path_1902" data-name="Path 1902" d="M171.478,238.2c-1.37-1.044-5.263-4.054-5.835-6.474l-3.872.206a12.577,12.577,0,0,0-.415,5.292s.507.623,2.583,1.045c2.02.413,3.426,1.931,4.848,2.506a5.487,5.487,0,0,0,4.008-.28.853.853,0,0,0,.369-.783A8.412,8.412,0,0,0,171.478,238.2Z" transform="translate(-141.358 -122.561)" fill="#fcb698"/>
            <path id="Path_1903" data-name="Path 1903" d="M171.478,236.859l-.172-.133a4.965,4.965,0,0,1-2.906-.053c-2.028-.668-3.579-2.266-5.643-2.879a3.44,3.44,0,0,1-1.463-.847,8.4,8.4,0,0,0,.061,2.936s.507.623,2.583,1.045c2.02.413,3.426,1.931,4.848,2.506a5.487,5.487,0,0,0,4.008-.28.853.853,0,0,0,.369-.783A8.412,8.412,0,0,0,171.478,236.859Z" transform="translate(-141.358 -121.215)" fill="#002d42"/>
            <path id="Path_1904" data-name="Path 1904" d="M168.414,237.461c-1.259-.541-2.28-1.462-3.5-2.06-1.207-.59-2.51-.668-3.612-1.459a1.2,1.2,0,0,1-.094-.082,5.588,5.588,0,0,0,.142,1.015s.507.623,2.583,1.045c2.02.413,3.426,1.931,4.848,2.506a5.487,5.487,0,0,0,4.008-.28.853.853,0,0,0,.369-.783s-.027-.038-.09-.112A4.509,4.509,0,0,1,168.414,237.461Z" transform="translate(-141.349 -120.207)" fill="#002d42"/>
            <path id="Path_1905" data-name="Path 1905" d="M163.409,241.039l-3.82-5.846-4.161-.129s-.461,2.649-.585,3.629,4.186,4.764,5.228,5.408c1.06.659,4.513.665,5.008,0C165.644,243.342,165.142,242.264,163.409,241.039Z" transform="translate(-148.319 -118.875)" fill="#fcb698"/>
            <path id="Path_1906" data-name="Path 1906" d="M158.975,240.035a22.686,22.686,0,0,1-2.875-3.355c-.285-.381-.562-.79-.817-1.211-.147.861-.362,2.154-.44,2.776-.124.981,4.186,4.764,5.228,5.408,1.06.659,4.513.665,5.008,0,.471-.634.186-1.491-.922-2.468A5.381,5.381,0,0,1,158.975,240.035Z" transform="translate(-148.319 -118.427)" fill="#002d42"/>
            <path id="Path_1907" data-name="Path 1907" d="M158.843,240.7c-1.421-1.184-3.132-2.588-3.906-4.229-.04.253-.073.482-.094.655-.124.981,4.186,4.764,5.228,5.408,1.06.659,4.513.666,5.008,0a1.076,1.076,0,0,0,.176-.383C163.038,243.032,160.58,242.152,158.843,240.7Z" transform="translate(-148.319 -117.314)" fill="#002d42"/>
            <path id="Path_1908" data-name="Path 1908" d="M153.771,212.861a47.636,47.636,0,0,0,.664,5.263l1.238,22.538a33.88,33.88,0,0,0-.6,11.294c.788,6.571,1.536,15.453,1.536,15.453a4.355,4.355,0,0,0,1.888.571,5.025,5.025,0,0,0,2.259-.6s.983-23.774,1.59-25.777,3.386-22.468,3.386-22.468l7.025-12.553-17.089-.617S153.727,205.752,153.771,212.861Z" transform="translate(-149.491 -151.061)" fill="#fcb698"/>
            <path id="Path_1909" data-name="Path 1909" d="M153.771,212.861a47.636,47.636,0,0,0,.664,5.263l1.238,22.538a33.88,33.88,0,0,0-.6,11.294c.788,6.571,1.536,15.453,1.536,15.453s-.025-14.6-.086-16.458c-.109-3.365-.423-7.234,1.473-10.153.046-1.843-.216-3.69-.166-5.536.1-3.635.97-7.583,5.295-7.912a3.345,3.345,0,0,1,1.439.181c.641-4.534,1.167-8.4,1.167-8.4l7.025-12.553-17.089-.617S153.727,205.752,153.771,212.861Z" transform="translate(-149.491 -151.061)" fill="#6c90b1" opacity="0.2" style="mix-blend-mode: multiply;isolation: isolate"/>
            <path id="Path_1910" data-name="Path 1910" d="M158.686,216.762l4.008,20.152s-.406,7.461-.184,10.77,1.856,13.328,1.856,13.328.432.636,1.907.636c2.005,0,2.326-.752,2.326-.752s-.612-3.538.421-20.112c.488-7.836.518-8.443-1.167-34.811Z" transform="translate(-144.107 -151.048)" fill="#fcb698"/>
            <path id="Path_1911" data-name="Path 1911" d="M158.686,216.762l4.008,20.152s-.406,7.461-.184,10.77,1.856,13.328,1.856,13.328l.029.036c-.3-2.66-.291-5.343-.471-7.908-.61-8.632.771-11.517.023-17.029-.57-4.2-.1-6.585,3.279-9.287a3.583,3.583,0,0,1,1.842-.781c-.22-4.357-.606-10.519-1.215-20.07Z" transform="translate(-144.107 -151.048)" fill="#6c90b1" opacity="0.2" style="mix-blend-mode: multiply;isolation: isolate"/>
            <path id="Path_1912" data-name="Path 1912" d="M156.188,205.969s-2.456.585-2.412,7.7c.008,1.582-.476,13.537-.476,13.537,2.942.939,7.47,2.051,10.439,1.691,9.3-1.129,12.716-3.477,12.716-3.477L173.7,205.956Z" transform="translate(-150.005 -151.067)" fill="#002d42"/>
            <path id="Path_1913" data-name="Path 1913" d="M159.3,205.961l-3.107,0s-2.456.585-2.412,7.7c.008,1.582-.476,13.537-.476,13.537a36.516,36.516,0,0,0,8.415,1.729A32.963,32.963,0,0,1,159.3,205.961Z" transform="translate(-150.005 -151.061)" fill="#6c90b1" opacity="0.1" style="mix-blend-mode: multiply;isolation: isolate"/>
            <path id="Path_1914" data-name="Path 1914" d="M174.829,202.07l-1.532-4.376-1.523-3.852c-.27-1.15-.124-2.666-.325-3.437-.461-1.763-1.546-2-1.546-2a2.832,2.832,0,0,0-1.217-.267c-3.344-.265-11.719-.046-15.58,6.724-.794,1.392,2.827,2.06,2.827,2.06A193.67,193.67,0,0,1,157,216.744l-2.326,10.5c7.853,6.076,19.714-.752,19.714-.752l-2.022-12.309.932-6.741A5.046,5.046,0,0,0,174.829,202.07Z" transform="translate(-150.344 -170.845)" fill="#fff"/>
            <path id="Path_1915" data-name="Path 1915" d="M155.743,196.157c.239,3.57.434,7.809.379,11.646L153.8,218.3a11.531,11.531,0,0,0,2.458,1.449c.461-4.825,1.238-9.635,1.72-14.447.323-3.222.22-5.823-1.745-8.5C156.068,196.582,155.907,196.368,155.743,196.157Z" transform="translate(-149.462 -161.904)" fill="#6c90b1" opacity="0.1" style="mix-blend-mode: multiply;isolation: isolate"/>
            <path id="Path_1916" data-name="Path 1916" d="M161.239,187.971c-2.969-.558-5.2,1.872-5.2,1.872A6.657,6.657,0,0,0,160.9,195.2c3.763,1.179,5.1-.411,5.523-1.148S165.853,188.838,161.239,187.971Z" transform="translate(-147.004 -171.049)" fill="#fcb698"/>
            <path id="Path_1917" data-name="Path 1917" d="M157.226,187.262c.262,1.742-1.094,4.094-1.094,4.094l6.189,1.6a9.922,9.922,0,0,0,1.025-6.36Z" transform="translate(-146.905 -172.472)" fill="#fcb698"/>
            <path id="Path_1918" data-name="Path 1918" d="M156.849,187.262a5.471,5.471,0,0,1-.373,2.491,10.337,10.337,0,0,0,2.858,1.973,2.767,2.767,0,0,0,2.022.145,5.653,5.653,0,0,0,1.333-.623,10.636,10.636,0,0,0,.281-4.648Z" transform="translate(-146.528 -172.472)" fill="#6c90b1" opacity="0.2" style="mix-blend-mode: multiply;isolation: isolate"/>
            <path id="Path_1919" data-name="Path 1919" d="M155.294,184.075l.911,6.164c.723,3.492,6.273,5.136,6.273,5.136,3.243.857,4.654-2.361,4.654-5.7l-.367-7.628Z" transform="translate(-147.822 -177.509)" fill="#fcb698"/>
            <path id="Path_1920" data-name="Path 1920" d="M162.367,179.892c-7.392,0-7.989,6.573-8.086,8.382-.086,1.586-.427,13.339-.427,13.339l4.991-3.256a7.288,7.288,0,0,0,.867-2.613l-.214-5.73a28.419,28.419,0,0,0,3.4-1.662c.706-.468,3.321-2.445,3.321-2.445A8.553,8.553,0,0,0,169.3,187.5S170.58,179.892,162.367,179.892Z" transform="translate(-149.399 -179.892)" fill="#8f644d"/>
            <path id="Path_1921" data-name="Path 1921" d="M155.258,191.236a1.333,1.333,0,0,0-1,.925,45.268,45.268,0,0,0-1.328,6.678c-.748,5.4-1.2,13.76-1.2,13.76s.134,1.274.272,2.605c.115,1.116,1.859,11.526,2.422,14.887l.136,5.353.844,1.847,1.448.891s.675.7.775.823c.346.436.937.288.779-.251l-.128-.575-.249-1.51.434-2.178.329,1.756c.591,1.314.922,1.047.922,1.047l-.266-4.262-2.131-4.09s-.666-11.446-.49-15.683c0,0,3.135-16.123,3.216-17.109C160.12,195.227,159.036,190.472,155.258,191.236Z" transform="translate(-151.728 -167.437)" fill="#fcb698"/>
            <path id="Path_1922" data-name="Path 1922" d="M160.434,196.254c.078-.927-1.157-6.154-4.934-5.389-.48.1-1.106,1.234-1.245,1.7a45.268,45.268,0,0,0-1.328,6.678c-.748,5.4-1.2,13.76-1.2,13.76s.134,1.274.272,2.605c.075.718.823,5.286,1.5,9.348a24.309,24.309,0,0,0,3.577-.3c-.172-3.666-.352-8.54-.249-10.993C156.826,213.664,160.35,197.24,160.434,196.254Z" transform="translate(-151.728 -167.841)" fill="#fff"/>
            <path id="Path_1923" data-name="Path 1923" d="M153.6,209.963c.49-5.324,1.582-18.568,1.737-19.105a3.7,3.7,0,0,0-1.083,1.63,45.269,45.269,0,0,0-1.328,6.678c-.748,5.4-1.2,13.76-1.2,13.76s.134,1.274.272,2.605c.075.718.823,5.286,1.5,9.348.727-.008,1.448-.059,2.164-.128C154.238,219.8,153.117,215.207,153.6,209.963Z" transform="translate(-151.728 -167.764)" fill="#6c90b1" opacity="0.1" style="mix-blend-mode: multiply;isolation: isolate"/>
          </g>
        </g>
      </g>
    </g>
    <g id="Group_2225" data-name="Group 2225" transform="translate(-788.959 132.235)">
      <path id="Path_1924" data-name="Path 1924" d="M237.659,238c-3.675-1.325-7.692-2.965-11.681-2.569-2.29-.095-13.311.849-13.774,4.962-.44,3.9,12.576,4.191,15.189,4.46,1.951.2,21.795,2.108,17.282-3.982C243.557,239.366,239.409,238.631,237.659,238Z" transform="translate(-212.193 -112.204)" fill="#6c90b1" opacity="0.1" style="mix-blend-mode: multiply;isolation: isolate"/>
      <g id="Group_1416" data-name="Group 1416" transform="translate(0.491)">
        <g id="Group_1415" data-name="Group 1415">
          <g id="Group_1414" data-name="Group 1414">
            <g id="Group_1410" data-name="Group 1410" transform="translate(0 18.56)">
              <path id="Path_1925" data-name="Path 1925" d="M215.14,205.307l-2.544,4.267-.17,4.441a1.14,1.14,0,0,0,.941-.267,12.9,12.9,0,0,0,1.171,4.086.865.865,0,0,0,1.01-.482l.251.427c1.49-.143.622-1.868.622-1.868l-.092-1.348.536,1.63c1.069.305.972-1.036.972-1.036l-.373-2.055.306-2.093.182-1.312a4.682,4.682,0,0,0-.836-3.405Z" transform="translate(-212.427 -164.014)" fill="#df9877"/>
              <path id="Path_1926" data-name="Path 1926" d="M218.3,189.78c-2.627,4.646-2.07,21.9-2.07,21.9l-3.007,17.195c.482,1.445,3.742,1.276,3.742,1.276l6.5-17.943s2.615-26.3,2.728-26.512C226.187,185.7,219.631,187.422,218.3,189.78Z" transform="translate(-211.56 -185.699)" fill="#ffec83"/>
              <path id="Path_1927" data-name="Path 1927" d="M218.015,191.748c-.109-.1-.2-.215-.3-.324a3.325,3.325,0,0,1-.9.876c-.006.118-.029.236-.027.358.1,5.421.645,11.692.645,11.692s-.052,5.269-.352,8.192a36.711,36.711,0,0,1-2.68,11.364,4.989,4.989,0,0,0,1.27-.084l6.5-17.943s.656-6.6,1.324-13.211A5.018,5.018,0,0,1,218.015,191.748Z" transform="translate(-210.267 -179.368)" fill="#6c90b1" opacity="0.1" style="mix-blend-mode: multiply;isolation: isolate"/>
            </g>
            <path id="Path_1928" data-name="Path 1928" d="M213.556,205.488l-.4,1.554c1.289,1.82,4.048,1.272,4.048,1.272l.513-1.523C215.769,207.345,213.556,205.488,213.556,205.488Z" transform="translate(-211.633 -145.254)" fill="#fff"/>
            <path id="Path_1929" data-name="Path 1929" d="M220.755,233.3l-5.091,5.12c-1.846.983-2.738,1.9-3.023,2.681-.461,1.264.142,1.5,1.36,1.908a7.1,7.1,0,0,0,5.332-1.053,13.907,13.907,0,0,1,4.071-2.032l2.275-.686a2.349,2.349,0,0,0,1.19-2.043l-.578-3.894Z" transform="translate(-212.363 -114.497)" fill="#002d42"/>
            <path id="Path_1930" data-name="Path 1930" d="M227.534,235.125l-4,5.408c-.951.967-3.059,2.361-3.3,3.7l-.036.2a2.839,2.839,0,0,0,2.623,2.121,5.178,5.178,0,0,0,3.964-1.224l5.36-4.462a2.307,2.307,0,0,0,1.171-2.009l-.419-3.734Z" transform="translate(-203.922 -112.477)" fill="#002d42"/>
            <path id="Path_1931" data-name="Path 1931" d="M217.221,202.415s-.14,4.7-.916,13.628c-.465,5.37-.744,21.773-.744,21.773L216.306,268a6.545,6.545,0,0,0,7.193.265l.855-28.169,1.871-22.677-1.008-12.271Z" transform="translate(-208.993 -148.653)" fill="#565ace" stroke="rgba(0,0,0,0)" stroke-width="1"/>
            <path id="Path_1932" data-name="Path 1932" d="M216.83,222.023c-.142-4.353-.451-8.714-.534-13.07-.459,5.5-.733,21.63-.733,21.63l.744,30.187a6.153,6.153,0,0,0,2.194,1.045c-.679-8.129-.928-15.523-1.131-23.677C216.874,232.781,217,227.305,216.83,222.023Z" transform="translate(-208.993 -141.421)" fill="#6c90b1" opacity="0.1" style="mix-blend-mode: multiply;isolation: isolate"/>
            <path id="Path_1933" data-name="Path 1933" d="M218.61,204.634l3.269,11.5,2.791,24.519,3.813,29.607c2.676,2.969,6.56.116,6.56.116l-.637-29.753.932-22.359c.471-11.648-.545-14.388-.545-14.388Z" transform="translate(-205.655 -147.032)" fill="#565ace" stroke="rgba(0,0,0,0)" stroke-width="1"/>
            <path id="Path_1934" data-name="Path 1934" d="M224.835,204.025q.151.9.291,1.8a3.555,3.555,0,0,1,.459,1.967c-.01.3-.017.6-.027.895.867,6.151,1.305,12.358.249,18.484.22,4.385.354,8.757.423,13.192.145,9.254.494,17.73.474,26.969.107,1.245.2,2.491.27,3.738a7.4,7.4,0,0,0,1.251-.691l-.637-29.753.932-22.359c.471-11.648-.545-14.388-.545-14.388Z" transform="translate(-198.837 -147.032)" fill="#6c90b1" opacity="0.1" style="mix-blend-mode: multiply;isolation: isolate"/>
            <path id="Path_1935" data-name="Path 1935" d="M225.894,236.193a15.967,15.967,0,0,1-.274-4.138c-.754-4.587-1.85-14.449-2.814-18.989-.128-.6-3.346-2.224-3.346-2.224l2.043,2.466,2.238,19.648,3.813,29.607a3.84,3.84,0,0,0,2.707,1.337c-1.259-9.222-1.892-17.78-4.243-26.815A4.042,4.042,0,0,1,225.894,236.193Z" transform="translate(-204.725 -139.333)" fill="#6c90b1" opacity="0.1" style="mix-blend-mode: multiply;isolation: isolate"/>
            <path id="Path_1936" data-name="Path 1936" d="M219.929,187.414c-2.372.564-4.17,2.226-4.211,5.661a42.2,42.2,0,0,0,1.242,13.223s.36,4.3.243,5.911c-.287,3.86-.383,14.169-.383,14.169s13.364,6.368,21.541-.255l-1.113-11.745,1.595-13.855,2.577-9.306a43.911,43.911,0,0,0-9.228-5.082C228.447,184.743,226.335,185.891,219.929,187.414Z" transform="translate(-208.869 -167.35)" fill="#ffec83"/>
            <path id="Path_1937" data-name="Path 1937" d="M229.905,189.686a12.49,12.49,0,0,0-2.384,5.155c-.182,1.057.057,7.009-.6,7.447-.645,5.115-1.676,8.7-1.846,11.654-.283,4.892,0,7.415-.036,11.334a31.908,31.908,0,0,0,3.158-1.864l-1.113-11.745,1.595-13.855,2.577-9.306s-.281-.208-.777-.548A3.225,3.225,0,0,1,229.905,189.686Z" transform="translate(-198.709 -164.64)" fill="#6c90b1" opacity="0.1" style="mix-blend-mode: multiply;isolation: isolate"/>
            <g id="Group_1411" data-name="Group 1411" transform="translate(30.88 64.576)">
              <path id="Path_1938" data-name="Path 1938" d="M228.351,207.55l-1.186,4.241.5,5.591s1.188.057,1.106-1.638l-.163-1.933.048.24,0,.017.662,2.23-.034,2.1-.1.678a.61.61,0,0,0,1.113.43l.96-1.609,1.58-1.272.681-2.262-1.268-6.379Z" transform="translate(-227.165 -207.55)" fill="#df9877"/>
            </g>
            <g id="Group_1413" data-name="Group 1413" transform="translate(12.045)">
              <path id="Path_1939" data-name="Path 1939" d="M219.736,182.679v6.585a4.005,4.005,0,1,0,8.01,0l-.591-6.585Z" transform="translate(-216.467 -170.479)" fill="#df9877"/>
              <path id="Path_1940" data-name="Path 1940" d="M219.737,182.679v4.53c0,.011,0,.017,0,.027-.044,1.51.293,2.533,1.161,3.094,3.29,2.117,6.33-2.123,6.25-5.115a4.028,4.028,0,0,1,.132-1.146l-.126-1.39Z" transform="translate(-216.468 -170.479)" fill="#6c90b1" opacity="0.1" style="mix-blend-mode: multiply;isolation: isolate"/>
              <path id="Path_1941" data-name="Path 1941" d="M218.761,187.879c0,3.431,2.571,5.252,4.949,4.926,1.967-.27,5.99-1.87,5.99-5.24l.677-6.242-11.616-2.083Z" transform="translate(-217.535 -174.283)" fill="#df9877"/>
              <g id="Group_1412" data-name="Group 1412">
                <path id="Path_1942" data-name="Path 1942" d="M220.862,178.371c-5.024,3.172-1.46,4.842-1.46,4.842s8.161.2,8.23,1.582c.019.4-.4,2.845-.4,2.845l.964.708.67-1.144.346,5.749a12.3,12.3,0,0,0,3-5.612c.4-1.6,1.316-5.018-.021-6.714C229.445,177.149,225.468,175.464,220.862,178.371Z" transform="translate(-218.176 -176.886)" fill="#002d42"/>
                <path id="Path_1943" data-name="Path 1943" d="M223.277,182.142V185c1.188.55,2.162-1.08,1.978-2.559C225,180.432,223.277,182.142,223.277,182.142Z" transform="translate(-212.589 -171.825)" fill="#df9877"/>
                <path id="Path_1944" data-name="Path 1944" d="M220.651,190.376l.989,3.119a9.48,9.48,0,0,0,6.667-5.981l-1.756-2.736S226.289,189.546,220.651,190.376Z" transform="translate(-215.465 -168.158)" fill="#fff"/>
                <path id="Path_1945" data-name="Path 1945" d="M220.187,185.392c-1.567,1.571-.522,6.5-.522,6.5A12.249,12.249,0,0,1,222.1,189.7,4.469,4.469,0,0,1,220.187,185.392Z" transform="translate(-216.918 -167.479)" fill="#fff"/>
              </g>
            </g>
            <path id="Path_1946" data-name="Path 1946" d="M228,187.747c-2.852.274-2.757,9.3-2.757,9.3l3.933,15.338,1.138,17.142c3.616,1.723,4.174.657,4.174.657l1.226-18.907L233.59,195.4S232.869,187.28,228,187.747Z" transform="translate(-198.391 -164.896)" fill="#ffec83"/>
            <path id="Path_1947" data-name="Path 1947" d="M228.291,203.03l-1.62-6.712.266-4.012-1.043,5.172,2.567,9.837,1.138,17.142a13.688,13.688,0,0,0,1.594.653c-.442-5.711-.681-12.206-1.134-17.913C229.846,206.623,229.1,204.913,228.291,203.03Z" transform="translate(-197.677 -159.831)" fill="#6c90b1" opacity="0.1" style="mix-blend-mode: multiply;isolation: isolate"/>
            <path id="Path_1948" data-name="Path 1948" d="M227.607,206.783l.1,1.973a4.926,4.926,0,0,0,4.356.491l.117-2.3C228.414,207.636,227.607,206.783,227.607,206.783Z" transform="translate(-195.801 -143.822)" fill="#fff"/>
          </g>
          <path id="Path_1949" data-name="Path 1949" d="M226.589,181.992a5.561,5.561,0,0,1-1.192,3.485A6.292,6.292,0,0,1,223,187.072a5.569,5.569,0,0,1-1.649.6,1.543,1.543,0,0,1-1.194-.609c-.96-.977-1.4-3.626-1.4-3.626s0,2.085.092,2.9c.35,3.159,1.666,4.288,2.736,4.526,2.011.449,3.455-1.118,4.283-1.984,1.9-1.988,1.67-6.408,1.67-6.408Z" transform="translate(-205.49 -171.239)" fill="#002d42"/>
          <path id="Path_1950" data-name="Path 1950" d="M219.794,183.9c-.184.175.174.706.5,1.03s3.579.438,3.579.438S221.582,182.188,219.794,183.9Z" transform="translate(-204.413 -169.691)" fill="#002d42"/>
          <path id="Path_1951" data-name="Path 1951" d="M218.626,185.041a8.274,8.274,0,0,0,2.619-.109c.354-.289.44-.792.27-.979C219.923,182.179,218.626,185.041,218.626,185.041Z" transform="translate(-205.637 -169.712)" fill="#002d42"/>
        </g>
      </g>
    </g>
    <g id="Group_2226" data-name="Group 2226" transform="translate(-883.624 112.779)">
      <ellipse id="Ellipse_13" data-name="Ellipse 13" cx="39.935" cy="40.139" rx="39.935" ry="40.139" fill="#fff" opacity="0.4"/>
      <g id="Group_1439" data-name="Group 1439" transform="translate(10.29 15.931)">
        <g id="Group_1427" data-name="Group 1427">
          <g id="Group_1426" data-name="Group 1426">
            <g id="Group_1425" data-name="Group 1425">
              <path id="Path_1952" data-name="Path 1952" d="M201.921,175.212c-.652,0-1.3.019-1.963.059-15.036.916-27.337,12.888-28.005,27.259a27.554,27.554,0,0,0,3.751,15.213,75.321,75.321,0,0,1,8.459,20.171c.6,2.432,1.217,4.932,1.856,7.447l.046.154c.27,2.693,2.148,5.166,5.276,6.893a22.4,22.4,0,0,0,10.621,2.468h0a22.268,22.268,0,0,0,10.6-2.472c3.562-1.977,5.475-4.938,5.236-8.036.633-2.31,1.249-4.631,1.838-6.9a75.5,75.5,0,0,1,8.421-19.587,27.612,27.612,0,0,0,3.857-14.047C231.919,188.05,218.461,175.212,201.921,175.212Z" transform="translate(-171.923 -175.212)" fill="#fff" opacity="0.4"/>
              <g id="Group_1424" data-name="Group 1424" transform="translate(17.375 66.457)">
                <g id="Group_1420" data-name="Group 1420" transform="translate(1.04)">
                  <g id="Group_1418" data-name="Group 1418" transform="translate(0.061)">
                    <path id="Path_1953" data-name="Path 1953" d="M201.436,208.839c-4.756-2.759-12.442-2.761-17.168,0s-4.7,7.236.054,9.995,12.444,2.761,17.169,0S206.195,211.6,201.436,208.839Z" transform="translate(-180.74 -206.769)" fill="#09425e"/>
                  </g>
                  <g id="Group_1419" data-name="Group 1419" transform="translate(0.061 7.87)">
                    <path id="Path_1954" data-name="Path 1954" d="M201.436,212.576c-4.756-2.759-12.442-2.761-17.168,0s-4.7,7.236.054,9.995,12.444,2.761,17.169,0S206.195,215.339,201.436,212.576Z" transform="translate(-180.74 -210.506)" fill="#09425e"/>
                  </g>
                  <rect id="Rectangle_49" data-name="Rectangle 49" width="24.402" height="8.419" transform="translate(0 6.7)" fill="#09425e"/>
                </g>
                <g id="Group_1421" data-name="Group 1421" transform="translate(0 7.118)">
                  <path id="Path_1955" data-name="Path 1955" d="M205.963,210.151a.773.773,0,0,0-.815.716c-.084,1.537-1.23,3.009-3.227,4.142-4.641,2.635-12.213,2.635-16.881,0-2.011-1.135-3.176-2.609-3.277-4.151a.775.775,0,0,0-1.546.1c.134,2.062,1.574,3.965,4.048,5.364a20.766,20.766,0,0,0,18.434,0c2.466-1.4,3.885-3.308,4-5.372A.766.766,0,0,0,205.963,210.151Z" transform="translate(-180.215 -210.149)" fill="#517fa2"/>
                </g>
                <path id="Path_1956" data-name="Path 1956" d="M184.314,217.3A4,4,0,0,0,188.3,221.3h1.06a4,4,0,0,0,3.985-4.006v-.924h-9.031Z" transform="translate(-175.726 -196.148)" fill="#09425e"/>
                <g id="Group_1422" data-name="Group 1422" transform="translate(0 10.905)">
                  <path id="Path_1957" data-name="Path 1957" d="M205.963,211.949a.77.77,0,0,0-.815.716c-.084,1.537-1.23,3.009-3.227,4.142-4.641,2.635-12.213,2.635-16.881,0-2.011-1.135-3.176-2.609-3.277-4.151a.775.775,0,0,0-1.546.1c.134,2.062,1.574,3.965,4.048,5.364a20.767,20.767,0,0,0,18.434,0c2.466-1.4,3.885-3.308,4-5.372A.766.766,0,0,0,205.963,211.949Z" transform="translate(-180.215 -211.947)" fill="#517fa2"/>
                </g>
                <g id="Group_1423" data-name="Group 1423" transform="translate(0 14.693)">
                  <path id="Path_1958" data-name="Path 1958" d="M205.963,213.746a.783.783,0,0,0-.815.718c-.084,1.535-1.23,3.007-3.227,4.142-4.641,2.632-12.213,2.632-16.881,0-2.011-1.135-3.176-2.609-3.277-4.151a.775.775,0,0,0-1.546.1c.134,2.062,1.574,3.965,4.048,5.364a20.766,20.766,0,0,0,18.434,0c2.466-1.4,3.885-3.306,4-5.372A.766.766,0,0,0,205.963,213.746Z" transform="translate(-180.215 -213.746)" fill="#517fa2"/>
                </g>
              </g>
              <path id="Path_1959" data-name="Path 1959" d="M197.592,177.688a25,25,0,0,0-20.077,37.046,78.768,78.768,0,0,1,8.084,20.335c.549,2.354,1.121,4.776,1.708,7.211l.092,0c-.069,1.822,1.085,3.66,3.48,5.05,4.639,2.693,12.132,2.691,16.739,0,2.6-1.518,3.723-3.567,3.378-5.549.629-2.4,1.24-4.823,1.821-7.188a78.857,78.857,0,0,1,8.048-19.747,24.982,24.982,0,0,0-23.272-37.159Z" transform="translate(-169.224 -172.531)" fill="#ffec83"/>
              <path id="Path_1960" data-name="Path 1960" d="M196.08,178.859c-10.86.729-19.61,10.106-20.094,21.514a23.41,23.41,0,0,0,2.69,12.01,73.19,73.19,0,0,1,7.009,18.406c.474,2.131.97,4.321,1.479,6.524l.082,0c-.063,1.649.939,3.313,3.015,4.572a13.331,13.331,0,0,0,5.236,1.7c-3.017-4.25-4.113-9.679-4.14-15.38-.04-9.121.566-18.9,4.375-27.223a36.245,36.245,0,0,1,15.652-16.843A20.832,20.832,0,0,0,196.08,178.859Z" transform="translate(-167.496 -171.231)" fill="#fff" opacity="0.5"/>
            </g>
          </g>
          <path id="Path_1961" data-name="Path 1961" d="M202.258,202.192a4.2,4.2,0,0,1-2.192-.838,4.693,4.693,0,0,0,1.5-3.319c.08-2.373-1.033-3.5-2.1-3.536h-.057c-.989,0-2.064.933-2.143,3.018a6.257,6.257,0,0,0,1.347,3.757,7.325,7.325,0,0,1-2.376.948h-.222a4.37,4.37,0,0,1-2.753-.868,4.683,4.683,0,0,0,1.5-3.319c.082-2.373-1.031-3.5-2.1-3.536h-.059c-.987,0-2.064.933-2.141,3.018a6.243,6.243,0,0,0,1.347,3.757,7.343,7.343,0,0,1-2.376.948h-.224a4.374,4.374,0,0,1-2.753-.868,4.694,4.694,0,0,0,1.5-3.319c.082-2.373-1.033-3.5-2.1-3.536H185.8c-.987,0-2.064.933-2.141,3.018a6.243,6.243,0,0,0,1.347,3.757,7.129,7.129,0,0,1-1.739.785l-1.553-7.581-1.419.293,6.552,32.006,1.419-.293-4.807-23.475a8.45,8.45,0,0,0,1.806-.771c.145-.084.285-.173.419-.263a5.242,5.242,0,0,0,3.524,1.217h.268a.358.358,0,0,0,.082-.008,8.345,8.345,0,0,0,2.51-.946c.145-.084.285-.173.419-.263a5.252,5.252,0,0,0,3.526,1.217h.266a.358.358,0,0,0,.082-.008,8.3,8.3,0,0,0,2.51-.946c.147-.084.285-.173.419-.263a5.066,5.066,0,0,0,2.776,1.171l-4.6,23.342,1.421.284,6.311-32.006-1.421-.284Zm-17.634-4.639c.05-1.375.626-2.085,1.178-2.085h.023c.608.023,1.226.918,1.169,2.533a3.746,3.746,0,0,1-1.222,2.681A5.25,5.25,0,0,1,184.625,197.553Zm6.8,0c.052-1.375.626-2.085,1.177-2.085h.023c.61.023,1.226.918,1.171,2.533a3.756,3.756,0,0,1-1.224,2.681A5.263,5.263,0,0,1,191.428,197.553Zm6.805,0c.05-1.375.626-2.085,1.175-2.085h.023c.61.023,1.228.918,1.171,2.533a3.755,3.755,0,0,1-1.222,2.681A5.249,5.249,0,0,1,198.233,197.553Z" transform="translate(-162.75 -153.905)" fill="#7d9fb9"/>
        </g>
        <g id="Group_1438" data-name="Group 1438" transform="translate(27.685 52.61)">
          <path id="Path_1962" data-name="Path 1962" d="M208.82,237.294c1.919.644,6.4-2.186,5.886-4.757-.251-1.268-3.007-21.026-3.007-21.026Z" transform="translate(-159.196 -187.678)" fill="#00272e"/>
          <g id="Group_1428" data-name="Group 1428" transform="translate(0 43.074)">
            <path id="Path_1963" data-name="Path 1963" d="M193.25,221.392s-2.648-1.074-3.654-.642c-1.123.482-3.208.9-3.206.95.052,1.036,1.785.446,2.5.588s.6,1.935-.367,2.361a7.831,7.831,0,0,1-2.322.368,2.188,2.188,0,0,0,.914.8,19.757,19.757,0,0,0,2.979.786c.425.177,3.577-1.325,4.038-1.788.26-.261,2.428.842,3.166.289.574-.43-.863-2.894-.863-2.894Z" transform="translate(-183.974 -220.647)" fill="#fcb698"/>
            <path id="Path_1964" data-name="Path 1964" d="M185.5,222.173c-.769.095-.193.577.48.964s4.892,1.638,4.892,1.638l.193-2.411s-1.343.1-2.5.194S186.27,222.076,185.5,222.173Z" transform="translate(-185.136 -218.973)" fill="#fcb698"/>
          </g>
          <g id="Group_1429" data-name="Group 1429" transform="translate(9.418 43.766)">
            <path id="Path_1965" data-name="Path 1965" d="M190.048,220.976a4.986,4.986,0,0,0,0,4.05c1.789-.192,2.747.265,3.484-.289.574-.43.224-3.633.224-3.633S191.391,220.976,190.048,220.976Z" transform="translate(-189.631 -220.976)" fill="#fff"/>
          </g>
          <g id="Group_1437" data-name="Group 1437" transform="translate(20.976)">
            <g id="Group_1436" data-name="Group 1436">
              <g id="Group_1435" data-name="Group 1435">
                <g id="Group_1434" data-name="Group 1434">
                  <g id="Group_1433" data-name="Group 1433">
                    <g id="Group_1432" data-name="Group 1432">
                      <path id="Path_1966" data-name="Path 1966" d="M221.776,255.751a28.36,28.36,0,0,0-8.006-1.5l-3.386.874q-6.047,2.777-12.094,5.551c-1.714.785-3.761,2.39-2.967,4.1.5,1.091,1.89,1.386,3.082,1.493a44.179,44.179,0,0,0,24.512-5.018,3.594,3.594,0,0,0,1.846-1.744C225.35,257.83,223.444,256.368,221.776,255.751Z" transform="translate(-195.147 -140.405)" fill="#6c90b1" opacity="0.1" style="mix-blend-mode: multiply;isolation: isolate"/>
                      <g id="Group_1431" data-name="Group 1431" transform="translate(1.513)">
                        <g id="Group_1430" data-name="Group 1430">
                          <path id="Path_1967" data-name="Path 1967" d="M205.082,256.737a37.6,37.6,0,0,1-6.326.731c-1.93,0-4.054,1.893-2.131,2.94,2.477,1.346,10.82,3.123,10.82,3.123s2.594.7,3.83-1.053a1.759,1.759,0,0,0,.289-1.125l-.214-3.2Z" transform="translate(-195.869 -137.661)" fill="#002d42"/>
                          <path id="Path_1968" data-name="Path 1968" d="M207.364,261.376c-2.479.074-5.123-.9-7.459-1.6-3.742-1.114-3.859-1.931-3.92-1.99-.241.505-.122,1.047.637,1.459,2.475,1.346,10.82,3.123,10.82,3.123s2.594.7,3.83-1.053a1.759,1.759,0,0,0,.289-1.125v0A5.236,5.236,0,0,1,207.364,261.376Z" transform="translate(-195.865 -136.5)" fill="#6c90b1" opacity="0.1" style="mix-blend-mode: multiply;isolation: isolate"/>
                          <path id="Path_1969" data-name="Path 1969" d="M217.477,255.184l-6.1-1.152a54.487,54.487,0,0,1-6.238.472c-1.967,0-3.547,2.277-1.724,3.014l10.013,3.182s3.189.9,4.49-.981a1.326,1.326,0,0,0,.193-.99Z" transform="translate(-188.481 -140.652)" fill="#002d42"/>
                          <path id="Path_1970" data-name="Path 1970" d="M201.978,257.293l1.387.417a4.625,4.625,0,0,1,.383-1.179,10.9,10.9,0,0,1,1.58-2.3c-.557.025-1.108.042-1.626.044C201.735,254.281,200.155,256.556,201.978,257.293Z" transform="translate(-190.058 -140.428)" fill="#002d42"/>
                          <path id="Path_1971" data-name="Path 1971" d="M218.731,257.34a4.036,4.036,0,0,1-.557.419c-1.986,1.219-5.576.4-5.3.432-.752-.1-7.864-1.919-10.449-2.82-.134-.046-.258-.1-.381-.154a1.1,1.1,0,0,0,.8.99l11.22,3.182s3.189.9,4.49-.981a1.326,1.326,0,0,0,.193-.99Z" transform="translate(-189.11 -139.342)" fill="#6c90b1" opacity="0.1" style="mix-blend-mode: multiply;isolation: isolate"/>
                          <path id="Path_1972" data-name="Path 1972" d="M221.5,231.446c-.065-.916-.222-2.352-.4-3.852-6.543,1.9-21.686,5.1-21.935,5.042v28.415l1.871,28.2c.044.969.5,1.906,2.328,2.4,2.938.8,4.408-.756,4.408-.756s-.069-21.428.377-27.211c.817-10.6,2.542-21.516,2.542-21.516l2.225,20.7,2.231,20.407c.067,1.28,1.414,2.121,2.678,2.293,2.738.373,3.419-1.141,3.419-1.141l-.421-23.6S221.742,234.765,221.5,231.446Z" transform="translate(-192.253 -169.891)" fill="#09425e"/>
                          <path id="Path_1973" data-name="Path 1973" d="M201.925,258.4c-.126-5.606-.178-11.2-.375-16.8-.14-4,0-8.259,1.546-11.981-2.294.484-3.849.79-3.927.773v28.415l1.871,28.2c.044.969.5,1.906,2.328,2.4a6.514,6.514,0,0,0,.934.179,102.178,102.178,0,0,0-.853-11.235A168.132,168.132,0,0,1,201.925,258.4Z" transform="translate(-192.253 -167.649)" fill="#6c90b1" opacity="0.1" style="mix-blend-mode: multiply;isolation: isolate"/>
                          <path id="Path_1974" data-name="Path 1974" d="M209.561,257.548c-.867-5.09-1.829-10.172-2.627-15.274-.2-1.291-.509-6.756-2.037-7.731-.069.423-.119.851-.157,1.278l2.081,19.358,2.231,20.407c.067,1.28,1.414,2.121,2.678,2.293,2.738.373,3.419-1.141,3.419-1.141l-.017-.977C212.1,270.22,210.638,263.86,209.561,257.548Z" transform="translate(-186.153 -162.206)" fill="#6c90b1" opacity="0.1" style="mix-blend-mode: multiply;isolation: isolate"/>
                          <path id="Path_1975" data-name="Path 1975" d="M222.84,214.874c-.719-3.932-6.717-5.979-6.717-5.979s-2.307-1.059-6.678.164c-2.621.733-6.531,3.235-7.945,4.018-2.426,1.344-2.933,3.258-2.841,6.04l1.368,8.228-.285,26.44a58.643,58.643,0,0,0,8.314.6c5.454.015,13.829-3.487,13.829-3.487s-.748-7.956-.582-11.143S223.506,218.513,222.84,214.874Z" transform="translate(-192.825 -191.041)" fill="#002d42"/>
                          <path id="Path_1976" data-name="Path 1976" d="M202.44,217.819c-.763-1.474-2.156-1.959-3.392-3.028l.541,5.564-.285,26.44s1.286.208,3.315.379c-.411-3.479.272-7.364.534-10.6a96.345,96.345,0,0,0-.71-18.6C202.436,217.923,202.444,217.874,202.44,217.819Z" transform="translate(-192.387 -184.05)" fill="#6c90b1" opacity="0.1" style="mix-blend-mode: multiply;isolation: isolate"/>
                          <path id="Path_1977" data-name="Path 1977" d="M202.53,206.213l1.008,6.1c0,2.14,7.252,1.344,7.252-.8l-1.127-5.3Z" transform="translate(-188.573 -193.537)" fill="#fcb698"/>
                          <path id="Path_1978" data-name="Path 1978" d="M210.793,208.024c-.656,2.167-4.836,2.281-7.222,1.384l-1.1,1.171c1.467,2.1,5.835,1.986,8.163.522.631-.4,1.423-1.261,1.117-1.942Z" transform="translate(-188.638 -191.534)" fill="#fff"/>
                          <path id="Path_1979" data-name="Path 1979" d="M201.661,210.477c-.2,3.289,1.773,4.61,4.876,4.8,0,0,6.066-1.186,6.263-4.418l1.012-5.947-11.645-2.721Z" transform="translate(-189.54 -197.986)" fill="#fcb698"/>
                          <path id="Path_1980" data-name="Path 1980" d="M205.691,200.489c-2.623.965-6.81,3.321-3.1,6.276,0,0,1.565.493,1.412,3.014s2.334,5.2,4.205,6.88c1.36,1.219,3.926-.51,3.926-.51s4.054-4.094,2.611-11.6C213.866,199.983,207.536,199.809,205.691,200.489Z" transform="translate(-190.112 -200.194)" fill="#8f644d"/>
                          <path id="Path_1981" data-name="Path 1981" d="M202.413,205.1l-.166,2.742c1.108.594,2.137-.91,2.047-2.34C204.17,203.562,202.413,205.1,202.413,205.1Z" transform="translate(-188.883 -195.41)" fill="#fcb698"/>
                        </g>
                      </g>
                    </g>
                  </g>
                </g>
              </g>
              <path id="Path_1982" data-name="Path 1982" d="M204.981,210.979c-3.616-.529-4.551,6.074-5.119,8.489-.851,3.633-3.927,13.048-3.927,13.048,2.194,1.011,5.027,4.677,6.4,2.828,3.822-5.157,6.78-16.525,6.78-16.525S209.52,211.644,204.981,210.979Z" transform="translate(-194.283 -188.3)" fill="#002d42"/>
            </g>
          </g>
          <path id="Path_1983" data-name="Path 1983" d="M204.014,220.349l-.073.027s-6.973.392-12.22.908c-3.384.331-1.136,4.62-1.136,4.62s11.247.9,14.857,1.074c3.168.156,4.35-3.283,4.35-3.283C209.523,221.4,204.724,222.668,204.014,220.349Z" transform="translate(-179.969 -177.904)" fill="#002d42"/>
        </g>
      </g>
    </g>
  </g>
</svg>
