<svg xmlns="http://www.w3.org/2000/svg" xmlns:xlink="http://www.w3.org/1999/xlink" width="300.944" height="250.929" viewBox="0 0 300.944 250.929">
  <defs>
    <linearGradient id="linear-gradient" x1="0.44" y1="1.23" x2="0.516" y2="0.301" gradientUnits="objectBoundingBox">
      <stop offset="0" stop-color="#fff"/>
      <stop offset="1" stop-color="#aac4d8"/>
    </linearGradient>
  </defs>
  <g id="Group_2262" data-name="Group 2262" transform="translate(499.254 1251.309)">
    <g id="Group_2230" data-name="Group 2230" transform="translate(-467.611 -1249.227)">
      <path id="Path_1842" data-name="Path 1842" d="M486.38,85.77,339.788,170.026a9.933,9.933,0,0,0-4.534,7.814l.32,112.257c.008,2.871,2.049,4.03,4.564,2.585L486.73,208.424a9.929,9.929,0,0,0,4.53-7.81l-.32-112.258C490.932,85.486,488.891,84.327,486.38,85.77ZM348.534,281.7l-.314-110.373L477.983,96.747l.314,110.372Z" transform="translate(-335.254 -85.149)" fill="#002d42"/>
    </g>
    <path id="Path_3356" data-name="Path 3356" d="M483.645,84.18,337.053,168.436a9.936,9.936,0,0,0-4.535,7.814l.32,112.257a3.159,3.159,0,0,0,1.326,2.9l3.6,2.082a3.163,3.163,0,0,1-1.324-2.9l-.321-112.257a9.941,9.941,0,0,1,4.535-7.814L487.242,86.262h0a3.218,3.218,0,0,1,3.234-.316l-3.6-2.082A3.218,3.218,0,0,0,483.645,84.18Z" transform="translate(-803.727 -1334.868)" fill="#09425e"/>
    <g id="Group_2231" data-name="Group 2231" transform="translate(-320.374 -1189.755)">
      <path id="Path_1844" data-name="Path 1844" d="M449.661,130.908a5.382,5.382,0,0,0-2.46,4.236l.017,6.269c.005,1.561,1.113,2.189,2.477,1.4a5.385,5.385,0,0,0,2.46-4.241l-.017-6.271C452.132,130.751,451.024,130.124,449.661,130.908Z" transform="translate(-447.201 -130.57)" fill="#09425e"/>
    </g>
    <g id="Group_2232" data-name="Group 2232" transform="translate(-454.645 -1237.629)">
      <path id="Path_1845" data-name="Path 1845" d="M345.112,168.592l.314,110.372L475.19,204.379l-.314-110.372Z" transform="translate(-345.112 -94.007)" fill="#517fa2"/>
    </g>
    <g id="Group_2233" data-name="Group 2233" transform="translate(-454.645 -1134.431)">
      <path id="Path_1846" data-name="Path 1846" d="M345.112,247.406l.314,7.174L475.19,180l-.314-7.174Z" transform="translate(-345.112 -172.822)" fill="#92b3cb"/>
    </g>
    <g id="Group_2234" data-name="Group 2234" transform="translate(-454.4 -1238.076)">
      <path id="Path_1848" data-name="Path 1848" d="M345.3,168.243l.059,20.8L475.109,114.47l-.059-20.8Z" transform="translate(-345.298 -93.665)" fill="#09425e"/>
    </g>
    <g id="Group_2235" data-name="Group 2235" transform="translate(-447.651 -1228.559)">
      <path id="Path_1849" data-name="Path 1849" d="M422.638,157.842l21.111-12.134V118.873l-21.213,12.134Z" transform="translate(-327.699 -95.385)" fill="#92b3cb"/>
      <path id="Path_1850" data-name="Path 1850" d="M432.065,116.983l8.694-5V100.934l-8.736,5Z" transform="translate(-324.709 -100.934)" fill="#92b3cb" opacity="0.5"/>
      <path id="Path_1851" data-name="Path 1851" d="M404.26,168.536,425.371,156.4V129.567L404.158,141.7Z" transform="translate(-333.493 -92.076)" fill="#565ace" stroke="rgba(0,0,0,0)" stroke-width="1"/>
      <path id="Path_1852" data-name="Path 1852" d="M422.638,181.388l21.111-12.134V142.419l-21.213,12.134Z" transform="translate(-327.699 -88.1)" fill="#fff"/>
      <path id="Path_1853" data-name="Path 1853" d="M404.26,192.083l21.111-12.134V153.114l-21.213,12.134Z" transform="translate(-333.493 -84.792)" fill="#92b3cb"/>
      <path id="Path_1854" data-name="Path 1854" d="M385.858,179.857l21.111-12.134V140.888l-21.213,12.134Z" transform="translate(-339.294 -88.574)" fill="#92b3cb"/>
      <path id="Path_1855" data-name="Path 1855" d="M350.664,231.723l36.961-19.8V153.942l-37.2,19.8Z" transform="translate(-350.43 -84.536)" fill="#517fa2"/>
      <path id="Path_1856" data-name="Path 1856" d="M385.858,203.4l21.111-12.134V164.435l-21.213,12.134Z" transform="translate(-339.294 -81.29)" fill="#92b3cb"/>
    </g>
    <path id="Path_3358" data-name="Path 3358" d="M336.854,179.4l.163,57.172,61.166-33.425-.163-57.172Z" transform="translate(-802.361 -1315.559)" fill="#6c90b1" opacity="0.1" style="mix-blend-mode: multiply;isolation: isolate"/>
    <path id="Path_3359" data-name="Path 3359" d="M312.633,179.776l.012,4.323,3.779-2.172-.012-4.323Z" transform="translate(-809.996 -1305.774)" fill="#fff"/>
    <path id="Path_3360" data-name="Path 3360" d="M314.657,201.885l.009,3.123L323,200.215,323,197.092Z" transform="translate(-809.358 -1299.745)" fill="#c5d5e7"/>
    <path id="Path_3361" data-name="Path 3361" d="M314.7,218.356l.009,3.123,6.67-3.833-.009-3.123Z" transform="translate(-809.343 -1294.353)" fill="#c5d5e7"/>
    <g id="Group_2236" data-name="Group 2236" transform="translate(-435.046 -1137.366)">
      <path id="Path_1861" data-name="Path 1861" d="M360.014,175.8l.009,3.123L369.1,173.7l-.009-3.123Z" transform="translate(-360.014 -170.581)" fill="#c5d5e7"/>
    </g>
    <g id="Group_2237" data-name="Group 2237" transform="translate(-441.695 -1130.077)">
      <path id="Path_1862" data-name="Path 1862" d="M354.958,185.2l.009,3.123,15.747-9.051-.009-3.123Z" transform="translate(-354.958 -176.148)" fill="#c5d5e7"/>
    </g>
    <g id="Group_2238" data-name="Group 2238" transform="translate(-455.383 -1122.792)">
      <path id="Path_1863" data-name="Path 1863" d="M344.551,198.642l.009,3.123,29.456-16.931-.009-3.123Z" transform="translate(-344.551 -181.712)" fill="#c5d5e7"/>
    </g>
    <g id="Group_2239" data-name="Group 2239" transform="translate(-438.98 -1151.94)">
      <path id="Path_1864" data-name="Path 1864" d="M357.023,166.9l.009,3.123L370,162.573l-.009-3.123Z" transform="translate(-357.023 -159.45)" fill="#c5d5e7"/>
    </g>
    <g id="Group_2240" data-name="Group 2240" transform="translate(-460.428 -1130.231)">
      <path id="Path_1865" data-name="Path 1865" d="M340.715,188.7l.009,3.123,22.047-12.672-.009-3.123Z" transform="translate(-340.715 -176.03)" fill="#c5d5e7"/>
    </g>
    <g id="Group_2241" data-name="Group 2241" transform="translate(-470.966 -1119.109)">
      <path id="Path_1866" data-name="Path 1866" d="M332.7,199.432l.009,3.123,25.937-14.908-.009-3.123Z" transform="translate(-332.703 -184.524)" fill="#c5d5e7"/>
    </g>
    <g id="Group_2242" data-name="Group 2242" transform="translate(-484.634 -1091.011)">
      <path id="Path_1867" data-name="Path 1867" d="M322.311,215.247l.009,3.123,16.117-9.264-.009-3.123Z" transform="translate(-322.311 -205.983)" fill="#c5d5e7"/>
    </g>
    <g id="Group_2243" data-name="Group 2243" transform="translate(-479.838 -1103.944)">
      <path id="Path_1868" data-name="Path 1868" d="M325.957,208.246l.009,3.123,21.121-12.14-.009-3.123Z" transform="translate(-325.957 -196.106)" fill="#565ace" stroke="rgba(0,0,0,0)" stroke-width="1"/>
    </g>
    <g id="Group_2244" data-name="Group 2244" transform="translate(-467.858 -1131.021)">
      <path id="Path_1869" data-name="Path 1869" d="M335.066,185.861l.009,3.123,18.155-10.435-.009-3.123Z" transform="translate(-335.066 -175.426)" fill="#c5d5e7"/>
    </g>
    <g id="Group_2245" data-name="Group 2245" transform="translate(-465.182 -1104.961)">
      <path id="Path_1870" data-name="Path 1870" d="M337.1,207.363l.009,3.123,20.936-12.033-.009-3.123Z" transform="translate(-337.101 -195.329)" fill="#c5d5e7"/>
    </g>
    <g id="Group_2246" data-name="Group 2246" transform="translate(-483.027 -1115.644)">
      <path id="Path_1871" data-name="Path 1871" d="M323.533,198.245l.009,3.123,19.267-11.074-.009-3.123Z" transform="translate(-323.533 -187.17)" fill="#c5d5e7"/>
    </g>
    <g id="Group_2247" data-name="Group 2247" transform="translate(-494.68 -1102.285)">
      <path id="Path_1872" data-name="Path 1872" d="M314.673,209.086l.009,3.123L335.06,200.5l-.009-3.123Z" transform="translate(-314.673 -197.373)" fill="#c5d5e7"/>
    </g>
    <g id="Group_2248" data-name="Group 2248" transform="translate(-476.587 -1142.568)">
      <path id="Path_1873" data-name="Path 1873" d="M328.43,186.306l.009,3.123,34.272-19.7-.009-3.123Z" transform="translate(-328.43 -166.607)" fill="#c5d5e7"/>
    </g>
    <g id="Group_2249" data-name="Group 2249" transform="translate(-494.742 -1120.953)">
      <path id="Path_1874" data-name="Path 1874" d="M314.626,191.634l.009,3.123,14.821-8.518-.009-3.123Z" transform="translate(-314.626 -183.116)" fill="#c5d5e7"/>
    </g>
    <g id="Group_2250" data-name="Group 2250" transform="translate(-499.232 -1163.171)">
      <path id="Path_1875" data-name="Path 1875" d="M311.212,195.3l.156,55.14,77.3-44.431-.158-55.14Zm73.314-.928-29.456,16.93-.009-3.123,29.456-16.93Zm-45.04,18.59-.008-3.124,25.936-14.907.008,3.123Zm12.249.257-21.12,12.139-.009-3.123,21.12-12.139Zm-9.14-16.642-.009-3.123,18.155-10.436.009,3.123Zm29.468-12.768.009,3.123-22.047,12.672-.009-3.123ZM346.684,198.4l.008,3.124L327.425,212.6l-.008-3.123ZM384.5,187.09l-15.747,9.05-.009-3.123,15.747-9.05Zm-.021-7.289-9.078,5.218L375.4,181.9l9.076-5.218Zm-.021-7.285-20.378,11.712-.009-3.123,20.38-11.712Zm-.029-10.412.009,3.123-12.971,7.456-.008-3.123Zm-16.3,9.372.009,3.122-34.272,19.7-.009-3.123ZM315.7,201.61l14.82-8.519.009,3.123-14.821,8.519Zm.02,7.288,23.53-13.523.008,3.123L315.731,212.02Zm.021,7.285,8.339-4.792.009,3.123-8.339,4.792Zm.021,7.289,20.378-11.714.009,3.123-20.378,11.714Zm.021,7.285,11.485-6.6.009,3.123-11.485,6.6Zm.029,10.412-.009-3.123,6.671-3.834.008,3.123Zm10-5.751-.009-3.123,16.117-9.264.009,3.123ZM366.206,212.2,345.27,224.238h0l-.008-3.123L366.2,209.082l.008,3.123Zm3.333-1.914-.009-3.123,15.008-8.627.009,3.123Z" transform="translate(-311.212 -150.873)" fill="#fff"/>
    </g>
    <g id="Group_2251" data-name="Group 2251" transform="translate(-440.914 -1115.503)">
      <path id="Path_1876" data-name="Path 1876" d="M355.552,195.9l.009,3.123,15.008-8.626-.009-3.123Z" transform="translate(-355.552 -187.278)" fill="#565ace" stroke="rgba(0,0,0,0)" stroke-width="1"/>
    </g>
    <g id="Group_2252" data-name="Group 2252" transform="translate(-446.368 -1144.651)">
      <path id="Path_1877" data-name="Path 1877" d="M351.406,176.73l.009,3.123,20.379-11.713-.009-3.123Z" transform="translate(-351.406 -165.017)" fill="#565ace" stroke="rgba(0,0,0,0)" stroke-width="1"/>
    </g>
    <g id="Group_2253" data-name="Group 2253" transform="translate(-494.659 -1089.888)">
      <path id="Path_1878" data-name="Path 1878" d="M314.689,213.443l.009,3.123,11.486-6.6-.009-3.123Z" transform="translate(-314.689 -206.841)" fill="#c5d5e7"/>
    </g>
    <g id="Group_2254" data-name="Group 2254" transform="translate(-494.721 -1118.669)">
      <path id="Path_1879" data-name="Path 1879" d="M314.642,198.383l.009,3.123,23.529-13.523-.009-3.123Z" transform="translate(-314.642 -184.86)" fill="#565ace" stroke="rgba(0,0,0,0)" stroke-width="1"/>
    </g>
    <g id="Group_2255" data-name="Group 2255" transform="translate(-499.254 -1171.193)">
      <path id="Path_1880" data-name="Path 1880" d="M311.2,189.178l.022,8.021,77.3-44.431-.022-8.022Zm1.9,5.087-.012-4.324,3.779-2.172.013,4.324Z" transform="translate(-311.195 -144.746)" fill="#565ace"/>
    </g>
    <path id="Path_3362" data-name="Path 3362" d="M594.8,212.122l-35.268-16.748a10.653,10.653,0,0,0-9.633,0L398.533,276.788c-2.649,1.533-2.636,4.018.031,5.552l35.1,20.579a10.651,10.651,0,0,0,9.628,0l151.54-85.243C597.486,216.14,597.472,213.655,594.8,212.122Z" transform="translate(-795.124 -1304.449)" fill="url(#linear-gradient)"/>
    <g id="Group_2256" data-name="Group 2256" transform="translate(-409.162 -1131.275)" style="isolation: isolate">
      <g id="Group_1389" data-name="Group 1389" transform="translate(0.169 0)">
        <path id="Path_1882" data-name="Path 1882" d="M593.19,155.206,559.073,135.82a8.74,8.74,0,0,0-7.427,0l-161.8,87.862c-2.043,1.1-2.032,2.892.025,3.994l34.561,19.458a8.733,8.733,0,0,0,7.423,0L593.209,159.2C595.257,158.1,595.245,156.309,593.19,155.206Z" transform="translate(-388.315 -134.994)" fill="#fff"/>
      </g>
      <path id="Path_1883" data-name="Path 1883" d="M592.633,159.234,431.49,250.079a8.664,8.664,0,0,1-7.44,0L389.734,229.9a2.481,2.481,0,0,1-1.553-2.039l-.015,5.089a2.482,2.482,0,0,0,1.553,2.039l34.316,20.184a8.67,8.67,0,0,0,7.44,0l161.734-89.141a2.467,2.467,0,0,0,1.533-2.013l.015-5.089C594.755,159.654,593.653,158.677,592.633,159.234Z" transform="translate(-388.165 -137.291)" fill="#e8eef5"/>
    </g>
    <path id="Path_3363" data-name="Path 3363" d="M485.473,190.471c-2.329,0-11.9-.132-11.128,4.159.646,3.6,9.388,3.493,12.211,2.937,1.547-.305,6.739-2.158,7.159-4.106C494.127,191.547,487.547,190.192,485.473,190.471Z" transform="translate(-759.033 -1301.805)" fill="#6c90b1" opacity="0.1" style="mix-blend-mode: multiply;isolation: isolate"/>
    <path id="Path_3364" data-name="Path 3364" d="M466.444,141.764c-.4-.352-2.7-2.067-2.853-2.284,0,0-.505.12.024.813s1.013,1.375.79,1.37a16.545,16.545,0,0,1-1.922-.642,11.544,11.544,0,0,0-2.1-.627.26.26,0,0,0,0,.505c.246.115,1.677.8,2.308,1.055.358.144.2.179.2.179s-2.223-.613-2.373-.669-.527-.088-.616.056-.061.288.316.4c.186.056,1.82.625,2.423.821.179.058.05.127.05.127s-2.52-.479-2.654-.439-.4.392.159.525,2.353.614,2.353.614l-.034.137a18.3,18.3,0,0,0-2.079-.227c-.121,0-.548.227.014.479,0,0,1.785.372,2.053.47.529.192,2.893,1.611,3.915,1.432a7.208,7.208,0,0,1,1.393.4l.321-2.138-.681-.207A8.668,8.668,0,0,0,466.444,141.764Z" transform="translate(-763.585 -1317.568)" fill="#f7b7a9"/>
    <path id="Path_3365" data-name="Path 3365" d="M465.182,145.289l1.349.3.237-2.86-.792-.166Z" transform="translate(-761.907 -1316.614)" fill="#fff"/>
    <g id="Group_2257" data-name="Group 2257" transform="translate(-296.05 -1186.037)">
      <path id="Path_2620" data-name="Path 2620" d="M480.111,189.246l-3.166,3.153a3.684,3.684,0,0,0-1.879,1.65c-.287.778.088.922.844,1.176a4.455,4.455,0,0,0,3.317-.649,8.649,8.649,0,0,1,2.529-1.25l1.414-.424a1.437,1.437,0,0,0,.74-1.257l-.359-2.4Z" transform="translate(-462.771 -116.136)" fill="#002d42"/>
      <path id="Path_2621" data-name="Path 2621" d="M487.166,191.055l-2.49,3.328c-.591.6-1.9,1.455-2.052,2.28l-.022.123a1.764,1.764,0,0,0,1.631,1.305,3.243,3.243,0,0,0,2.463-.753l3.333-2.748a1.42,1.42,0,0,0,.727-1.237l-.26-2.3Z" transform="translate(-460.365 -115.576)" fill="#002d42"/>
      <path id="Path_2622" data-name="Path 2622" d="M479.048,158.661s-.088,2.9-.568,8.392c-.289,3.307-.463,13.405-.463,13.405l.463,18.586a4.1,4.1,0,0,0,4.471.165l.531-17.345,1.164-13.963-.627-7.555Z" transform="translate(-461.811 -125.597)" fill="#517fa2"/>
      <path id="Path_2623" data-name="Path 2623" d="M478.8,173.184c-.089-2.68-.28-5.366-.331-8.047-.285,3.39-.456,13.318-.456,13.318l.463,18.586a3.823,3.823,0,0,0,1.363.643c-.421-5-.576-9.557-.7-14.577C478.832,179.808,478.914,176.436,478.8,173.184Z" transform="translate(-461.811 -123.594)" fill="#6c90b1" opacity="0.1" style="mix-blend-mode: multiply;isolation: isolate"/>
      <g id="Group_1770" data-name="Group 1770" transform="translate(0 11.818)">
        <path id="Path_2624" data-name="Path 2624" d="M493.065,142.919c-2.729-1.855-16.823,2.217-16.823,2.217l-10.03-2.557a24.419,24.419,0,0,1-.517,3.123l9.851,3.868s19.508-1.658,19.632-1.576C495.179,147.993,494.451,143.862,493.065,142.919Z" transform="translate(-465.695 -142.435)" fill="#002d42"/>
      </g>
      <path id="Path_2625" data-name="Path 2625" d="M481.035,160.577l2.032,7.082,1.735,15.1,2.371,18.23c1.662,1.828,4.077.071,4.077.071l-.395-18.318.579-13.768c.293-7.171-.339-8.859-.339-8.859Z" transform="translate(-460.859 -125.149)" fill="#517fa2"/>
      <path id="Path_2626" data-name="Path 2626" d="M487.2,160.2q.093.554.182,1.109a2.162,2.162,0,0,1,.284,1.21c-.007.185-.01.368-.017.551a36.393,36.393,0,0,1,.157,11.381c.137,2.7.22,5.392.263,8.123.089,5.7.306,10.916.293,16.6.066.767.126,1.533.168,2.3a4.677,4.677,0,0,0,.777-.426l-.395-18.318.579-13.768c.293-7.171-.339-8.859-.339-8.859Z" transform="translate(-458.916 -125.149)" fill="#6c90b1" opacity="0.1" style="mix-blend-mode: multiply;isolation: isolate"/>
      <path id="Path_2627" data-name="Path 2627" d="M485.875,182.616a9.807,9.807,0,0,1-.171-2.547c-.468-2.824-1.149-8.9-1.749-11.693-.079-.369-2.078-1.37-2.078-1.37l1.269,1.518,1.39,12.1,2.371,18.23a2.4,2.4,0,0,0,1.682.822c-.783-5.677-1.176-10.948-2.637-16.51A2.516,2.516,0,0,1,485.875,182.616Z" transform="translate(-460.594 -123.015)" fill="#6c90b1" opacity="0.1" style="mix-blend-mode: multiply;isolation: isolate"/>
      <path id="Path_2628" data-name="Path 2628" d="M481.288,143.092c-3.364.792-6.8,1.511-3.367,3.246,1.894.957.575,4.63,1.522,8.381,0,0,.225,2.648.15,3.639-.176,2.378-.238,8.726-.238,8.726s8.308,3.92,13.392-.157l-.692-7.232.992-8.531,1.6-5.731a27.346,27.346,0,0,0-5.736-3.128C486.584,141.448,485.27,142.153,481.288,143.092Z" transform="translate(-462.29 -130.777)" fill="#002d42"/>
      <path id="Path_2629" data-name="Path 2629" d="M490.394,145.408a7.674,7.674,0,0,0-1.481,3.175c-.113.652.036,4.316-.371,4.585-.4,3.149-1.04,5.358-1.147,7.175-.175,3.013,0,4.566-.022,6.979a20.214,20.214,0,0,0,1.964-1.147l-.692-7.232.992-8.531,1.6-5.731s-.175-.128-.483-.337A1.938,1.938,0,0,1,490.394,145.408Z" transform="translate(-458.879 -130.026)" fill="#6c90b1" opacity="0.1" style="mix-blend-mode: multiply;isolation: isolate"/>
      <g id="Group_1771" data-name="Group 1771" transform="translate(31.254 40.192)">
        <path id="Path_2630" data-name="Path 2630" d="M490.229,164.1l-.771,2.573.317,3.389s.767.033.716-.994l-.1-1.173.03.145v.012l.424,1.35-.025,1.274-.064.411a.393.393,0,0,0,.715.259c.064-.1.622-.977.622-.977l1.019-.775.443-1.372-.808-3.865Z" transform="translate(-489.458 -164.105)" fill="#f7b7a9"/>
      </g>
      <g id="Group_1773" data-name="Group 1773" transform="translate(20.417 0)">
        <path id="Path_2631" data-name="Path 2631" d="M482.15,139.117v4.055a2.49,2.49,0,0,0,4.979,0l-.367-4.055Z" transform="translate(-480.925 -131.644)" fill="#f7b7a9"/>
        <path id="Path_2632" data-name="Path 2632" d="M482.15,139.117v2.789c0,.007,0,.017,0,.017a1.991,1.991,0,0,0,.722,1.905c2.045,1.3,3.934-1.307,3.885-3.149a2.453,2.453,0,0,1,.082-.707l-.078-.855Z" transform="translate(-480.925 -131.644)" fill="#eaaea0"/>
        <path id="Path_2633" data-name="Path 2633" d="M481.3,140.411a2.8,2.8,0,0,0,2.417,3.575c1.231.076,3.879-.4,4.289-2.437l1.169-3.685-6.827-2.668Z" transform="translate(-481.219 -132.857)" fill="#f7b7a9"/>
        <g id="Group_1772" data-name="Group 1772" transform="translate(0.4)">
          <path id="Path_2634" data-name="Path 2634" d="M483.561,133.829c-3.447,1.3-1.478,2.744-1.478,2.744s4.949,1.112,4.823,1.955c-.037.247-.668,2.177-.668,2.177l.616.365.66-.969-.635,3.543a7.565,7.565,0,0,0,2.507-3.023c.437-.919,1.413-2.87.8-4.056C488.939,134.134,486.72,132.632,483.561,133.829Z" transform="translate(-481.522 -133.409)" fill="#ce994a"/>
          <path id="Path_2635" data-name="Path 2635" d="M486.271,138.523c-.264.118-.481.635-.481.635l-.088,1.157c.658.477,1.449-.389,1.515-1.3C487.273,138.245,486.7,138.334,486.271,138.523Z" transform="translate(-480.205 -131.868)" fill="#f7b7a9"/>
          <path id="Path_2636" data-name="Path 2636" d="M483.057,144.642l.614,1.92a5.88,5.88,0,0,0,4.144-3.682l-1.092-1.684A3.918,3.918,0,0,1,483.057,144.642Z" transform="translate(-481.039 -131)" fill="#fff"/>
          <path id="Path_2637" data-name="Path 2637" d="M482.278,141.8c-.973.966-.324,4-.324,4a7.572,7.572,0,0,1,1.516-1.35A2.74,2.74,0,0,1,482.278,141.8Z" transform="translate(-481.453 -130.812)" fill="#fff"/>
        </g>
      </g>
      <path id="Path_2638" data-name="Path 2638" d="M489.317,144.129c-1.773.169-1.714,5.725-1.714,5.725l2.445,9.442.708,11.022c2.248,1.061,2.595.4,2.595.4l.76-12.109-1.319-9.773S492.343,143.841,489.317,144.129Z" transform="translate(-458.789 -130.097)" fill="#002d42"/>
      <path id="Path_2639" data-name="Path 2639" d="M489.738,155.254l-1.006-4.131.166-2.471-.65,3.184,1.6,6.056.708,11.022a8.6,8.6,0,0,0,.99.4c-.275-3.517-.424-7.982-.7-11.5C490.7,157.467,490.243,156.413,489.738,155.254Z" transform="translate(-458.586 -128.694)" fill="#6c90b1" opacity="0.1" style="mix-blend-mode: multiply;isolation: isolate"/>
      <path id="Path_2640" data-name="Path 2640" d="M489.945,163.344l.064,1.214a3.084,3.084,0,0,0,2.707.3l.074-1.414C490.446,163.869,489.945,163.344,489.945,163.344Z" transform="translate(-458.051 -124.149)" fill="#fff"/>
    </g>
    <path id="Path_3366" data-name="Path 3366" d="M485.52,140.612a10.2,10.2,0,0,1-1.841.935,3.618,3.618,0,0,1-1.143.046,1,1,0,0,1-.623-.609,9.036,9.036,0,0,1-.285-3.019s-.241,1.37-.345,1.888c-.4,2.014.139,3.509.758,3.867,1.163.673,2.369-.008,3.053-.378,1.574-.85,2.3-4.894,2.3-4.894l-.5-.482C486.391,139.128,485.963,140.38,485.52,140.612Z" transform="translate(-756.875 -1318.037)" fill="#ce994a"/>
    <path id="Path_3367" data-name="Path 3367" d="M482.357,139.549c-.141.068-.029.444.1.694a9.492,9.492,0,0,0,2.028.924S483.73,138.885,482.357,139.549Z" transform="translate(-756.514 -1317.584)" fill="#ce994a"/>
    <path id="Path_3368" data-name="Path 3368" d="M481.109,139.838a5.173,5.173,0,0,0,1.565.424c.262-.1.406-.38.342-.521C482.408,138.407,481.109,139.838,481.109,139.838Z" transform="translate(-756.886 -1317.663)" fill="#ce994a"/>
    <path id="Path_3369" data-name="Path 3369" d="M453.354,210.642s-1.519,0-3.645,0c-1.451,0-2.474,1.658-1.231,2.726l7.828,2.324s2.353.634,3.12-1.227l-.187-2.769Z" transform="translate(-767.348 -1295.554)" fill="#09425e"/>
    <path id="Path_3370" data-name="Path 3370" d="M465.956,175.187l-1.5,5.035s6.554-.271,6.531-2.564a62.149,62.149,0,0,0-2.893-17.6Z" transform="translate(-762.135 -1311.204)" fill="#306d93"/>
    <path id="Path_3371" data-name="Path 3371" d="M465.956,173.122l-1.5,5.035s3.914-.165,5.679-1.3a35.48,35.48,0,0,0-3.278-10.132Z" transform="translate(-762.135 -1309.139)" fill="#1d1d1b" opacity="0.2"/>
    <path id="Path_3372" data-name="Path 3372" d="M462.418,207.592s-1.774-.232-3.52-.452c-1.192-.151-2.385,1.8-1.345,2.447l6.143,3.025s2.674.9,3.531-.775l-.342-3.816Z" transform="translate(-764.437 -1296.639)" fill="#09425e"/>
    <path id="Path_3373" data-name="Path 3373" d="M469.695,176.266c-1.573.9-12.738,4.588-13.764,3.345l-3.575,24.448.1,17.306a1.908,1.908,0,0,0,1.593,1.878,5.618,5.618,0,0,0,3.831-.343l.865-18.39,3.821-10.565.275,9.514.175,14.048c.047.89.977,1.377,1.862,1.514a3.963,3.963,0,0,0,3.483-.784l.284-15.727s.216-3.743.581-8.4c.3-3.872,1.466-8.55,1.3-10.86C470.388,181.356,469.695,176.266,469.695,176.266Z" transform="translate(-765.95 -1306.188)" fill="#002d42"/>
    <path id="Path_3374" data-name="Path 3374" d="M462.713,188.819c-1.218.543-1.94.532-2.594,1.243l.275,9.514.175,14.048c.047.89.977,1.377,1.862,1.514a5.716,5.716,0,0,0,1,.062c-1.356-3.052-1.5-6.848-1.474-10.479C462,199.442,460.777,193.793,462.713,188.819Z" transform="translate(-763.503 -1302.304)" fill="#1d1d1b" opacity="0.2"/>
    <path id="Path_3375" data-name="Path 3375" d="M469.695,176.266c-1.573.9-12.738,4.588-13.764,3.345l-3.575,24.448.1,17.306a1.9,1.9,0,0,0,.6,1.367c2.075-8.288,1.043-16.566,2.47-24.994,1.151-6.8,6.278-10.192,12.242-12.769a3.556,3.556,0,0,1,2.713-.084,10.571,10.571,0,0,0,.041-1.635C470.388,181.356,469.695,176.266,469.695,176.266Z" transform="translate(-765.95 -1306.188)" fill="#1d1d1b" opacity="0.2"/>
    <path id="Path_3376" data-name="Path 3376" d="M463.283,207.667l-.439.436a14.511,14.511,0,0,0-6.8,1.294,16.814,16.814,0,0,1-2.968,1.434,7.294,7.294,0,0,0-2.729,1.408c-1.123,1.007-3.172,2.926-1.555,4.505a5.151,5.151,0,0,0,2.653.863,13.471,13.471,0,0,0,4.723-.23c1.586-.31,3.171-.534,4.732-.985a11.174,11.174,0,0,1,1.6-.453c.612-.081,1.564.24,2.152.042a3.747,3.747,0,0,0,1.261-1.106,9.988,9.988,0,0,1,1.776-1.414c1.09-.813,1.973-2.891.885-4.068C467.335,208.049,464.962,207.663,463.283,207.667Z" transform="translate(-767.262 -1296.474)" fill="#6c90b1" opacity="0.1" style="mix-blend-mode: multiply;isolation: isolate"/>
    <path id="Path_3377" data-name="Path 3377" d="M471.877,161.715a3.42,3.42,0,0,0-2.59-3.039s-3.884-1.215-6.9-.189c-6.408,2.177-6.3,3.072-7.987,4.271-1.955,1.392.367,8.519.594,11.351.338,4.214-1.527,16.84-1.527,16.84a7.242,7.242,0,0,0,4.876,2.46,21.749,21.749,0,0,0,12.486-2.378s-.675-8.817-.556-11.035S472.345,164.25,471.877,161.715Z" transform="translate(-765.601 -1311.816)" fill="#306d93"/>
    <path id="Path_3378" data-name="Path 3378" d="M457.553,180.814a61.881,61.881,0,0,0-2.742-19.055c-.033-.107-.039-.206-.062-.31-.111.088-.225.175-.351.266-1.955,1.392.367,8.519.594,11.351.338,4.214-1.527,16.84-1.527,16.84a7.242,7.242,0,0,0,4.876,2.46c.493.051.975.081,1.447.1C457.156,189.293,457.541,184.693,457.553,180.814Z" transform="translate(-765.601 -1310.772)" fill="#1d1d1b" opacity="0.2"/>
    <g id="Group_2258" data-name="Group 2258" transform="translate(-305.573 -1166.378)">
      <path id="Path_2654" data-name="Path 2654" d="M460.152,160.144c-.159,1.48,4.248,1.105,4.406-.376l.072-4.423-5.382.046Z" transform="translate(-458.205 -146.282)" fill="#f7b7a9"/>
      <path id="Path_2655" data-name="Path 2655" d="M459.62,157.926l-.218,1.54c-.159,1.481,5.316.877,5.475-.6l-.346-1.135A9.715,9.715,0,0,1,459.62,157.926Z" transform="translate(-458.157 -145.545)" fill="#fff"/>
      <path id="Path_2656" data-name="Path 2656" d="M464.967,157.686c-.618,1.452-3.7,1.379-5.307.58l-1.123,1.14c.871,1.559,4.644,1.914,6.341.445a1.307,1.307,0,0,0,.346-1.4Z" transform="translate(-458.429 -145.558)" fill="#09425e"/>
      <path id="Path_2657" data-name="Path 2657" d="M458.6,156.086c-.384,2.264,1.023,3.514,3.179,3.877,0,0,4.2-.564,4.577-2.789l1.148-4.042-7.939-2.746Z" transform="translate(-458.429 -147.816)" fill="#f7b7a9"/>
      <path id="Path_2658" data-name="Path 2658" d="M461.944,148.505c-1.906.475-5.006,1.8-2.629,4.117,0,0,1.057.457.764,2.191s1.247,3.776,2.431,5.075c.86.944,2.782-.063,2.782-.063s3.138-2.535,2.682-7.834C467.7,148.762,463.285,148.173,461.944,148.505Z" transform="translate(-458.455 -148.424)" fill="#81524f"/>
      <path id="Path_2659" data-name="Path 2659" d="M459.568,153.412l-.32,1.884c.731.494,1.561-.471,1.6-1.468C460.909,152.478,459.568,153.412,459.568,153.412Z" transform="translate(-458.205 -146.978)" fill="#f7b7a9"/>
    </g>
    <g id="Group_2259" data-name="Group 2259" transform="translate(-335.411 -1152.182)">
      <path id="Path_2660" data-name="Path 2660" d="M435.931,159.265s-.446.334.141,1l2.156,1.159a4.359,4.359,0,0,0-.41,2.383l1.119,1.426a.757.757,0,0,0,.451-.5s1.958.846,2.507.5l2.357.869.011-2.843-2.967-1.576Z" transform="translate(-435.769 -159.265)" fill="#f7b7a9"/>
      <path id="Path_2661" data-name="Path 2661" d="M463.267,160.765a3.869,3.869,0,0,0-3.485.331c-.784.436-2.691,2.009-7.306,4.653a2.737,2.737,0,0,1-2.4.009l-7.632-3.205a2.784,2.784,0,0,0-1.652,1.935c-.188,1.262.033,1.5.033,1.5l8.521,5.545a3.188,3.188,0,0,0,2.411.449c2.779-.6,8.908-2.538,11.036-3.169C465.993,167.857,466.276,162.06,463.267,160.765Z" transform="translate(-434.21 -158.884)" fill="#306d93"/>
      <path id="Path_2662" data-name="Path 2662" d="M450.972,168.056c-1.136-.128-6.852-3.319-9.328-4.6a3.848,3.848,0,0,1-.629-.41,2.049,2.049,0,0,0-.226.656c-.188,1.262.033,1.5.033,1.5l8.521,5.545a3.188,3.188,0,0,0,2.411.449c2.778-.6,8.908-2.536,11.036-3.169.088-.026.166-.069.249-.1A58.732,58.732,0,0,1,450.972,168.056Z" transform="translate(-434.21 -158.096)" fill="#1d1d1b" opacity="0.2"/>
    </g>
    <g id="Group_2260" data-name="Group 2260" transform="translate(-369.325 -1120.737)">
      <path id="Path_2749" data-name="Path 2749" d="M409.983,193.766l14.793,18.182,18.712-10.485-14.793-18.182Z" transform="translate(-409.983 -183.281)" fill="#ffec83"/>
    </g>
    <g id="Group_2261" data-name="Group 2261" transform="translate(-354.327 -1132.635)">
      <path id="Path_2750" data-name="Path 2750" d="M433.436,231.784c-2.217,0-11.327-.114-10.593,3.614.614,3.127,8.937,3.035,11.623,2.552,1.472-.266,6.414-1.875,6.814-3.568C441.673,232.721,435.41,231.543,433.436,231.784Z" transform="translate(-420.94 -156.388)" fill="#6c90b1" opacity="0.1" style="mix-blend-mode: multiply;isolation: isolate"/>
      <g id="Group_1849" data-name="Group 1849" transform="translate(0 0)">
        <path id="Path_2751" data-name="Path 2751" d="M435.186,185.176l-1.669,11.972-.087,5.785s4.3-1.367,3.956-3.52C435.958,190.444,435.186,185.176,435.186,185.176Z" transform="translate(-417.589 -170.797)" fill="#565ace" stroke="rgba(0,0,0,0)" stroke-width="1"/>
        <path id="Path_2752" data-name="Path 2752" d="M433.517,196.039l-.087,5.785a9.332,9.332,0,0,0,3.343-1.912,53.994,53.994,0,0,1-2.241-11.152Z" transform="translate(-417.589 -169.688)" fill="#6c90b1" opacity="0.1" style="mix-blend-mode: multiply;isolation: isolate"/>
        <path id="Path_2753" data-name="Path 2753" d="M426.237,234.038s-2.587-.495-2.887-.517c-.249-.017-2.651.1-1.77,1.612a3.676,3.676,0,0,0,1.384.966s4.19,1.383,4.59,1.411,2.039.224,2.375-.977l-.271-1.79Z" transform="translate(-421.386 -155.841)" fill="#002d42"/>
        <path id="Path_2754" data-name="Path 2754" d="M434.127,231.666l-1.534-.5c-.237-.076-3.107-.822-2.608.855a2.332,2.332,0,0,0,1.623,1.559s2.6,1.645,2.978,1.766,2.473.978,2.791-.528l-.092-1.668Z" transform="translate(-418.694 -156.64)" fill="#002d42"/>
        <path id="Path_2755" data-name="Path 2755" d="M436.977,209.838a16.157,16.157,0,0,0-.656-8.2l-.383-1.092-9.542,3.5,4.7,21.866,3.293,15.206s.965,3.475,4.006,1.447L436.853,225.8Z" transform="translate(-419.807 -166.043)" fill="#d5e0ee"/>
        <path id="Path_2756" data-name="Path 2756" d="M434.932,208.422a2.265,2.265,0,0,1-.932.016c-2.244-.414-4.5-.721-6.735-1.172l3.56,16.558,3.293,15.206s.022.079.068.2a96.115,96.115,0,0,1-1.812-13.037c-.613-6.322-1.409-11.738,2.307-16.893C434.327,209.4,435.312,208.5,434.932,208.422Z" transform="translate(-419.533 -163.963)" fill="#6c90b1" opacity="0.1" style="mix-blend-mode: multiply;isolation: isolate"/>
        <path id="Path_2757" data-name="Path 2757" d="M425.978,202.416s-1.574,17.231-1.569,22.315l1.019,18.977c.673,2.3,3.1,1.686,3.416,1.5s1.388-18.3,1.156-19.253,2.728-13.209,2.728-13.209l4.314-2.943-7.353-5.075Z" transform="translate(-420.433 -165.464)" fill="#d5e0ee"/>
        <path id="Path_2758" data-name="Path 2758" d="M428.363,203.9l-2.385-1.486s-1.574,17.231-1.569,22.315l1.019,18.977a2.175,2.175,0,0,0,1.835,1.68v-.027a145.484,145.484,0,0,1-.677-20.046C426.782,205.438,428.522,204.4,428.363,203.9Z" transform="translate(-420.433 -165.464)" fill="#6c90b1" opacity="0.1" style="mix-blend-mode: multiply;isolation: isolate"/>
        <path id="Path_2759" data-name="Path 2759" d="M438.792,190.111c-.134-.691.385-4.854-2.5-5.744a41.814,41.814,0,0,0-6.838,1.337c-2.31.67-2.791,3.355-3.368,4.121-1.338,1.777-1.828,2.683-1.636,3.45a8.854,8.854,0,0,0,2.117,3.353l-.409,6.72-.455,6.024s2.667,1.524,7.734.415,4.144-1.008,4.144-1.008l-1-4.964S438.925,190.805,438.792,190.111Z" transform="translate(-420.433 -171.047)" fill="#565ace" stroke="rgba(0,0,0,0)" stroke-width="1"/>
        <path id="Path_2760" data-name="Path 2760" d="M426.219,188.164c-.671,1.079-1.011,13.272-1.011,13.272l3.9,1.48s1.193-8.294,1.54-11.063C431.032,188.787,429.106,183.517,426.219,188.164Z" transform="translate(-420.181 -170.441)" fill="#565ace" stroke="rgba(0,0,0,0)" stroke-width="1"/>
        <path id="Path_2761" data-name="Path 2761" d="M428.684,180.619l1.06,5.574c-.02,1.51,4.313.935,4.331-.575l-.306-4.936Z" transform="translate(-419.085 -172.207)" fill="#f7b7a9"/>
        <path id="Path_2762" data-name="Path 2762" d="M427.275,182.464c-.029,2.329,1.576,3.365,3.794,3.393,0,0,4.122-1.218,4.151-3.505l.517-4.231L427.35,176.6Z" transform="translate(-419.53 -173.449)" fill="#f7b7a9"/>
        <path id="Path_2763" data-name="Path 2763" d="M429.576,174.489c-1.836.771-4.736,2.577-1.99,4.533,0,0,1.131.293,1.109,2.077s2,8.838,3.387,9.956c1.01.813,4.908-.287,4.908-.287s1.829-1.917-.825-13.723C435.444,173.836,430.868,173.945,429.576,174.489Z" transform="translate(-419.787 -174.194)" fill="#81524f"/>
        <path id="Path_2764" data-name="Path 2764" d="M427.971,179.639l-.025,1.939c.81.382,1.491-.715,1.377-1.721C429.169,178.495,427.971,179.639,427.971,179.639Z" transform="translate(-419.318 -172.649)" fill="#f7b7a9"/>
      </g>
    </g>
    <path id="Path_3379" data-name="Path 3379" d="M418.286,198.707,416,197.255s-.537.334,0,.868l1.21,1.138-.635.182-1.361-1.693s-.492.627-.425.845a6.815,6.815,0,0,0,1.614,3.072l1.343.795,2.229-.42-.212-2.272Z" transform="translate(-777.794 -1299.695)" fill="#f7b7a9"/>
    <path id="Path_3380" data-name="Path 3380" d="M418.363,199.371a1.872,1.872,0,0,0-.455,1.766c.2,1.391,1.015,1.391,1.015,1.391s.6.327,5.5-.207,6.993-2.62,6.993-2.62l-3.85-2.985Z" transform="translate(-776.82 -1299.861)" fill="#565ace" stroke="rgba(0,0,0,0)" stroke-width="1"/>
  </g>
</svg>
